<mxfile host="app.diagrams.net" agent="Mozilla/5.0 (Windows NT 10.0; Win64; x64) AppleWebKit/537.36 (KHTML, like Gecko) Chrome/130.0.0.0 Safari/537.36" version="24.8.3">
  <diagram name="Page-1" id="2YBvvXClWsGukQMizWep">
    <mxGraphModel dx="963" dy="584" grid="1" gridSize="10" guides="1" tooltips="1" connect="1" arrows="1" fold="1" page="1" pageScale="1" pageWidth="1654" pageHeight="2336" math="0" shadow="0">
      <root>
        <mxCell id="0" />
        <mxCell id="1" parent="0" />
        <mxCell id="jcsHHxfdhpQtWWIoSdT_-1" value="" style="shape=image;verticalLabelPosition=bottom;labelBackgroundColor=default;verticalAlign=top;aspect=fixed;imageAspect=0;image=data:image/png,iVBORw0KGgoAAAANSUhEUgAAA3YAAAJmCAYAAAAQDBKiAAAAAXNSR0IArs4c6QAAAARnQU1BAACxjwv8YQUAAAAJcEhZcwAADsMAAA7DAcdvqGQAAP+lSURBVHhe7J0JnE7VG8ePVFSULWQJWRKhLJHsIUWi0qaSsqS0p0Wr9n0VrZZUokKKkCVkX7OvWZMt2v/t85/v457pNc2MMe+dmXdmft/P537e9+7nnHvuued3nueckysuHieEEEIIIYQQIkP43//+F/wLj0OCXyGEEEIIIYQQWRRZ7ITIZvz1119uy5Yt7pdffgm2OHfooYe6MmXKuCOOOCLYknooIvbs2eP++ecfd+yxxwZb94d7bt682f3666/Bln/Jnz+/K1WqlMudO3ewJVxo8dq0aZPLlSuXK1eunDv88MODPanj999/dxs3bnR//vlnsMW5ww47zB1//PFpSq/M5O+//3Zbt251xx13XKrTgeO///77YC19475t2zZ35JFHugIFCgRbUuann35yP//8sytWrJg75JCk2yF5fuQ9fj358uWzOCR3zoFIbTh5J7799ltXuHBhe9/I4wc654cffrA05vrphX9nkwuPz/OEn3eTdzQpuAZpkRjiW7x4cXvnkuK7776zZ5AnT55gS/gkF0fyDHmadyES8gL5qFChQsmGOxpIS9KKd6l06dLumGOOCfYcPH/88YfbtWuXvcdpzcNCiNgnPSx2uR+MJ/gvhMgG7Ny501155ZVuzZo1VtFYuXKl+/zzz03sVa9e3SqVBwMVpDfffNPNnj3bNWrUKNi6Pwi6MWPGuDlz5rgvv/zSvfjii1bBWr9+ve2rWLHiQd83NSAo33//fff2229bAXnSSScdtCBZt26du+iii9zevXutskt6TZ482S1btszVrl07XcKdXlBhnzhx4kEJs1tvvdWNGzfOKuOrVq1K17jfdddd9pxOPvnkVFWuJ0yY4AYPHmz5LjmhSh674YYb3I4dO+w/Yf/oo48s7BUqVEhTxTi14SSvvPHGG+6UU05x7733nr1jNWrUCPb+F0Rqnz59XMGCBe0ZpRf+nU0qPIiGt956y3344Ydu6dKlbt68ea5evXpJPmvi9Nhjj5loXb16tcWXhWNpREkqbRFbvXv3dpUrV3ZFihQJtoZPcnGkkeeTTz6xuA0dOtR98MEHFn7yBmKrRIkS6SLsKDt4tl9//bU1ohUtWjTYc/D8+OOP7tlnnzUBTXiFENkT6jBho6YgIbIpnTt3dvfff78td955pwk9KgzpAa3zV199td3ruuuus4ougoH1Sy+9NN0sXxSKVDibNWvmbrzxRqswpwUqfD179kxIL9q7Fi5c6JYvXx4ckTUgnS+55JKDSgesKu3atXP33Xefxb1Xr14m0L/55pvgiNinZMmSCfmNZ3f55Zeb4P/tt9+CI8KHBgvE0TnnnJNqAYOwI19lJjT2IHYQw7yr06dPT/ZZYw1r0KCBCTX/brCcddZZyVrgEXYrVqwI1jKeSpUqWR4mnG3btk0I/9133+3q1q2bbhaw3bt3m2cE96ZBIBp4fy+88EI3aNCgJL0ghBAiOSTshMgh4PpFpYbK7muvvebq1KljFZDmzZtbRYxK5+233+4efvhh206L/FNPPbWfSxP/P/30UxNuY8eODbamDBaCm2++2YQXlgEqw1QkEYLcByvibbfdZi5MWA/YTsWcfY0bNzZB6i1zp512mm2/4IILrIWclnla7RElTzzxhLWWIyS5JvGaMmWKuVi+88477pZbbrHrUck7UGUJsYOr14YNG/5zLhYB1qtUqeJOPPFE9/LLL5t1B1csKu2tW7d21apVc/Xr1zeBxP0JJ3EnXKQD7ns8hwEDBlic2E64qXRjXSDduT5xRXBSWY7kpZdect27d09w48BqQZiwplCZxQpJHP11uD6VcUTwgbzv2Y9rHpVU0n3SpEnujDPOsGtgZRoxYoRdm2d60003mbAhHbp162YNB6QDYoH0J/wdO3a0Zfv27cEd9lkWeW7nn3++PUcENM+U48mXn3322X75DhYvXmzXRJQcCMKAWCe/49J21VVX2TMhLa699lpLTyyULVu2tDhgnaxatarlMc71JA5nJJyPlRfLVCSk2QsvvGB58txzz7X9nE/FHysMeZw8gGWbsJE2xJs0xnLK+zJjxgzLR2effbY9Z8JAQ03Dhg0tDpzD/QkreYy8xvPhvRw4cOB/0i4SGmFYpk6daumOe2JyLtbJwfURHcSPcPDcef6dOnWy8mPRokXummuuMatZcnHEGsgzJ18iurC6JxXHyHefZ8h+0ictzJ0718oWGj+4PuVQ5Dt46qmn2vPhHXj88cdd165dTRgSdsoovBAiy65atWpZWcp7RcMClmL28ayJH/mKayL2eOcpY2l4IJ1OP/10e5fIz7w/xI13l3cZWCedFixYYOtCCJEaJOyEyKZQGfQt7A888IC59VDZpdKFWMI9k/9t2rSxShpQQUOIsH3kyJFWwUYkeGbOnGnHvvrqq1ahPxgQIbgJ0hJNJY7WcyrrX3zxhVW0uSfgUkdFiArNmWeeaZU6+szglkcliHMQO/RVomLZpUsXq0xigcDFrGnTpm7JkiUmuKhIz58/3667du1aq3jhWpZS/yYqdVRIqVRSuQJ/LsLuoYcesrSkkkgFk+sjcqm4Pfroo+7ee++1+5NOiFVcWKn8UeFmOxXCvn37WgUSN0OELttxn+WeiNFp06ZZxZ80IQ0QEJFQGca1jL5lgPshVqOjjz7a1oHnR7gJJ9enQsy9IvsSAgKTuJFHyCv33HOPuX8h7LkHYR0yZIhdg+eGm63vd8Xvu+++a+lABZ5fxPUrr7xi6U/4y5cvn3A8cH/yJsLi6aefNpFBuiJsebbsGz58uIlqD/fGzQ1B1L59+2Drv5A/ELGEn/TnWPI1ViXyBoKCa5OnyGvkOZ4zcafyzTN6/vnnTXT4/oaJw1m2bFnb7iFMefPmtfAnBe8Yz5znSN4fP368iQOEK8IcEYbLJ/enQYB8/txzz9k7RtgQkogL8g6ug7ybPD/2c0/CTFgREDwjwvP6669bvkvJ2ko+4Z3hHeaeNOYk1y8QAUdeJM/7soQFQch7jGjFFXXYsGEWR943BC1ihneRPJRSHAkn8SOepHdScSQPsv7xxx+7r776yoQu8Uycj1MLYUeEkW95RjwX3l/SDwumj4vvs8k+ykreQcoF3hVcfIkPZRLvChZj4oVQRSjS+MM5xAXhjVsmz5ww8y4gXGfNmmUu6v3797dy0Zdr/p0mb5FHaKxJSagLIUQkEnZCZFOwRtAqzXLeeedZpZsKMC3TVKQRES1atLAKMWIKcAFCsNGHhsERgNZnoIJCxYdWbFq4DxZavn0lmNZ8Ws6pBGHJoqJNazZgOTnhhBMsDPwStqOOOsrCwf05DvGWuO8QwgqrEFYOoBWcCiXWI6CFPDmXOSpbpBcVVfrpYUGgMksFDvy59F9ELCEuiAvbEJdU0uibhoUI4UZFHJcwXETpe0g4CA8QPlr+OZ9fWvARqWxHSDKYBfdAgFIR5F6Io0gIF5VmKrpYz2j559zIwSq43pNPPmniijSmMow1MNIiBaQzwueyyy6zvML9EIVUXOkrRMWTfIFFBmsElXEsCYB4Yh/pQAWXPIV1knX/DDt06GCDSQDxQexQ6cXCSrxoOCD+WJ2wElLZpSKM8AUqvOQVrG7kTY5JDPejUk34EcjkNQQHwgdhgWjE8spz5FmRZggLGjpoYPCDC/H8iFtS4UyMF9PEMSlatWpl+xHbPHtfYffwjLHOYD2i/yBpRFpxXSry5EV/X/aTPgz8QYWfhgWENNdGiPNO0xjCtXjHU7JI8z6Q58ibxDWxYI3E52dv4fIL55B/aUyhsYW8heWT+EaSUhzJh7wXDBACycWR54JYJG+TN3k32Z5WYUf5wgJY3GiAIE/T8EGDAOUMYcOt2ZdZWLD5JX+TzxHPvCOEkfeffZHQOIN4Q/ARL94TvCJ433lfsP6DF9Tkb8JAGcS76KEsIK5YLYUQIjVI2AmRTcFtjgolCxYeKmO0VtNKTWWEShKVNISdr5ggSJLrO0NrNWKKVmovwg4GXwGm0kQlm8oogoQWcMLjoTKZeHADXMWwAnEuA2lQIcSSEAmVYVrdqVDT0l2zZk03atQoq0hBUoLAQ2WNeDF4CAvXpvLl08Kfy/2p5EVWYKmEsh3rD4KEipzHW4Wo+BIewkVcaf2nkkv8ER9UKqnIY10jjdlOXBDQhIMwcS0P4cKSh7UQ4YZVg/N8unEsAoZKORV/BB5CNSm4FiLe5xUaAaiIYslALF9xxRUWBp4BFghfEYekRA2igvTyYSE9fPphBcEaQpypGFNh5blRmfd5kOfPdb2VgrxG2mHdpGKdFDwDRJCPAw0X3AfRiDULCxIWH/ID7m4ewsj9EpNUOBPDNtIucV71pJTfAGFC+GhcIV+wYCEkv3LNxNdO6l4IBSxuPHvyFIOFkJeTg/TjHs8884xZIcmDWOAQXgjhxJYh7sezoZHCpy2LtwzjxokwRoDQ0JCYlOIIkfkEkoojjS4XX3yxa9KkiYmefv36mSBPK5H3xBrGe0RjAK7FNGJEWr0JT2IoN7FuY6FDIGJFJp9EQkMF7riUU8SZhgXeA1+2+ev6MoByg3eOMoBGLsoT4FiemYSdECK1SNgJkUOgYoEowXLHKJC4pWEFSW3rN+5bVAapaCEa0gqVUcKAWxaub7RqJ1dhj4RKEK6hiJnOnTtbBTEy3FTusVphIfNud1i9cH0LC9IQoRHp6oZFEWGE8MF9DquYhwocgoXwEh7ChdsVghorJGKbih37sIghIhAUVBgRmlitsGKMHj36P88IsYMFkco88Y4UXAgTBDOucV6kJu4jdiC82y7XJny4mVKBpdKaEsQJlzovEni2PHMgLbDskI8IH40FuMVyjK8cE0/EMM8bsJpQ4ca6kZzISgoq8FyTsJMnfAU6sq9fciQVzsQgAJKygKYW4k1a4epHvmBBcCHGkxKbSYE1jHTBCsf7AN6amhSkLZYoRDD3x/UPqxrWJBpMkhIyycHzxW0R4UZaDx8+PNjzL2HEkedH2Gj0QMTyTMMQOoSf94r+blinsfiSnrx/KUEa8f7iwUB5xPtAvCIhn+FdwPvLPvolI5555xPD88PqSblGP1ksiP5d4D2mbEnOKiyEEImRsBMiB4BFh0ooboZUwrAAUcmjIoPAQqhQmT4QtNDTYo31zFc+DhbfYo5rGpVixB3WFARmctDfyrtgUbHiGlgIIiuiVIBo8UYEAO5eXhCEBdYQKpkIRly26E9GXx2sFmzHXYw+WcQLMYDLGwNnUDmlrxVwPGHDjRJrGNeh4kaaYAkkPRAVWL6ohFMBpaKYuNJNfNmHyyBWwEhLIZVmKtVYaHnOVFzpQ4YFzguu5MCKQX7BgkB8sPCSdwgn/YQQYSmJOyymVI6piPNLnzzOj6ycIkq5PlYiniPWZQQqFVkqzIhlnqWHdKCijEhN7NKYFAgOBAWWJkQAcQJc6HCTw7qVGkEWGc7E7o3sQ+QnFtypBcsXop3+ZVybvIR45jl7i9KBIE15LsSHa2DVJF8l924iRlkQuUB+4L70CeMdJP1TCy6fQ4YMMUswVmEECfkskjDiSL7mXpRP5D36eVIepKa8SgneEfIVopZ4EzasgQj/lJ4pZQrpzHtEYxJLYhdUXIZ5xylnuTZhJk9TbkWCVR63dJ4X8USU814TLqAxhvXE5wkhRHJI2AmRzaASQB8sWuNxQWOhpfv66683YYZbEBVC3JoYiIB+UwgWKjP8Iggir4P1AmsU51IZom8O/33lMDFUdKio+8oIFTisct79ilZr+rLgnkgfFyryuINxf+5NGHxrPm5guHnRzwZ3RUQl7k2IJPr3UEHEUsVxiBC24YZInO+44w7rH0VY2E+Yk4Lw0q8rsn9aJJHnEicG48AtDPcyWvlxycIixnHEiXQhXgzQgAsZAgDLGWKQcCGieRb0e2OaAa7DdiqYWA8QgoSH58N24DqJhR3piIjieNIEOAahhGX2kUceMVGGOyfpQCWctE1s7UD4Ej7CnDjd6PND3OjTSFzJK1RaqaxGPlPgOZEGbON8RCCVekQvFkieqT+GcDL4Bs+K9MBdkso7aUJ6klakOVZDzuFc+izRbw/rTyQ8P4QmfQoJPwuVauJE/uUXgc127oXIAPIlaeWfe2S+TSqckYO5AM/Iiw2uxTvCOZH/wed/4kMlHTHP9CP030MUcRzPmvQl3bBmeWuuf+YcwzW5FovP8whXRs/EgsR7iRimryRCITIMHt4vni9Cl/QgnbEmITAQXt6y6iEfYZWib6JPWxbyKWKFcPPMcDekjEH0UF7g7sroo4h78mFScSSfkC7EB5KLI+8H6UYepH8ez4MGKqzCScUxEvZxHX8P4s8zJj+xjTDz3AkbDQe4LCNGEW08L39tn3fJj6Qv1jXeOeJJgw7h4dpYmXlmWEQpf3HTJH1IW7wj2BdZxuKOTnyIG+mK5RXhi7DjGdI4RNr68lAIIQ5ErvgPVspjXwshhBCpBIsRLmiIUYQBozYiihgRkkp0dgHrCtZSKv8IDiHChAYiLH4MiiNXTCGyJwdy/U4LagYSQggRGljVmPuOAT2wKGFho49hchbRrAquc1igGA0VNz4hwgJ3Y94h+jVL1AkhDgZZ7IQQQgghhBAiA5HFTgghhBBCCCHEf5CwE0IIIYQQQogsjoSdEEIIIYQQQmRxJOyEEEIIIYQQIosjYSeEEEIIIYQQWRwJOyGEEEIIIYTI4kjYCSGEEEIIIUQWR8JOCCGEEEIIIbI4EnZCCCGEEEIIkcXJFRdP8D/N/PLLL7bEGkWLFg3+ifRk586dwT8RBqnNt7H63uUUjjrqKFuSYs+ePe6vv/4K1nIeKnszBvIYeS2ronySNrL6c0+J5MpVfe9iBz2jfylUqJA79NBDg7WD53//+1/wLzxCEXZTp051119/vdu7d2+wJfN54IEHXLdu3YI1kZ5ccsklbvr06cGaiIaePXu6u+++O1hLmY8++siO1ccu4znkkEPcHXfc4W644YZgy/7069fPPfroo8FazuKRRx5xnTt3DtZEerJ161Yrfzds2BBsyTq8/vrrrnXr1sGaOBg2bdrk2rdv73bs2BFsyR6UKVPGjRgxwhUvXjzY8i9r1qxxHTt2dNu2bQu2iMygRIkS7t1333WVKlUKtvwL+ZF8Sf7MCTRo0MD179/fxF1aiVlh9/nnn7vLLrvMXX755S5fvnzB1syBlqzx48e7Tp06uZtuuinYKtKTli1bmrho2rSpy5UrV7BVHAx///23vUekZWoFwTvvvON69OhhYjCaFiNx8JD2Xbt2db179w627M8zzzzjHn/8cXfNNde4PHnyBFuzN3/++aeVvTSokS9F+rN582bXvHlz16hRI3fccccFW2ObP/74w3322WfuoYcecu3atQu2ioPh66+/dg0bNnRt2rTJNlZPGiloIP7yyy+TFHarVq2y7+PZZ58tS28mgXcW7y7l/EknnRRs/Zft27eb2CFvlipVKtiaPVm3bp3bvXu3Gzp0qCtSpEiw9eBJD2HnEHbRMmHChLj4iMXNmDEj2JJ5xGe8uCZNmsS98MILwRaR3rRo0SLuxhtvjPv999+DLeJg2bNnT1zbtm3j4oVCsOXADBkyJC5fvnxx8YVLsEVkFGXLlo2LF+DB2n95+umn7Zj169cHW7I/O3bsiIv/oMf169cv2CLSm02bNsVVrFgxbsqUKcGW2Ce+Ah9Xo0aNuJEjRwZbxMFCuVKiRIm4r776KtiS9bn33nvjypcvH/ftt98GW/Zn5cqVcaVLl4575ZVXgi0io6Fs5xmsWLEi2LI/PDue4T333BNsyb7wjW/evHncrl27gi1p49dffw190eApQgghhBBCCJHFkbATQgghhBBCiCyOhJ0QQgghhBBCZHEk7IQQQgghhBAiiyNhJ4QQQgghhBBZHAk7IYQQQgghhMjiZLiwY1Llt956y+btYu6zvn372pwsIvszZcoUV61aNVe6dGlbmOQyLTBfFhPQjxo1KtjyXxYvXuxuueWWhDlCmHOkbt26CffmfK5zIDZu3GiTLUdOvv/PP/+4kSNHunvuuSfYEvvceOONCXGvV6+exSstfPXVVzY/W3KTopPepDvpD7///rt78skn3QknnGD3btasWarf98iyAn799Vd37bXX2nXq1KljYTkQPLebb77Z7dq1K9gSW5COzLfpn03btm1trqADkTidD7YszYp5WEQHeYYJnslnlIWUiQeCvPj888+777//PtgishqvvPJKQvnCMm/evGDP/ixdutS9+uqrVmZHkhXradQtfHz59vANShyvpKBOQXolhjRLbZ2Beg6T75NefO8ONgx8s6hz+G+0L6uZN+5grkM8UqojZTaR3z7qhaRbZJhJc19Xoezq1auXe+GFF1y/fv3cxIkT3cknn5zwjLt3725zV/t1lsT1HOoAF110UUL+jywP/fFr1649YN0yK5Dhwo7K2U8//cT8ebbwn5eFBJ05c6b9Ah+SuXPnuvnz57sff/zRbdiwwT5ETMhKRhdZj99++80Kui1btthLPHXqVPfzzz/bM509e/Z+z9rnhx07dtjz9sdQWFLZIH9QMHz77bdu/fr1NjH9ypUr7RwmjWQSXApICsDVq1e7H374wZUoUcJeatY5b9OmTe6bb76xc7g3YeHcFStWuDlz5lg4yJvfffedXY8wcU3iwWSqXJN7k485luuRZwkzYWMf91u+fHmqPgjpCRPH87Eh7RE6TAJLGBcsWGDxJ30p6HjHiAPbiSfb+M9Hf82aNbaNePMeL1myJCHNuAbpTzxJI84jnUkn0o6KAelz9dVX2/XZxjU5j+MIC9dnG2KF831ZQYG8bNkyN27cOJc/f36Lw8svv+xGjBhh12c/4o/05njSm7zC/bgW4dyzZ48dx/24B/cn3DxTwsO53J+4cu+MgrxzxBFHWFzIQ+ecc45btGiRhYGwE162817wbBCzhJ98HZnO5NH27du7Y4891p4Dx/m48Mz4zzbeH+KeOA+TflyfDyHpwbVjLQ+L6Hj//fetDCQPPPzww27AgAH2fHnO5AneK/IF+YR8RznGO0F+JJ+QJ8gb7Cf/UXaSZygrOZc8pnwSe1B2XHfddfaMKPcfeeQRK08jv30cw7Ol7CAP+O8vz5rnyfMnL/CsfXnLd5Jj+OX767/RPg/474IvbzMS6gy33XablZ2EiTCz8L0ivr5sJJyE18frjDPOcOedd55NtO3jw2+lSpXcVVddZd9Rylu/nXj77xZxpRwmzUhHvkU1a9a0de5JuvIO+feI47kn9yK9I6/JdQgfYeP6PLdPP/00oSGP9453l2tyH95pnifXIG7Ub2bNmmXx5/3mOuxjO3EmDjw3jiUMhI97ZyR8l/Ply2cTzw8fPtzS5Oijj7a8SRowETqT0ZNvyX98w0l/4kt+uvjiiy3d2P/aa6+5wYMHW7qT1xF+xLds2bLB3fZNcF+xYkX3xRdfWBrw7T3ssMOsAZlrIBwR0ORb6h5ZmdwPxhP8TzNkKhLn0ksvNeWbEjxMMuxpp51mD4+HyaztL774olXWP/74Y1ejRg03evRoy9A8ZD4wH3zwgf0/7rjjXMmSJd0hhyStSXkgHFu5cmVT4CL9GTJkiFUoW7Zs6XLnzh1s/S8URsOGDbNCkOdeu3ZtV6VKFSuAKGQ+//xze3GpgFCAURhR4Jx44omOlhwEHZV78g8F1OGHH27HkRconGilY/ukSZNcsWLF7HzCw72KFi1q+YKXe/Lkya5cuXLWas31CQ8FwZFHHmmFMPcnL3I84aNQLV68uJ1Xvnx5y7cUohTa7Dv11FPdo48+ahVgCogJEya4ggULumeeecYKoPHjx7sCBQq4448/3uKXFBTQtBIRzjPPPDPYmjK8S2PGjDGhRthTAuEwffp0+4BRQCKw+cCwTuFOYUeaPPXUU/YhoIAjDsSPAhaR9OGHH1pcSVeeJcKAYxBt27ZtczNmzDCRQhpSaFIhLFy4sBW+pAnPmY8Y9+aZIe7ZR9nBe33vvffa8+IDRgHPR5j05BlRkSBtuAYFNi18lDcLFy60/dyHZ8CH4r333rO4cSzPit9TTjnFyhb/wUMgcp2BAwfah4Jf4s3HgfKFltGUoLyqVauWa9iwYbBlf/hokx9oRSSNkoP88cknn1hakH7EmfQhTKQ9HyqfHlhKDz30UHuWVNB5bj6diTd5gXzQu3dvuy7PEPhgk5epvLHt9NNPt3IyMg/T+smHjefMu8h7ddRRR1l+SG0eJv34QPNssKiK9IcKz9tvv+3OPffc/SoxScGxlHOUgS1atLBzeCd4R3jGlM38vvnmm/bNJf+SB8jLlNVDhw61PEN+IX9yPOUA32XyB2Um3wLKCL4HycG5vKNNmjSx77Q4eCjfKLMuv/xy+9alBM8LKKt4h3n3OZ8KrP/25cmTx+pxlLeUD5RFVP7feecdsxSxTnlPWcI51PO4LnmJZ1m1alV79nwH+P7ybeZ7xrovbyk7UoIykLxE4x/lWWIIL/do0KDBAcuXyHomeZrvXPXq1a18Il7sJ66Ut4MGDbK8S1mLWCJeCCLKUwTWtGnTrCGD/E48+B4SL+oVZcqUcffff7/VTai/8H0hnLwnvDN82yineYdKlSpl4eH7SJnNdbkn30DSjG8jjd2Un2PHjrU05PtGuhFWnhNleLdu3ez94rvLN5FvN9fiudAwx3ee+gThIx2JP/t5fpTrhAMPHvIBz4jynoX0b968eYp1OL61pM8VV1yR5DtOetJgxPeE71hKUA6QZsSZ/NOhQwerZ7FeoUIFS6OzzjrLngnH8u3jW8o9uDfPg2PIm3wP2UZciTd5Fl3hQciRB5o2bWp5lneGd4FnTF7im0/aUe6RF0hznkNK8EwJ24UXXnjA+ldKUP6GTUz0saMyyItBAUClBBVNYfHss8+6/v37W4WSh0lmoUWFByyyJgglKpBUynmpeeEo7Ch4eMl4qaisUgj36NHDCkleXioYFEaIMQ8uQlQMaNWhwKEgwbUMEcBLSgFBRZYPBQUghcb1119vLmy8kBR0nMsHjUKCdSCMHEfBSoFC4Yv5n48owo5rUxCQFynIKfyBayGyqEBRSHMd4oAVhmsQrswib968VgCR9gg4Cj9aIREwVPr5uFDAUHCSXoQZAccHBvdHnpf/2CJEEIe0jPEBIV6kO+nPs0Jk80Gj8KfQ5H1u166du/322xMqCRSshIPKCQKLjwxi75JLLnGNGjWyNOXafHS9iGM7Yvmyyy5zd9xxh+UH4kDZQCMQFVuuyQeKQpx4UJmhEkILLtfClQP3Tv5zPxqRiEehQoXMDZJKDWVRRkJl4corr7T04WNEpYO4IFYJJ/mTtOAdIA9SYSB9Eqezh/KRZ80zpKJEWnAMCwIaksrD5Pfzzz/f8j7pyTOJpTwsooP3hwYyGjx5nljtqEBRIaSiyrvDe8n7yPvNc+fdIw9QJiMg+SaTJ2n8YhsCkcYL8hLlBNegzBSxC+UIZX2rVq0Svn18r2j8ojzlW0kFn3IUwY4IpOJKGU7ZgGCiTKfs4JtNmc82xMfweOHUtWtX+1ZQtkeWtxkJ5SU2C4QX5SXlKmEiD1NvwMJDQwWVc94Fvot8L6iLAuIGEcA3hm8D9RDKPho7qAs899xzFi/KaspN0rJLly4mfLEK8V1BOPB9veGGG0yMUb9AONCYhkDju0u6I0Z4z3h/CCMikveRRmyuSfixPtLwSRnMO0cDHN8q1hEq3J+GNerLCCSsjjSI8zwRlrz3xJtnQtlP/Pw3gmfbuXNnu296iIzkoO729NNPW7xJZxbyJt8vBC1Cje8g33fKJNLUG3T4JV1uvfVWS98DNcRyDeoAlE80yJJurPM8WrdubeXXnXfeacYJ8nZWJ8OFHcqaFl8SlQxNgcCLQesDFQ8yKJVOWmV4uBQ8vES0WKfUkiCyBhSc5AEKHJ4nLUW8UPg1R/b3YR/5hIUXjfxCRYIC20OBgPig0OV4RCKFL7+8+I0bN7aPD5Y2tnMdLyhoteLebdq0sZcZv3Xf6sK53NfnN8QIYgIhSmWXfgg0QCDkqDQTBsLGfQkn9+IavhJMPvfXzCy4Px8o0p748GF54oknzPpDq6yv8Ps0J+4sFLKE38cN+BjwEaHljmMj051zKJBpjUcU+g8F9ybNee58tGj15N4c40UJYfQLIEYRdFQw+CjyEaS8QPRjneVZAOUHH0nCxfOlkYCPHx9qBDxwTVr/sDDQYtunTx8LO3mCfcSTxd87I+GeVDxIHyraCC0qIDRMYK1D4AFpS5g5nt+k0hnYx+KP59c/I47jf1J52Oddfy3OjaU8LNIO5ROVQSpvfGPJW7xTvC9UyFmnXKCCQ2WePEfFj0o9kIdoVEME8v4gCinLeX/IE/49yoz3R6Qeyk+eIc+LhqzE3z6gUYe+R1iiKH+BMoEygPKAvESZQSMcLvGU31j8HnvsMfOaQCRgCeLakeVtRsK3A2FHnkdUka/Jw+Rxb2l56aWXLJ8TL+LnxRsQR7bxyzZf7nFdGjd4Z7CMUb9gH/me6yeGdKFBGYFJAx6NHohI3ju6Rnh8We3vw3eadKXuwreWb4L3SuHZEC+EEaKOd5rGl549e1q603CN1Z3wcz0EJt94wsy7jeDz4WUhL/j7ZySkN+nBM6GxmHQirghWjDwI4GOOOcbyJvU+hF0kiEDqLZxHOqcEDZwIcso+yi60BfUHngONE1hYeS+wHGZ0OqQHGV4KkxmpoNE6fffdd9tDI+PR+sGLghsarhw8sPvuu89aKngRfaVSZG2wrGHVovChIktLCy8vLUpYjSikKEwj4WXjxaZAxI3BgyWGa2C1oIDF3Y8WRSrJWNaAyj4vLC1pFGzkKVp4EBe03NAiRGHHi04rdXJwfQpXCgEKFNwiEDYU8rg3EG7Eho8XBQYtZXfddZe5FdMampmVHgoxWilJe9KaQpIClQ+Ed9Ojwh8J7+UFF1xgVrI33ngjQUhRoUNU0+JJnEhv0p30xxrANqx3NMog4Lgu7zcdpWkxxIpG+mCd5YPDfn/txPBBRpDh+sgzQowQB9KdsoLWZcQQH18+blixaAiiRQ7Rw7OgtY6PHPmMTta0fFJ5iRWw8BJm0gcLMxVoKgJYDmlN530gfyUmcTonBc8KSw0tubSe8zHlPUuch2l5phJPhYBKGGUw58ZSHhZph+8nlUDKJ94fWsqp5FBO0vLNN5kGL37Ji/xSMadBhv/kP77dNMKRH7iWyDrQQMRzp/yjHOR7lvjbh7WIsgR47jS8YcmnXKCMRjQg9vDqwCpFHY1vAN8Ozuc7gpWJRnnKbI6LhfIWqxffaBov+PZQsaf+iQHBiyfSBjdP33CM2ENsUOcgfnyvED+UzcSR94jGMcruSBAF1GlJU75FfIf4Zvnr8D3jPfNdE7ifF5ORcC/eP7xbCDcWT8LIdfhu8u1G0PDMKJc5ngY+GgT5trPwnKlvIeToYkCY+d4m963NaKiTkZ+w1NHv09cFyVekCes02pKmbGdJK1j8uBffO54f3z/EXHYlV3ylYf9adBrAkoFFA3/9+vXrB1uThttR0UKZAw+LCgTKne38p0LJh4QM7FsceAFoWWB/SvAyMfINbgNUlET6QwFEQUNlgRcxOfwz9SLdP3sKR1oSKaSoOPJS86y5FnmCli7yCwv9jLgfBbRvJea6nMu1+U9+wfrC8Vh6+WWdPOYLUV5s34JGQUdLnL8e4aNwpiBmO/u5DmEE9nMueRPBwHFUhnGnwKxPvLCA4K6Emx/h4SOXUqWYjyeds3E3plUuNVBI4y6Fa4W36iQHaePDz0eA40kLPty0dhEX0oT3zLuDAGnCR5uPC5YwRAD7OJZ480sacH2uQ9xJU7ZznC9eeAb85zmQFkCcCQsLz5p7c76/N5DWXJdrEi7uyUeXc7gOv7j/UPHA4s89fD4gDDxH1vkF/hMnKi4cE/msuT5pxDUPVM7wccbliI92UiCGEdD0nUjJTYTw+vwPPmw8G9LH50nSh/CSPhzLNtIrMp15hhzn871vYScuPGf6jZBWVGo4LzIPs58WX6ycvqWUBpGDycMIUaw8tPKTL0X6Q+UItzla/2nISAnyOu8y7wp5nHzG+8g7TeMM7sBAvvN5jfIv8v0hr/p3z5eb5CGfF3lPyW/k2+SgQkU5iUWF77Q4eBBgfANp0MGDISX4hvJcPJT9PJ/E3z7KDrb572Lkd5j/lBM+X1Am+4ZQ8hD5g3zFeZxD/uDYyPI2pbIDaHRFKFL5RrQkhsYEvv00LFAmpQRlJPmdPEnZSBqQTwk3+RsIE3nZfy+IN2HkP0KKOGHV5Bq+/OUbwTvAf7az+O8g9+E94Fjux7GkB+nmv6/+G8M1WCeMpB/hIGz+efjnwDrpx3FsA38d9uHpRl9ZGjX9dYkDz5h1wsm3gDDyfLimr3Ml/kYQZrYR1uSggZA6GA0C1PkSQyMQwh5rLmItJYiTT3vCzDeGNCC9iBtxZDvxIIw+7Xy+JD6kRWR4eQZ8/0hD0tVD/H25xDE+XfnlGvwH9vk8zPEpwTeedCDPUn6mFeIUNhne/MpDIHPx4rL4xGMbSp2HCzxgWklokedFIcMdKKFFbOOfKc+ZhYKT/MAzZ508wEvmnzWFHR8RKgJYhBDsrGOl8MdwTf5TAFBQcx2282JyXbb7woy85O/tCzB+yYccy705zhcW/gPmBQQFC4s/Fyg8uD4t37SA+nixDbdDXCooZAlHZuLTmIV0ID68V6yTbsTRv2eElXQgbrgvUFmngs8z4BjixjFc0xeA/jpc128nrTiWhTTmGNwHuS4L/zmHdOYaXjjw3y88C45lH9ckLX0cWKclmH4PvlLLc+FY7sd9CQ/n+OtxLoWwv0/ks/bPmO0ZBfeOfDY+bMSNOBIXnz4cx/HkLz5cidOZX54P5xAXH2da3nHfoSJNSzrvYOI8zDofam9t5vpcM5bysIgOnh/5y78/rGM5QCQgsMgPLL4cJZ9xDOvkBxbyBtcgf5E/yH/kH/Ie55KP2CZiB56NL19YKCP8s4r89vHceNb+l/KZff575stVyhSfl1g4hmtyDfb7soLjuJ8v0zIS7k14gLj68pG4kfdZyLfs8/HieM7jWCxreE3470hkPSPy+8K6L4f995P3hDjzSxqSBv547kd6so1jOZdw+TTlv//e+XLZx4VrRF6HcSgQNzQyAsexn7j5bxnPgrDxyz6u4+PgvxEcx3++M1w3oyAcvqyhXCGNwceb/eDDGPmfY/lNHF7W2c41IuF6pANwDOnA8/LPzsM+n+ZZGX2pRcyDy+Xbb79tFqOHHnoo5l46CgbcCWg59+C2hBtKVi4gfLxId9xdiVOsQZiwOJBHxH/hg01nerwqaN2nxdt/MCMhn/JuRY4Elh3ysEge8gH5AcsylTohxL9lJo1gsQweI7i5qnwWiZGwE0IIIYQQQogsjoSdEEIIIYQQQmRxJOyEEEIIIYQQIosjYSeEEEIIIYQQWZxQpztgXg+Ga89MGD6V4bwZyU/THWQMdMBn5DzmWEk8GpFIHQyxS0do5tY72OkOGFJfgx9kLMwBdqDpDph7j7mRGPUrJ8Aw4sw7evnll2u6gwzCT3fwwAMP2Hx0WQGmJGJqDU13kHb8dAcMP888ZdkB5jplBN8DTXfA6MzKN5kDU5oxxcKBpjto3769zR+YnaH+xfx4sTjdQajCLprIhQmT8FJJlrDLGChsFy1aFDPPP6tCvu3WrdtBCzuGqBcZC5PV33HHHSkKO8ogPxR1ToE8zOiaEnYZgxd2zP3khwvPCpBP3njjDVXQ04gXdjzzrPTcDwTD9x9I2PlpDETmwDxxBxJ2kVMIZFeYf49prrKtsNu6datbv369TTgYDXPmzLHWvDZt2gRb0g5zWdSpUydYE+nJjBkzbKLLWGbw4ME2iWes5wnmuKlbt26wljJU6vjAh/AKZzh8HEaPHm0faubYyYog2pi7MCmWLFlik35nBkyOv3bt2kyrNKvszTiYYHf+/Pk2aW/YkIfGjh2bbg2kzKV1yimnBGviYOC5M39ntHWu1DBlyhSbGqNx48bBlvSDqQaYOzMpYUdjGvOWZkSc0wveJzjnnHPsNytCXuAZJeWJgrDjGaVHeZQSWBIRWRntMchceDVr1oxqyomYFXZhQaZnMmpcnIQIkz59+phgwoVOZD4//PCDuRF16tQpx7gqZhQzZ850CxcuNHc3IdIKeejNN990/fr1C7aInMiwYcOsMs/cbiI6eJ8gu7spZjSUUdWrVzdrYVYjPYSdBk8RQgghhBBCiCyOhJ0QQgghhBBCZHEk7IQQQgghhBAiixNTwi5Xrly2CBE2ylexh55J+kC60idGiGhQPhJAPlBZHQ5Ky/RB6bo/MTV4CkPdMuJRdhq+V8QGdFBljr2cMAxvVoBi57fffrN3XZXHcGHoe5a8efMGW4Q4eMhDDOmt4eVzNn7Ea0YAFNHB+wSq44YLdQnqd1lxHuVsPyqmEEIIIYQQQmR3sv2omMxtxTDoQoQNc4qRv0RsgGV+z549ZhUQ4ULr5ffffx+sCZE2sC7s3LkzWBM5lZ9++skWET3Ub1XHDR++d+khkLIqMSXsmOh65MiRwZoQ4fH666/b/F4iNvj555/doEGD3O7du4MtIiy++uorN3z48GBNiLSxatUq98QTTwRrIqfy+eefu4kTJwZrIhpGjRpliwiXDz74wC1evDhYEzEl7Gi9p5+dEGFDP4G///47WBOZDR7gPBN5gocP+dz3ixEirZCPsP6KnA11MnlWhANpqTpu+JCmqt/9i0YtEEIIIYQQQogsjoSdEEIIIYQQQmRxJOyEEEIIIYQQIosjYSeEEEIIIYQQWZzcD8YT/M90mDm+SJEi7rjjjgu2CBEOTIJdtmxZV6hQoWCLyEx415nw9vjjj9fEtyFDXi9QoIArUaJEsEWIg4d39JhjjnEVKlQItoicCOVJsWLF3LHHHhtsEWmFtKRcLl68eLBFhAHpWrJkSSuvshrpMTCRJigXQgghhBBCiAwk209QLoQQQgghhBDi4IkpYTdnzhw3ZsyYYO3A7Nixw1122WVuzZo1wZZ/YcLC5557zibX7Nu3r03a+9JLL/1nXp69e/faJKxcKzkefvhhM/H6pW7dum7t2rXB3rTB5MwnnXSSW7hwYbAlZZi8fdq0afafe19//fUphjkakkurX375xXXr1i0hHcqUKeM+++yzYG/K8Ax4Fon56KOPbDLlf/75J9iSPDzPYcOGubFjx7qVK1cGW1PH22+/7ebNmxesicyGvDR06FD33XffBVtEWKxYscJ9/PHHwZoQaYPvzIsvvhisiZzKF1984aZOnRqsiWig7sIiwmX06NFu2bJlwZqIKWFHJW/btm3B2oHBixQzJpMTrlu3zs2fP99NnDjRrnHGGWe4c845x2ajRwTgI37uuefaxL0UVOPGjbMP15YtW9zs2bNNJP3www+2j4WKp+e+++5zu3btcp07d7aXctasWeYXS0ZCVHJvrsd5XOPbb79NCAv3RiDNnTvXTZgwwY7funWrCdiHHnrIlS9fPuGekecuX748uLtz27dvtzCedtpptu73rVq1ytKAOBAXrs/9EItTpkyx65E2iEJ/fdJm06ZNFn6us3v3bhNyiOovv/zS/fTTT27mzJlu9erV/zERcy/6qBEvrjVkyBCLB9fimgg34vn7779b+nFPrsn/Nm3auGrVqlmaEe5Jkya5nTt3uvr167sGDRrYNQin3/7jjz/as2OdaxJufrlPzZo17b6Rz+hAbNiwQSIihvB5RhNph8/3339vZYIQ0cC3gO+AyNlQN+KbLKKHeszB1HFF6qBOzXdP7COmBk9BnPAxqVWrVrAlZX7++Wer4J9++ulu8ODBVvhs3LjRBAsCCVHBbPRsL1WqlAmSfPnyua+//truhWigYziChGt88sknVvlHqLH/lFNOsU6ZwHU4rmrVqja4C1Y+RFTp0qWtEsX9sKgxEATiZeTIkdb5HKvEEUccYS0KgECj8+z48ePN4oWIQlwRbi/6OJdwMdgHYH1EAFauXNkqwsT5rLPOMuGE2OMeCEusXli/DjvsMLtfnjx5TLAhRLnHggULTCQimE4++WSzRDLIAr8INuJH+IkLS/Pmzd2RRx5pYQDuTRyrVKliHVW/+eYbt2TJEksnLGkI2EWLFlk4EJbcl+vwwhEOxOAbb7yRULj5baQ34pL4I6A5L3/+/GblO+qoo9yHH37oChYsaMKucOHCFq7169fbdVPbsZ8WR/KABgKIDRD/NGCQd3jWIjx8eeQbgoRIC+QhGglbt24dbBE5EepT1GWo+4jo8B5aNE6L8MAbC+MNg7FlNWjkDpts08cud+7crkmTJu6iiy4yEUZiIVJOOOEEc3k8+uij7TgEDeIA0YCQQGQhVBAO77zzjrvrrrvco48+amLqQBYeroUgxDKIGHnttddM7FAIcs+rrrrKhBFCCzH26aefui5durjatWvbudwbV8bevXub9e7NN980scq5WBwBMYXw8RkWyxOCrV69elY5RhAS31NPPdVdfvnlrly5cvYhbtWqlYmk6dOnuyuvvNJ16tTJCuhff/3VrhMJ4WvXrp1Zz7g/6cF1EMGJQZA1btzYKuNcl3vSotevXz93yy23uGeffdZEJtY34nrPPffYtT2EvUOHDu6aa64xgU14iAfp8MADD7h7773XDRgwwKw5COiOHTu6GjVqmLWQMJ144okmlCtWrGgCVQghhBBCCJHNBk9BUEX+JsWTTz5pImLEiBH7DQeOZQ6xhcUJcfbMM8/Y1AspwX0QNQipCy64wD3//PNmYfL7/C+iEYGFoLn66qtNUAJilDDQikPrKP3uOD8y/ISL4xCqCDjEJ/3S2rdvbxZJLH9YyDjGH8/CNVjYjljz/eUQVlwHQcV28MemBsKL9QvhRf9GxDPCEOFIHHCzRLQhvrj+nj17TJh6/L19eHxY6bPHc0GMYqGLbHnhmMQgBomLEEIIIYQQIr7OHPxmSxAEWJ1w+fMDjWDxWbp0qXvvvffM7RNRxD5c+84880zrT3fjjTcm9F87EAgxXCZxRUQUJmXlo78Yog9xh1UMiyHgBokovPvuu90NN9xgFqjE9zz00EPNXQ23NcKJeELY0dePX1whk/N/R/hcfPHFNhAK1jBcGOnnhgsnwjW5PmpY43BF3bx5s3v33XdNRCUGsYoljnhhxSPcDOiCZy8D0vj79uzZ09wsPfTbw7JJnOvUqWMC0IeTa/Xo0cPCl1Q6YHVFVJLGpDXnR8K1EY5CCCGEEELkNGJqHjs/8AkufqmBoCM6sBph0aLyD1TusQKxH3GHOyNWJb+OtQhLFsewnf2c6/dB3rx5/2Mp4jjOY+E/+zmP/9yf7Wzz9/b7uAeDmHAM/wmvvydE3hOhybkc58Hy9cILL7ibbrrJzo20VBF/7sd9ub9PBy9w2Mb1uSbXB38OC8cSNm/JA65F+LgXAhIXVwQy1+BYzuEY1rkW6/znHO7nwxd5X2+p69q1q4k3RhblOPZDZDjZTth8evHL/UgbrkPfOvpU9urVy7Z7yD+4gd566637WWPhqaeesr6biHeR+dDYMXDgQHfJJZeYb7wIDxqBaEzBci5EWqHREA8Ryk6Rc6HPP9/ntm3bBltEWuF9ArqwiPCgLkEf0KzYrzw95rHTBOVZBPqsIZBSO7BMGCDasIzRny8MEG4IVD4Q9ONLC2RX0gKrIn3vImFUUNxDEZjXXnut9bfEvdYLWiGEEEIIIWIBCTshUsALO+8Oy8A5DPTC3Hu4bdLqKIQQQgghRGaT7YUdIz5SCWcADSEOFtw2Gfkz8kXBpZPtjFxK376iRYsGe0RmgksvA/AwBYUsquFCH1emEfHTpQiRFshD9LOmX7bIudA9hu8oo1SL6OB9gqw4LH8sw+jwjMHAtF1ZjWwv7Jh7jSHwGWFRiIOFufPow8dInMBIm0wDQX5izsGmTZvaNBAi86HS2L9/f3s2qjCEC3NjMtIuAxcJkVbIQ0zBw1Q2IufCwHD0ZWdUbxEdvE/AVFAiPCijqlev7ho0aBBsyTpke2HHQB1MNUDlXIiDxbtiMtgMI4B27tzZ5gMsXry469Onjw3YImEXG0jYpR8SdiIMJOwESNiFh4Rd+iBhtz/ZeroDkfOoWbOm+/jjj92oUaNsbkFEnRBCCCGEENkdCTuRbWCkTUTdWWedlTCVhBBCCCGEEDkBCTuRbWAgDiY8F0IIIYQQIqchYSeEEEIIIYQQWZyYGjxl9+7dNil2yZIlgy1ChAOjrTIcbpEiRYItIjP566+/3NatW23glDx58gRbRRgwMM2PP/7oSpcuHWwR4uD56aefbDCzypUrB1tETmTHjh32W6xYMfsVaYf3CVTHDRfqEvny5XMFChQItmQdsv2omEIIIYQQQgiR3dGomEIIIYQQQggh/kNMCbvJkye7d999N1gTIjyee+45m8BcxAa4Cr7yyisJbj4iPObPn+8GDRoUrAmRNpYuXep69+4drImcyieffOI+/fTTYE1Ew9ChQ20R4TJ48GA3b968YE3ElLD77bff3K+//hqsCREe9Beh/6aIDfAA55n8888/wRYRFn/88YdN0i9ENPz555/u+++/D9ZEToU6WXq4i+VEfvnlF1tEuJCmqt/9i1wxhRBCCCGEECKLI2EnhBBCCCGEEFkcCTshhBBCCCGEyOJI2AmRCPoo3XLLLft1cl64cKF79tlnrR+o57vvvnNXXnmle/75592wYcOCrfv6JFx77bVu/fr1wZZ/mTBhgnvttddsHrfkeOedd9xLL71kx9BX6oknnnBr1qwJ9h4chKF8+fLu0EMPdfXr13fbt28P9qSePXv2uIcffjhN5wohhBBCiIwh94PxBP8zHSrU+fPnd8cff3ywRYhwQGyVKVPGHXvsscGW5MmdO7crUaKEGzFihGvcuLGt9+/f35UrV85GcWS0ODrrklcRah06dHBVqlRxhx9+uPvyyy/dhg0b3FdffeUaNGhgE5LOmDHDfpk8c/jw4XaNRo0a2TGzZ8+2AUSKFi0a3N3ZdsJ72mmnmbibM2eOO+mkk9zGjRvteO5N+LjOF1984datW+cKFSpkv9wHIVa4cGH3999/2+iI559/volUJgNnovYTTzzRrVy50s2cOdMmsy5evLhbu3atmzZtml2T9dWrV1tcuBbvI/fjfAY84Z6bN2+247gnopMwH3nkkTYJfK5cuYKYJA+DpzA4A2maN2/eYKsIA/IMaVq2bNlgixAHD/mIsu/kk08OtoicCPUyvieU/yI6aBimDlK6dOlgiwgDBvdh0veCBQsGW7IOKTXyp5WYEnZUbiXqRHpQsWLFVIk6DyJs4sSJrkKFCvZhGz16tIm8vXv32khxU6dONTHHL/vZtmvXLjdmzBgTOIgmxNu3335rVjdEE6IHCxqCBhE4duxY2zZq1Ch36qmnmlCEJUuWWEHlhd3cuXMtPK+//roJOAQn92YYaq61bds2E2wMSY2oZB/vEgILYTZkyBA3ffp0d95555nY5NiPPvrIHXXUUSbeDjnkEBsuOF++fDZkMKJgwIABFg/ig4Dj2qThW2+9ZXFdtWqVW7FihU0hgdgj7oi72rVru8MOO8zikRIcgyVRoi58+LhJ1IloOeaYYyTqhAk6ibpwQNBJ1IUPjfZZUdRBegg7uWIKkQR58uQxYTVp0iQTb5UqVTKhhuWqe/fuJogSv5CInxYtWriLLrrIGigQaojBt99+24QTlrbKlSvbPsTak08+6a6++mqzBnKPlEDYIRKxwD3++ON2beZ87NKli7vtttvcBx98YAKratWqrnr16tbSztK2bVsTgp07d3ZNmzZ1b7zxhlnrmNcPN9IXXnjB3Ezh3nvvdU2aNLGFsBKuO+64w6yFgEDFknfZZZe5jh07JlgbGzZsaPfBCoeVUAghhBBCZDwxJeyWL19ubmtChA3WMSxMBwPWJyxsTJzfpk0b6/uGgGIbIi8xtBghfhBFiCyOQ0whxBBI9HPzYA176qmn7Fisey1btgz2OFeqVCkTTIgkLHdcE+vb008/7e666y4Tj4gqRCPumbt377Z7YP2LBOG5ePFic69EpH744Ydu69atZpnr1auXXRdRhyWvW7duJlbp24f4u/XWW93LL7/sOnXqlNDXEKFIOHATxWqH1S01bpdJQbxwY8UVVIQLFlksxEJEw5YtW/brOyxyJnwjFi1aFKyJaOBbzyLCBY8k6ltiHzEl7DZt2nTQlW8hUgMuhvQLOxiwrCFe6F+A1Qp3FPqTMYgKwi3xpK3t2rUz4ffII4+YLz1WNlw5n3nmGXNdRMTh/oirZbNmzeyDeckll5hwwtrlwZUS10Ysaj169LD74w5JJQu3yrp169rCtW+66SazINJHLinYzn7ug7UPgRp5fSx3xIOC8Z577nFFihRxtWrVMjfUV155xSyVderUsWshCFu1auXuvvtuGzAGqx0upSlBf8TIAWc8uK8Sf0SiCBcGuSGPCRENlBEH8iQQ2R++IfSlFtFD/VZ13PChnoFHk9hHrvgK5b81ykwGqwqDP3Tt2jXYIkQ49OnTx8QQwuRg4PWItEpFvi5sT81+jz/On5PUPk9y53kSb/PXS3wdSMu1IPG6J3I7/xPvj6Rv374mdnHrRFB6sNSxDYug+m+ECy3CiOaePXsGW4Q4eMhDb775puvXr1+wReREaFCkHzaDhIno4H0CulCI8KCMogsKYwhkNRIbCMJAfeyESIHEooV1v/j1SJLaH7kOKe3zJLUvpW3+f1L4YyL3p7TNk3jdE7k9qf2RIPxwC6xWrZq74oor3Lhx49yPP/4Y7BVCCCGEEGEhi53IEfTu3dtGYUyqb5xIP3AdZQ48D66euHZeeuml1j+QlktZ7MJFFjsRBrLYCZDFLjxksUsfZLHbHwk7kSO48847bYRLhIXIOOjXyCiciaG/3jnnnGN99RhpVISHhJ0IAwk7ARJ24SFhlz5I2O1PTAm7WbNmWYdthk4XIkyYf42pAOrVqxdsERkBI2veeOON9p+BVmrWrGnWOiZNZw68s88+W2I7ZOhIziA/F1xwQbBFiIOHqU2YK/P2228PtoicCA2iuNwz4JeIDt4nOPfcc+1XhANTOjGYHOIuq5HthR2j5zHEOyMHChEm9OtCWGhC7IzFCztcYK+55hqb/qFkyZK2j1FCmfaBaRREeDDiKBPXqxwV0UAe4h1ldF+Rc/EVzyOOOMJ+RdrhfQKVzeFCujKC+YFG6Y5Fsr2wE0JkL5jKAeHWvn17K3iFEEIIIUQOEHZMpIzVrkyZMsEWIcIBtyImEC9atGiwRWQmWAMYPKV06dKyoobMnj17bDqJcuXKBVuEOHi+//576yObFd2bRHgw7gGumOoLHT3M1Qyq44bLhg0b3DHHHOMKFSoUbMk6pIewi6npDhYtWmT+3EKEDXOpLV68OFgTmQ0Tk3/88cdWeRThQv+68ePHB2tCpA0qS/RNFjkbxj6YPXt2sCaiYfLkybaIcJkwYYJbtWpVsCZiStj9888/1sdOiLAhX5G/ROzw119/JUx2LsKDfE7aChENvJtY1kXOhm+n6mXhoLRMH1S/2x9NUC6EEEIIIYQQWRwJOyGEEEIIIYTI4kjYCSGEEEIIIUQWJ6aEHcOh58mTJ1gTIjyYg0fD7ccOjLLGMznkELUthQ35XCONimg59NBDNd+WsLnBsuL8YLEI9VvVccOH753qd/8SU9MdMEz377//7o477rhgixDhwDDD+fPnz5LD4WZHGNxj27Ztrnjx4qo0hAyT8f/0008JE8ELkRZ+/vln9+2337qKFSsGW0ROZOfOndYQd+yxxwZbRFrhfQLVccOFugSNUEx5kNXQBOVCCCGEEEIIkcXJ9vPY0UKoea1EerB79273yy+/BGsis2Fo4u+++07D8qcDfCj27t0brAmRNn777Te3Y8eOYE3kVLwHgIieH374wRYRLuiG9BBIWZWYEnZMUD5x4sRgTYjwYIJy8ldYrF271nXu3Nm1a9fOPfzww2n68H3zzTfuww8/tApUauC4t99+261bty7Y4ty0adPcRx99FKztg7ANGjTIrV+/3o0cOdL98ccfth03kFdeecXcnROT1HUSk5pjUgsTlI8aNUoCJB1YvXq1GzduXLAmRNpggvI33ngjWBM5lZkzZ9ok5SJ6Jk2aZIsIl/Hjx2uC8ghiSthROVZFT6QH9BPAIhwGCKz333/fXXTRRfbLJL6IFD+hL8IJi1Tkup+MG5HFOhNqlihRwrVv3946/rLfHwf8ci7H+4k36YvGgAbz5s2zdeLTt29f66fm78Mv79Dy5cvdCSec4Nq2bWudirkOLYWLFy+2e/v7+etPnz7dCsbEYQaO57jNmze7NWvW2LZo4Zq7du1KuIcID0Qz1lAhooEWcPquiJyNrEzhwTgSLCJc+N7JI+tfNCSdEGkgX7587quvvnKfffaZ69Wrl7viiivc7Nmz3fXXX++uvPJK99xzz5mF8Oqrr7alT58+1vLZoUMHd8kll7innnrKrVy50n5pGb/11lvd5Zdfbr8IrNtuu83dcccddvzQoUNNCDGCZI0aNew6CC8sc3QWplP7fffdZxZEFtxOgfs/++yzZq1EhBImxCAVNix/1157rbvgggtMnH7xxRe2YJW7++67XZcuXcwSScWOsF911VWypgshhBBCxDASdkIcJFjYOnbs6E455RQTZz169DAr2rvvvuuWLl1qfRKGDBniVqxY4bZu3WqjE7Zp08asU1jTatWq5Zo1axZczbkZM2a4I4880r3zzjv2yzqjkCGu7rrrLrsGVjQoW7asiTxEGPc666yz3PHHH2+WOSxvuOFF9lMlLMOGDTOxhuhkigEsfy1btjSLIS2xnNekSRPXuHFjCzPCkVZFROvo0aPN+vfiiy+60047LbiqEEIIIYSINSTshDhIcFcsWLCgiaPevXubyPvyyy9NlD3//PNu7NixJvQuvfRSs3Ihprp27eqKFi3qPv30U+v71r179wT3FixoRx99tAkufnH1xOWShTlvIud6Y0jfRo0aueHDh5ulr3r16u7zzz93r776qnv66adNbEaCmOR6TPVA+HLnzm0ukLfccou5gWK1iwRBifVvzJgxJvCqVatm9ycOhE0IIYQQQsQmEnZCHCT0YXryySfNjRKXRlwnsWZhicOtkQFKbr/9djdhwgT3wgsvmEXtwgsvdMuWLTPLV82aNV3z5s0TJiqtXbu2+/rrr+08frlOSmD98376pUuXtrn5WOiUzSh29IfzFChQwJ155pluwIABbsSIEeaKiWAsU6aMiU8WxB+CkUFZuB4Durz11lsm8HA5xdWTQRTohyeEEEIIIWKTmJrHjoolA6iceuqpwRYhwgFRguth+fLlgy3/glXtpJNOOqgJnRmMhYFIEFFY4sizuDTOnz/f3C1ZZ1ATjkFsMZAJ9164cKFZzLC0FS5c2EaqxL0SKx595pgMmGN5FxCEiC76zJUrV24/y92SJUvMCse5CE3ui4soAg0xhhWQ+HIuwgwBx36sdlWqVDEXUlw8uR/bseThxlmnTh0Lhw9zpUqV7DiO5zpY7SpUqBCEIu3QR3DBggWWDoRXhAfPa/v27dZgIERaIQ9RfrVq1SrYInIiuOfjycE3UkQH7xMk9qwR0UFdolixYq5UqVLBlqxDekzToAnKRY4EwYTYYZASph3AnRERI4QQQgghRHqTHsJOrpgiR8GwuAwKctlll9nAI5qfRwghhBBCZAdiymKHOZW+Qy1atAi2CBEOjAyJi9rkyZNNzEXOl4jLIxY7XAyZ2Ntz+umnJ7ifMNIkc9XhbonrIiNIetdNRqck77KvSJEi1n8Ol0dg4kwsgkD/tci8TV82Rq0E3CPr1atn/3FHZgAW5mVhDjrC4d0fcdEk/IySidvlOeecYy6ZwHQLuM0ALpP06/MQvy1btth/XDS9exVunLii4rKJqyf9+xgwBQj31KlTbfAVXHEYbIU+e4BrZqQoZjoE7yqKJZQ0AY5nxE769eF+yXQKhAOLKYPHXHPNNdY/UIQHLrW49pI3hEgr9PelbOjWrVuwReRE/CjN9evXD7aItOKnDKKOIMJj3LhxNm5AVnQXzvYWO/r1bNy4MVgTIjwY4IT8xSTbCKeMIrXtJtnZI5pKQWIQpvTlQzSKcMEqTaVciGigMcv3CRI5FxpEfeOkiA7qt6rjhg/fO757Yh8xZbHDSkEBwtDwQoQJk2zXrVvXRqTE8vbee+/ZQCaIPG+xUx+7jANrXf/+/V2nTp3ccccdF2wVYcA0FeTtnj17BluEOHjIQ2+++abr169fsEXkRPB2wRujQ4cOwRaRVnifgDlqRXhQRjEQW4MGDYItWQf1sRMiShjBEteioUOHutdff90m5hZCCCGEECKrI2EnciRYiS655BI3ZcoUm7MtcioBIYQQQgghshqqzYocDx2Zw5ibTQghhBBCiMwipoQdI/kxabMQYcNk4X70SJH5MCE6E4oy6qcIF0ZLZTJ5IaKBkX0ZyVfkbAoWLJgwGrKIDuq3quOGD6OR58uXL1gTmqBcCCGEEEIIITIQDZ4ihBBCCCGEEOI/xJSwY6oD5rYSImyWLFnitm3bFqyJzIZ57JYvX54urVU5nV27dtkk5UJEw549e9zcuXODNZFT2bRpky0ietatW2eLCJc1a9bYd0/sI6aE3VdffeW++OKLYE2I8Bg5cqSJOxEb/Prrr+6TTz6xSZBFuNA4xryMQkQDEykPGjQoWBM5ldmzZ0vghwT1W9Vxw2fixIlqzIxArphCCCGEEEIIkcWRsBNCCCGEEEKILE6So2JOnjzZde7cOcP7JP3zzz82/HmhQoWCLfvDEOk5lb///jv4J9LCzz//bHkrT548wRaRmVDs/PLLLzakuiaHDxf6L/7xxx827YEQaeWvv/6yd/SYY44JtoicyG+//Wa/efPmtV+Rdnyf8iOOOMJ+RTjQtePQQw91hx9+eLAldmjRooV76aWXki1H02OcgSSFHX71PXv2dA8++GCwJf3hIzJ69GjrsM29kyInz82kjqHRMXbsWFe2bFlXpUqVYIvITCjMpk+f7urWrauKY8h8/fXXbuvWra5Ro0bBFiEOni1btriZM2e6iy++ONgiciILFy50uXLlcqeeemqwRaQV3ieoX7++/YpwoC5RokQJV758+WBLbLB48WL3ww8/uDfffDN2hB1WjtTy448/uldffdVdddVVbv78+e7MM888KOsILYPXX3+9VUjoCJkcWBHvuOMOV7lyZXf11Ve75557zm3YsMHdddddrk6dOsFR+6DT78CBA63yOGbMGFevXj07pkmTJsERzu735ZdfuvPOOy/ZVhSSiIFdyDhFixZNCMPOnTtt/8033+zOOecc+w88qI8//tg1aNDAlSpVKtiaehC3jz32mP3v3bt3shZMkXr69Olj+aBVq1bBFpGZUNj179/fderUyR133HHBVhEGVB6ojCXXQCZEaiAPUSHp169fsEXkRIYNG2ZeFR06dAi2iLTC+wRdunSxXxEOlFHVq1e3Oncs8frrr9tAZhkt7KLygcJEv3fvXhOAuP4sW7bMRNI777xzUKIwknLlygX/kgaTKyKyR48eJsrg2muvtZGGCAuWP8Ly+++/u1WrVpmQQ/ghvBCOtJRwDBVLwkilsl27duZmwDrXxu2RuPGfa+7YscMEIoIOkefDMHToUPfII4+44cOHu59++inheO7NPRGrXNNvI1z+GP77cLBwT67LKIHMoM+Lv379ejtORE/37t3dGWecEayJzIY8TsNMkSJFgi0iLGrUqOEuueSSYE2ItHHSSSdZw6LI2Zx11lnmTiaip3379raIcLnoootkUY4g94NJ+FtiPsR17UCFOpa1F154wY0bN86dfPLJJuqosLGOYOLDkNr+M/QL4Z5YzVq3bh1s/S9Ys8aPH29ijGvTH5C+JAi3p556yuXPn99arBnanuHUmTNk3rx5Js5wLdm+fbsJ0GeffdasaoULF3YfffSRWRcfeughU9dcj22DBw92ffv2NUU9Y8YME1kIQ4TYe++9Z+tcq2DBghZXLBBPP/20XQtBV6FCBbsO/rWIQuaCYf+QIUMsHoSFdVxQ8Q9GPJIGHEv6TZ061bVp08bSVEQHaaj+dbED7y7vWU7uN5te0M+AvotCRAN9ko8++uhgTeRUaPRW/7pwoFxW2Rw+pGks9q9bsGCBdY1o27Ztsu8QBp6wicpiV7p0abNMMd8NQobKGha3WrVqmfBCrKQWLFq4NibhGZos3Ov222+3c7CeRZo0ScTTTjvNhBGWmgsuuMAdf/zxJiARg1jvHn74YROCMGHCBBOmPAjmPEME4HpwzTXXuO+++87Vrl3b+hr4zMN++mzROu7jjtAjDn6Sdf9hxLKI9ZD0QID26tXL1hGcN9xwgwk/wo5QZjviDvEowgOLKIPziNhBAwKlD5SHyusiWshHekcFZYnKk3BQWqYPpOnBaIfsTpqFHRYwLGRY7Bo3bpyQqFjAaIU/GL9RRN29995rwiq1LYQ8yA8++MDcILGM4QqJuMKChsULAZcUiC0sbIitl19+2U2ZMsW2lyxZ0l1++eUm+l588UXrLMyxWBARcfRzw1XSxxPhiE8vljoGNsGKiNCjv50/hkk96W+IgCxQoMB+10TkYUX65ptvzHI4bdo017x5czdq1CiLF335RHjgMot4F7EBDRdYq7/99ttgiwiLWbNmqV+UiJpFixZZw6PI2VAfwfNIRM+AAQNsEeHC+B541Yl9pFnYIeBwmaRTIC5VCJ9mzZqZVQy3zEmTJqXKxIiF69ZbbzX3zY4dOx6wj50HEXf22WfbvXG5xCLHwC3Lly83oVipUiXzuT3xxBPNYlexYkXbhghkUAFcNdnGPTmOwVMQpAiAlStXmmgjLhzDoCuMpkiFCcFIJ0jOwZ0TEYjPNIPFYHLFxZJjOZ/74lKJYOXeZcqUsV+2NW3a1F166aUm/HDRvO++++y8+++/30RiephnhRBCCCGEENmT0EbFTAtcn358n376qfVlw5UR61fXrl2DI/4LfeZw80RMcW52nA8EcUjcGDyF/njFixcP9oi0olExYwssdhoVM33QqJgiDDQqpgCNihkeGhUzfdComPuTosUO61R6LYg4XDlxQyTS9D1LTedHLG64W+LemB1FHWD9xLRMhpCoE0IIIYQQQhyIFC123bp1C7aED1MBMFjIk08+mTDQCoOG0OcsJYudEGlBFrvYQha79EMWOxEGstgJkMUuPGSxSx9ksdufJC12DOqB0GLAD/qZpcfCoCO4X9K37WBGzxRCCCGEEEIIsT9JWuyY7JsJ/7766qsMbU1funSp9S9jlE0hwoS5Ak844QQb2EdkPrRSUc4wL2RyLVkibdA3lwGZGMxKiLRCHpo+fbqNFi1yLkzLxIjeTPkkooP3CRo2bGi/IhwY3Z7p1+iqFUtklsUupoSdEEIIIYQQQmRlYnLwFCGEEEIIIYQQsU9MCTtGu/SmaiHChCk1mONQxAa0UjF3JYOoiHBhPk1cU4SIhs2bN7v33nsvWBM5FebaXbBgQbAmooE5jVlEuOBlyFRoYh8xJez4kKxatSpYEyI8+DBt2bIlWBOZDdOdLF682P3666/BFhEW27dvVyOGiJrdu3erEiqszy6NRSJ6qN+qjhs+K1assO+e2IdcMYUQQgghhBAiiyNhJ4QQQgghhBBZHAk7IYQQQgghhMjiSNgJIYQQQgghRBYnpoTd4Ycf7vLmzRusCREeRx55pOUvERsw4S3P5JBD1LYUNocddpilrRDRcOihh7r8+fMHayKnkidPHltE9BxxxBG2iHAhTfnuiX3E1ATljJT3zz//SNyJ0GH0RSoqEnexAcXOb7/9ZhUGibtw+fPPP91ff/2lCoSICvIQ72i+fPmCLSIn8vvvv9uvxF308D6B6rjhQrrmzp075sSdJiiPRxY7kV7IYhdbYLFDeEjUhQ8fN4k6ES00hEnUCVnswoP6req44UOaymL3LzFVq/rxxx/dd999F6wJER47duxwP/30U7AmMpu///7b7dy506xLIlywTjMHmRDRQD7aunVrsCZyKt9//70tInr27NljiwgXvne//PJLsCZiStgxGeqIESOCNSHC49VXX3UzZswI1kRm8/PPP7sBAwZIgKQDTPz+/vvvB2uZw9KlS90LL7xgy7Zt26xiOHr06ARXpNTAeWPHjk1W/G/cuNF99tln5jKYXhDe8ePHJ1QaCAvrPm6kc1IVCuI7adKkdA1besNEyo899liwJnIq5HfcyUT0UL9VHTd8hg8f7hYtWhSsCflBCSGECA0qgS+99JI7+eSTXaVKldzDDz9s/bXpZ3AwraobNmxwgwYNSujjEwkWXxpqhg4d6rZs2RJsDZ9vvvnGvfHGGwnWfsJCRZdBRWrWrOnWrFmTZIWCBothw4ZZv3EhhBAio5CwE0IIEQpYuD7++GN39dVXu+bNm7tzzjnHPfDAA9a/FWtX9+7d3WmnneaWLVvmvv76a9eiRQtXokQJN3DgQHPFv/HGG12ZMmXcPffcYyKQwbSmT5/uWrVq5datWxfcZZ+b4A8//OAuvPBC995779lxCxYsMDFZv359E5Is9erVczVq1LB9u3btch07dnQnnHCCe+6559zkyZNtkDBco26++WYTbPfff787//zzXfny5U3QsUybNs28SbgH0PeMQcXKli3rChQoYPH69ttvXevWrV3JkiXdxRdfbHEBLNPXXXedK1WqlKtataqFo3PnzhaOChUquA8//NCse1dddZWlwyOPPOK2b9/urrzySru+TwchhBAiNUjYCSGECAXfv69gwYLBFueKFy/ujj32WBNWDz74oLvmmmtMdDFiGCLr+uuvd4MHD3YffPCBCcDly5e7pk2b2mhhuAMiqhB+CCEPfbG5ZqNGjdzevXvNavfWW2+ZeyS/bBs1apS777773MiRI81tE8F55plnmqsqohCLYGIQUT179jR3KfqXIRzPOOMM16BBg4SBfrDevfPOOyYON2/ebHFlcKYnnnjC3XnnnSbUiCvQof/WW291ffr0cdWqVbN7co9LL73ULJgzZ840t1Usm8QVQUlaIB579OjhVq9ebfuFEEKI1CBhJ4QQIhSOOuooE1wIJ8/EiRPNPROBV6xYMTuGoamx7mG9a9asmXv22Wfd0UcfbVYrRmLE2lekSJGEIaITu2Mi1hBtZ599tvWzQ/xwPSxjJ510kmvSpIlZywgL4vG8886z/m5Y1BCP3COpvnsIMdwsUxq9jjDdcsst7vnnnzfRh0WR+yMoEWaRw1ozQFD//v1d4cKF7d4eLwZJB8RwoUKFbL1Dhw52/1NOOcVEK0LxxBNPDM4SQgghUiamhB0fOVoqhQgbKmzkLxEbMN0Bz4RfES6ZOZ8Pw6JjFXvxxRet/xmCB2sbFqnEU1vgconwYWqGp556ysK8YsUKs+b16tXL3DURQ4g/+tL5gUiwmHEcgm7WrFnmirlkyRITT1OnTrVj7777brs+/d+wvnXp0sUE5bx589z69evN4ofgow8cx3B+UhBmXDAjhaUf0RVrHVY2BCv7EZW4ZmKx9G6bbEeoYW3Eiue3R4LY3bRpk1kqCScj+BI/4kPY2ZdeEJfEotlD3DXMvaBOpnpZOCgt0wfV7/Yn94P4xiQCtxXcYnAF4aOUUfDh5UMe6cYjRBjQIk6fFc3LFBtQacQiQ6VYH7pwwdKE5Ys8nxlUrlzZxBrfENwe77rrLnf88cfbPixRiHksaQhAxAwWL741uF/yDaDfGQOT0FeOdY5jhMzSpUvbOtZArlG3bl37mGPpQjDhNjl37lwTRt26dbP98+fPN4F4xx13uNNPP91cNhmtkr5/XB+3yLVr17o6depY2PjeYXXjl3xZpUoVOwaRRb86wM0TF8o5c+ZYHua+/CIQ6VuHtdCLPOLBPQkH1sWiRYvategLiIWSZ4XVD9H6ySefWJ/DTp06mXgdN26ca9y4sYU7sSgOC9IKUY31kmcSaaVE1PHcfLxFzoR3gfIkuQmWRerhnafBSXXccCFvoh34FsQS9KmmL3nbtm2T9QBJj5GTc8XFE/xP4IsvvrBO5bScqlAXQgghsh8M+tKwYUMTywhIBq/BDVYIIUR00I+cbgj0p06uYYS+5GETU8KOVkNaXuX+IcKGl4cW+MxyURP7Q7FDnyje9fSyRuRUKEexMtGXTIiUYAROhFzkQDLt27c3CyejePJuYiUVORc/ZYfKk+jxbs+q44YLdYlYdHOVsIuHeYnou8CHRYgwYdhy3J9olRaZDwNbfPTRRzZEPG5sIjxw//DzyAmRErh89uvXz/ocRkK/P6ZcwGWM/ooi50LFFIGPS7SIDkbmBQZzEuGB+37FihVtaptYQsIunrFjx9qEsF27dg22CBEODDdOnxvmwxKZD65fjBZIfyK5e4cLDWT0I6NiLkRK0JDKSJwMBOOhPxVijv51DFDDeypyLky0j7Ajn4jooIIPDJIkwoPGqerVq9u0NLGEhF08EnYivZCwiy0k7NIPBvZYuHChzccmREr4PnaMvMl7yOTpTLHAIATkISokVJpEzkXCLjwk7NIHCbv9UecWIYQQIofCaKD333+/zTfIINmxNrKcEEKI1CNhJ4QQQuRA6N/at29fd88999hcg5pXUgghsjYSdkIIIUQOhFGCmUtSI9MKIUT2IKZKcyaQZohlIcLmtNNOS5gkWWQ+DJ1dq1YtDaWeDtBXiv4GQkQDE5Yz2brI2TDaYIUKFYI1EQ3Ub1XHDZ9q1arZoE9iHzE1eApBYVHroQgb5kfEzUiuRrEDz0TvevioHBVhoHwkgDwA+nZGD9880DsVLrFav9PgKfH4AkSIsFHeik30XISIXfR+CvKA8oEQWYeYEnarV6928+bNC9aECA/m9VqzZk2wJjKb3377zTwDmCBZhAtD18+aNStYEyJtbNu2LWFCZZFzWbJkiVu2bFmwJqKB+q3quOEze/Zst3HjxmBNxJSw27BhgxUiQoQNFV3yl4gNfv/9dzd37lz3yy+/BFtEWFAhX7RoUbAmRNrYsWOHTYEgcjY0uLOI6Fm6dKktIlwWL15sc2CLfcjRVwghhBBCCCGyOBJ2QgghhBBCCJHFkbATQgghhBBCiCyOhJ0QQogM588//3SbN29269atc+vXr3fffffdf0bfY/2HH35wv/76a7AlPBi4h3uzcO+k4P70WaT/xpYtWyy8e/bsSRi23EOf0e+//z5Vowdy37179wZrQgghRHjElLArUKCAK1q0aLAmRHiULFky2XlERMaTO3dum1D0sMMOC7aIsMifP78rXrx4sBa7fP31165nz56uX79+7tVXX3UvvviiibhI/v77bzd06FA3ffr0YEs4MGjPU0895Z5++mn38ssvu1tvvdVt3bo12PsvDCBy4403uldeecXddNNN7qOPPnILFy50f/31V3DEPhCGDIpAeA/EO++8Y/GNdY466ihXrly5YE3kVAoXLuwKFSoUrIlooH6rOm74FCtWzL57Yh8xJexq1qzpWrRoEawJER4XX3yx5S8RGxx55JHu/PPPdwULFgy2iLA48cQT3dlnnx2sxTaVKlVy9957r7v77rtN7DMNBuLp1FNPtYXRzjxM43DBBRfY9ieffNKG4n/88cdtnWtg1Zs2bZpr3Lixu+666+xaM2bMcE2aNLHvSuSQ7Tt37nRfffWVe+ihh9wzzzzj7rvvPps0+Pnnn7f7rFy50iaXffDBB20obYQl18qXL59Z7X7++We7B/finghShCrWvIsuuihhO9fiGoThnHPOcTNnzrTJaj/88EOzAMYyJ5xwguvWrVuwJnIqZ5xxhqtfv36wJqKhefPmtohwadWqlTvppJOCNRFTwi5v3rxW4RMibGjNyZMnT7AmMhsq0VSSqcyLcDn88MPN2pIVQPzUqVPHNW3a1JUuXdqEfpkyZdxnn33mrrjiCvv15MqVy6x6CCOmc8CFcvv27W7y5Mnm1smQ7G+99ZaJsxo1arj333/fjR492j322GPu+uuvdyNGjEhw6cQS1bp1a9egQQMTL3/88YflSVwuEYT/+9//TKxde+21rmXLlq5Pnz7uyiuvdI0aNTIrHtc++uij7X4TJkww10rO7d27t4nP+++/37322mtu165dtn3YsGFWoUP80aBx4YUXWnxjGazp8nIQRxxxhC0ieqjfqo4bPnzv+O6JfcSUsOMjrbnGRHqwYsUKy18iNqAivmrVKqtEi3DBLZA+a1kBhBIT9n755ZdmCeM9RbD179/fTZ06NThqH7t373YDBgww10w//6F358WNn7xEHze2de/e3Vpxca/EAjh//nxXtmxZE4cejsEyd+mll5oQw5qWWhBr1atXdxUqVHCPPPKINUrinkk/uylTpthyyimnWN87xBFhJFxZCeKi+RAFluWk3JTFwUP9VnXc8OF7x/dB7COmhB2Tkyf+mAsRBrTcR7piicwFiwjWGCqPIlz4yGHFykrQNw0RhDD7/PPPXdu2bV2VKlWCvfugIeDYY481a1dSDQJY5BFuNOAgAN9++20TfJ06dTLxhlXND25CWdCjRw9zqcQiV6tWLXfooYfagmhcs2aN+/HHH+3YpECkcQ0scPTB41jOpS8Sgg/RSIU4K/chxY2U/oAiZ0PDCw0jInpw6Q67v7Bw1pBGg6DYR0wJO1o8ackXImyoNCYe8EBkHlSwfUVehAv5nLRNDCM50qoZK2UsrjNYzOi/07BhQxNtVatWddWqVbP+awzaALjZsLAdF0jERt26dc09DCGFCyW/uHHefvvtNsgJ/e9wsbzkkkvsF5dK3D29G9TJJ59sffPq1avnKleubNfCNZN+GldffbX1p8PCh1hkIBrOI3yEmXt17tzZ0pF+c7hzso8O/A8//LAbP368ic/27dvbdgZLwOUY100W4oF4xUIZyyC2aYARORvyuepl4YDLN4sIF9JU9bt/yRVfsfpPzeqLL76wDuB0Lj/uuOOCrenP2LFjzcWla9euwRYhwoE+MlQGcc8SmQ/9l3C3w5qSkWVMTgCXQkZuZMRJDyICC+mnn37qXnrpJY12KA4IeYj+jIxaKnIu9A+l8aRDhw7BFpFWeJ+gS5cu9ivCgTIKTwka2WIJBuCiEY/nnlx/5fRoPIspi50QQojwYLCQvn37mjWKIf2prMtKKoQQQmRPJOyEECKbgUX03Xffdaeffrq74YYbrD8YIg9Rx6iOeEaw+EFIAFcWv50lsh8b//12+rBFumZxL7+PgVv85N2J78VxkfjtLPR18xAOPyn4t99+u184OM7vY8qCyHnjuLe/XuIJxyPDEdmvk/OJD9u5buRE6Pz39+KYSFefyDgnHpSJKQ/8vsgO/dzLj5LJwkTlHlxniavfF5m+PCO/nSVSmNO3z28njn4fzyAyPQiv38e1fZxZIluMCYffTlgj7yWEECL2yf0gk+wkYuPGje6DDz6wzuUZOenf2rVr7WNHR3YhwoRBeUqVKmWj2InMhwokHfIZOVATi4YLbpeIupEjR1oftkjoq0Z/MqYGwNWewUW8KyyDizDoCNtZmHbAzzPIQBrvvfeebWdwFuY4Y7oKBMSsWbPMjZ59iKby5cvboCHso08c+9kHnOdh0m9/L/qelSxZ0rYTjsGDB9scdoSTgUp8OBilkYGQ2IfoYh48P40JbqZ0I+B6iCv60XkIO/PRsQ+B5csBvjfDhw93c+fOtRE5uQ995YABVEaNGmVWTjrm0/+O0S+BPng+zgygctppp9l2YDuD17APYYeLECAUCTsjgDJQGP32/JQHjDrIdAy8E5xHX0PfH5BwMbIn21noF+inCSFOxJvtPHfuxT7eL6ZhYFAB9iHQ6DOISx3py/edOLOP9C1SpIhdD3E5ZMgQ275gwQIT1eedd57tEzmT5cuX26BE5EkRHZQloDl1w4UBfii3jz/++GBLbEAZyveBwcD8tyMx6dE3MKb62NH6SGui7zQvRFjQQk2lViIiNqByjUWBinRWHjkwFsHCg7ChLKXvwaBBgxIsWFTiGdyDSj4ginz6I8QiLVYIQC8geF7eskMlj32IBEBEeAsTx/MB89MKcD1vweM+kXNJRlrpkgsH1+F6Phzch/sB9ycc/l6Ej3ACx7PPk1w42MZ5fAa5DoOj+HDwweVefl9ycWYfZYsHMeQ/1pHh4Drs82HkXn7uJbaxz3+OEXX+XpFxBgS1J3Iwhsj04Dqc48ORXJyB9GVET4h8zpzPfxrERM7FW7hpBBLR4cth1XHDhQY0yr7IcjgWyKw+djEl7IQQQoQL0wQ88cQTNngKlXisOJGWMyGEEEKEiwZPiYcWy8g+H0KEBdZg8peIDbAa4AbnrRciPLDgRFrDGM4fqx2umQzTH2nJEiI5sBRqnklBxTM9Kp85Eeq3quOGD2nqPRdEjAk7+gt88sknwZoQ4TFw4EA3Z86cYE1kNhTE9ANLPMiFiB4GSkHEJYb54u666y6bV02IA0Efw+eeey5YEzkV+oti5RfRQ39YFhEufO/otyz2EVPCjn4QkSOFCREWtDyr1TF2wGLHM5HFLnywTCcegdIT2V9NiJSgj13kqJ4iZ4L1X1amcKB+qzpu+Mgja39iStgJIYQQQgghhDh4JOyEEEIIIYQQIosjYSeEEEIIIYQQWRwJOyGEEEIIIYTI4sSUsGPS3KpVqwZrQoRH3bp1XZkyZYI1kdkwMXPt2rVjbkLR7ACTkNeoUSNYEyJtMHpq06ZNgzWRU6lUqZKrWLFisCaigfqt6rjhU716dfvuiX1ognIhhBBCCCGECAlNUC6EEEIIIYQQIk3ElLDDQoi1UIiwGTVqlCawjCGYs5KJWpnLToTLunXr3MSJE4M1IdLGxo0b3eDBg4M1kVOZM2eOmzt3brAmomHq1Km2iHCZNGmSW7t2bbAmYkrYffPNN3o4Il2g0WDbtm3Bmshs/vzzT7ds2TJNGp8O7Ny5061atSpYOzB//fWXiUEaPli2bNliE8inBII8taL822+/NSEfCdffvHlzuk3Wy8T3xIO4ebjX8uXLLX2igXjv2rXL/tOTgXIlmgmcSQuuwSS76QnxPpiGlD179lilXuRsEPibNm0K1kQ0UL9VHTd8Vq9e7Xbs2BGsCbliCiFEDmb37t3urrvucu+9954bMWKEe/LJJ928efOCvf8FIYK1ddy4ccGW5EHAP/zwwybiI+EjfMcdd1j/gwOJyLRAI+Htt99ucQMf5r59+5qITSv+OgMGDLB14vfUU0+5xYsX23paQGyR5qR9eoHQffHFF93YsWODLUIIIbIjEnZCCJHDKVmypLv55pvdAw884M4//3z3ySefuN9//90999xz7uSTT3Y33XSTWd1ee+01V6tWLffxxx+byOEXd72ff/7Z3XfffWaF45gTTzzR9erVy3300Udu+PDh5hrK9TyzZs2y6yDwsFRhSbv//vtd/fr13WWXXeaeffZZG9mTcHBf7s8698ItjPUffvjBPfroo+7LL790L7/8srv66qvtmtyTzurTpk2z+xBOrA6IujVr1rj58+fbsf3793cbNmxwrVu3dk2aNLGW9KFDh5oAIs6PPPKIu/baa12DBg0O6MYdmVZXXHGFCcqvv/7artuoUSO3dOlSiwv3JY0jwVrHiL2LFi0ykYdYJF5ci2tybdKSNB02bJjFZ/To0RZX7kWakx4LFy60cCI0Sc8bb7zR1alTx46hi8MHH3xgz8KLXSGEENkPCTshhBBGrly53PHHH29ue4gi3CixTjE9BYIHC9v48eNdtWrVzM0RUbZ3714TG4g0LHOIuOnTp5swYaj0Nm3auObNm7s8efLYPXC/xVW0U6dO7rDDDjNhg3jDkkZf2MKFC9s0GL1797b7IbbKly9vfVM4D9FCuLBC4RKJG+T69ettJOc33njDBE7btm1dvXr13Omnn+4OOeQQixMCByshLpk1a9Z0Xbp0MeF02223uWeeecbdfffddh1EIH02uFePHj3cBRdcYIKJOCYHIvO7776z+zdu3NgsnghVxHK3bt3cK6+8YmEtVaqUxSuSlStXumbNmrkKFSqY6yPCEzdShGmBAgVMzPE8SFcEIseTFp999pnFc8iQISbuSNfffvvN7kN6IhAnTJjgihcvbsL7nHPOsTQqUqRIcGchhBDZDQk7IYQQCSAQ8ubNa6INgYGQO/bYY03YMFcQwuCEE04wsZcYLE7MR8ocaAi3ypUrB3v+BcE0c+ZME4qIkxkzZth2xNeRRx7pypUrZxYsRBD3RLhhrSJMhQoV2s/y52GfF4T58uULtibNoYceaoKJ67BwX+6J8EQQIfoQnMzdVaxYsf2m/EH4EsbcuXMHW/bB9ZgrExGMuEVMIiARafRPwrpGfzzCH3kuIgzhOmjQIDt2zJgxtg1BzLFY+Agv6Vi6dGmzIrLOMyAcCF4ELktiGF6beGjKIiGEyDnElLDjg5f4gylEGFDBobIlYgeeCRVlES6UoaRtWkDo4DKItQ1Rg6C74YYbXMGCBe2aCD2sR1jXOJbtCC+2Y+1C4OCCiPUOKxVWp0gQIFjUOnTo4K666irrB4dlEItXUvDOItawUiE4sYoRLqxRWPoOZpCYxBxxxBEmCBFehBlrF2IpJcivCCVcOgkPlkOEHNsRwggvRC8unn4S/nPPPTfZfn2kDyLu+uuvd/fee689O/oHEi/iiiWR665YscKsctddd52lv7dU4j5KHBDcW7duNWsj4QoD0t5bWUXORfWy8KBRhkWEC2mqPPovMVXTPeuss6yFUoiwwf2pZcuWwZrIbLAm4AKHm5gIFyxH3bt3D9YODB9F3Clx1cN1EavV5Zdf7k455RSzlFEuIyAQeIgUXBMRF1jlcMmkbxgChPuyjovj2WefbeKE62ENo1+ct5Ahguh7hkUM4XPSSSfZCIyIE8QE1z366KNN0GGlQgQi4ghf9erV7T1GXPFOI6I4lnMRZYgchB99BhGdiEisftwTKxfHsh9rGNvIg/S1w22Svmlcz1vVuAdpw3XY5iFOuHmeccYZrn379ia2GjZsaGFv166duUsS5qefftr6G+L+eeWVV1peJ27cFxCnCMpLLrnE0oKlVatWZq0kLVu0aGEWUM7lfly7atWqdl9cWy+88EJzz7zmmmvceeedZ26luJCSZqRFZHoSd9JuypQpJhg9XJ/nxPNPDM//+eefD9ZEToV8Rr9bET00ZrGIcMHdnXJZ7CNXHP4hiaCjNb74DBEvNw4hhBAi+4HFEcGMoL344otNuGPJFEIIER2vv/669RNnMC8as5MiLA+LSGLKYkerLR8aIcIGd6ukWqVF5sDAG7jv/fHHH8EWERa47mHhEiI10Bdw5MiRZmnFEsh0DsCAK9FMDSGyB7j9aiTVcNi+fbstIlzQDXz3xD5iymLHHDv0L+jatWuwRYhw6NOnj7k34eokMh/6VOECxwAb8goIFwYjoZ8cLlRCpARumQg6+ud56EuJGygut4zSiTupyLkwKisuvbgXi+jAcgO8cyI8+vXrZ67mTE0TS2SWxU7CTuQIJOxiCwm79IN53Ri4hL5YQqQE1jr60WGV8SDsmP+O/IPwe+utt4I9IiciYRceEnbpg4Td/kjYiRyBhF1sIWGXfjCVAIOG9OzZM9giRNLgwsTAL4xoCozQyXx+9LVjZE+mb6DSJHIuEnbhIWGXPkjY7Y/GfxdCCCFyKIwkymibjOK5YMECG7WPOQGpzAshhMhaqOQWQgghciCMgPnggw+60aNH25yCB5rcXQghRGwjYSeEEELkQHAPYpAdpjsQQgiR9YkpYXfqqae6M888M1gTIjzoH8CEuyI2YAJlJlxm8mcRLkwqrr6kIjX4ydKTArGnvkCifv36mvw5JJo1a2aLCJezzjrLVa5cOVgTMSXsGERBLYciPahSpYorXrx4sCYyG0beoyCmf48IF/pHVahQIVgTIm0UKFDA1axZM1gTOZXSpUu7UqVKBWsiGqjfqo4bPuXLl3dFihQJ1oRcMYUQQgghhBAiixNTwm7q1Kk2tK4QYdO3b183bdq0YE1kNsyfxVDAkfNniXBYtGiRe/fdd4M1IdLG8uXLbZoYkbNhGqpx48YFayIaPvjgA1tEuLz33ns2oq/YR0wJu19++cX9+OOPwZoQ4cFEu7/++muwJjKbf/75x+3Zs8f99ddfwRYRFsyLs3fv3mBNiLTx+++/ux07dgRrIqdCIxyLiB7mb2UR4fL999+ny3xwWRW5YgohhBBCCCFEFkfCTgghhBBCCCGyOBJ2QgghhBBCCJHFkbATQgghhBBCiCxOTAm7okWLuuOPPz5YEyI8mLT52GOPDdZEZnPooYe6ihUrah67dKBQoUKuXLlywZoQaeOYY45x1atXD9YODAMirV+/3v3888+2/ttvv7lt27a5v//+29aTIrljuNa3335rA6olB+ds3rx5v/t9/fXXdm5aYdChjRs3phjmaPnzzz8tnSIHjlq3bp2bPXu2LYxqS1wSw/Fbt2618zOSEiVK2CKih/qt6rjhw/eO+VvFPmJK2NWuXdtmkBcibC655BJXq1atYE1kNkcddZS74IILXMGCBYMtIiyY+L1169bBmhBpg0l/r7322mDtwCBGHn74YbdixQpb37Rpkxs8eHCKo9UldwzXYjqUlStXBlv+C+f069cv4RhEzxNPPJGkKEotI0aMcM8//3y6jlyIYL3rrrv2u8fTTz/tBgwY4GbOnOneeustN2PGDBcXFxfs3QcjhrOPEZ4zkoYNG7ozzjgjWBPR0LJlS1tEuJx99tnupJNOCtaEXDGFEEIIkS7MmzfPXXfdda5Vq1auY8eOJsimTJniqlWr5u6//373xx9/2Db2lS5d2n6XLFlic1MhZHbu3Onatm1r+0aNGhVcNXkij3/llVdsG7+sX3nllSasevbs6a644go3ceJE2w+EYdWqVdb6v2zZMtuG9a5evXoWVsKMZa1u3bquWbNmZh3EonjTTTcl3Gvx4sXulltuMSvikCFDbG5exCdxwkPhxRdfdJ999pmbNGnSfnNN4rnQvn17d+utt7oGDRpYGJmeJzJNIsXvjTfeaNsRCQja5557zo6hcjty5EgLF+snn3yyxZGpK5588kl3wgknmFjX1D9CZF9iSthRaC5cuDBYEyI8mJyc/CViAyoatEp7NyoRHlT0qEwLEQ2IC0RItCDccDHs37+/iabXXnvNrouw6dq1a8I8aY899pgbPny4Wdxw1UboXH311XZ8kyZNzII3cOBAs/KlBOLs1FNPdR9++KHNlfnJJ5+4uXPnmlAsXry4CR1cLjt16uSaN28enOXM0ogwatq0qb0/lFGIpF69erkxY8aY+yQWwd69e1tYuebkyZNdqVKlbDJ3li+++MKujTso4oq4MMdW/fr13aeffuqmT5/uqlatauIN4eXBGnfbbbeZZQwByfGUjZFp4uONpQ9h9/HHH5vHA/fdsmWLiVbSlImasf6R1tyTddKf58l2ROT48eP/YxFMDq7vrbAiOnCzZRHhMn/+fHsHxD5iStitWbNGs8eLdMG3torYgIoKlRxNfBs+9DuaM2dOsCZE2kAIIIpSy+GHH+7y5csXrO1Po0aNXMmSJV2VKlXchg0bTDTRpx6rE31jEEFYs7BwJXaDJBxU2hBsuBjnyZPHth9yyCHm0s1vJFjXuO4LL7xg61yP+1H5O+6446y/2GGHHeaOPvpo2w+IT4QgggcLG8KTBhL6tSGQ6BeFOz+Cjf7aWPFYJ9xck3hXqFAhSRfO3LlzW39F+r4eeeSRwdb9ISzPPvusNXZdeOGFZplEECaVJpSdw4YNc+PGjXPbt2+3baQJ1yc9WNhOWpctW9bdeeedFk5cOKlfEU62p1bYYb1E3InoIf1Vxw0fGlkO1OCTk5ArphBCCCGiAisb4s0PYEIFFqsTwgaLz65du8xagTDCasSgKRyL6yT/ER+4UCYeuAThVKlSJXf55ZdbHzSEDSAk8+fP79auXWv3w9uHMHDNYsWKuaeeesr25cqVy9wYOZ/jvRiK5JtvvrHwPfroo+YeirjCWocApMEZax394Ajb0qVLraGQ47geohOLG3HE1RFBhhDj3mkZ6AQBhlglnEmlCRbB1atXWxi9yE0MVkTSmjBcddVVli6IRyygXBtxLYTInkjYCSGEECJqunXrZu6JWOgYiIS+dUcccYTbvXu369GjhwkUxAVulvfee6/7/PPPrR9YjRo1TLAhnhisA7CU4TbJNRApnIP7ItYmQKzgfoiVi/uNHj3aBiXhWli5Lr30UteiRQs7BxHE+Vj92EZ/t0jr4o4dO8wtE2sW4pTBGBBlHTp0sOsTBtwksaDh3vjSSy/Z9elrh1WvTZs2rnHjxnYfLIZdunSx8DESMyIL6yQikfsiOsuUKePGjh0b3N2Z1RJRiYsmlkPue8opp+yXJljYsBwicosUKeIeeughuyfWSNKE+JDW3A8xh+js3LmzO//8882VlRFOSQMsoMQv0tJJ30DcXLFSRjOqqBAi88kVX1j8xx6Pn/hFF13kvvrqK2styygo6Gg5w+9eiDDp06ePdXqnA7/IfGjRps8N/VwysozJCWDVwHrBABFCpBXy0JtvvmmuidGAMEIQ0b8rOVdNkbkg7Pg+MjI54pQRi/2w/Lh9IgIRmyI6eJ8A4S/CgzKKhgsaRmIJ+gXTeMVzxx07KSIHRQoLWeyEEEIIkS7UqVPHBkCh75eIXehnSKMQVk8soC+//LJGzxQiCxJTFjvcJ3CJ4N5ChEnfvn3NRce7+YjMhUFThg4daq5Bmjg+XHBbo79P5Kh7QhwsDJhx++23u/POOy/YIrIruGDiCpoYRPm5555rljzcN0V0fPDBB/Yr62e4MOItfXdjba7izLLYxZSwo6Mwfu0FChQItggRDvTxoP+BWo1jA/pxMMgAHfrpiyLCgw8FfXM0+buIBvIQ/eWSG8lRZB8YZIX+kR5cLxlVkz6M9M+jX19yFVORevzopkrLcKEuwUBC1PFiCQk7IYQQQgiRodDHjrn/gAooA9swAAtTKEQOsiKESD3qYxcPqpshh4UIGwblSWqOIZE5MDoeo7OlZThwkTIMMY9LuxDRgAfNxo0bgzWR3alcubLNecd8r7jgMvImoo5J3llE9FC/VR03fJgyRXPi/ktMCTsmGRwzZkywJkR4DBkyxM2bNy9YE5kNlUb62DFnkwgX+td9/PHHwZoQaYMKPsP6i+wPUzwwzcLjjz9ugi4SPLimTZsWrIloYOT3yGkuRDgw1Ykm0f+XmBJ2zAejFnyRHjDXD/lLxAZ4gDMKWxKe4CJKyOekrRDRgFXdTwYusjcMYFW1alWbzD0x1MlULwsHpWX6wPdO9bt/kfO0EEIIIYQQQmRxJOyEEEIIIYQQIosjYSeEEEIIIYQQWZyYEna5c+fWnFYiXTjssMMsf4nYgL4cPJOk+nSI6CCfk7ZCRAMjIjI3lMjZUCdTvSwcKJdVNoeP6nf7E1PCrnr16q5Ro0bBmhDh0bZtW3fyyScHayKzYSLRc845RxO1pgPly5d3zZo1C9aESBtlypRxl19+ebAmcip16tRxtWvXDtZENDRs2NAWES5NmzZ1FStWDNZETAk7JkOnUiJE2CDqNNl+7EAL20knnWQCT4QLw5XrIyeipWDBgq5WrVrBmsipHH/88a506dLBmoiGE044wRYRLhUqVPjPNB05mZgSdgyt/OuvvwZrQoQHk1cy5YGIDf755x+bSJsh1UW4MPQz8wQKEQ0My/7DDz8EayKn8r///c8WET3Ub1XHDR++d5ri519iStgtXrzYTZo0KVgTIjw++ugjy18iNqCiwCTa33//fbBFhMXatWvdhAkTgjUh0saGDRvcgAEDgjWRU5k1a5abM2dOsCaiYcqUKbaIcPn888/d6tWrgzURU8Juz549bvv27cGaEOGxadMmt3fv3mBNZDZMJrplyxa1sqUDWFm++eabYE2ItIFFnUYCkbPZtWuXLSJ6vv32W1tEuGzbtk3eBRHElLATQgghhIhk3bp11k+6cePGNlDClVdemaRL23vvvecef/zxYC0cuM9VV13l5s6da+tYBrgHwjc5kjsGTwW2L1iwINjyX2j0evXVV9348eODLUIIkXok7IQQQggR0zDoxIgRI9wnn3xiw+9v3rzZLV++3N1+++3uxhtvdJMnT7a+u4CF6Z577nE9evRwAwcONG+gV155xT366KOud+/e5hnkz+U4jqefziOPPOJuu+02t2TJErtOSqxfv969+eabds2XXnrJvA/8NYcNG2YCjW3sIxz84t6K2xhdTn788Uf35JNP2r558+bZ8cOHD7f7L1u2LLiLEEIcHBJ2QgghhIhpEE2M9soojQy/j9BjdF2E1BVXXGEWNT/IB25Z1113ne3buHGjub8hCOvXr+8OP/xw9/rrr7v333/fplxh5E/6YD/44IPutNNOcx07dnSvvfbaAQcMQRw+8cQTrmXLluayOnTo0IRrVqlSxX333Xdu586dth8xuXDhQhOPp5xyijv99NPd22+/7SpVqmRCDgsdgu+zzz5zPXv2tOszeI0QQhwsEnZCCCGEiGmqVq1qAor+NLgyTp061SZRZ4CXm266yQRcXFycHZsvXz43bdo0c6H0bo8IOobtR0wxSjJWPwTY+eefb/P1bd261cTdnXfeaf2xd+/ebeelNOF/mzZtXI0aNUyoIdywwnHNatWquWLFilk4GLQLgclvrly5LBx58+Z1ixYtMrdMLHacN3v2bFe5cmVXrlw5czvVRNZCiLQQU8KOCVEpvIUIG1piaekVsQGVG1rKjzrqqGCLCAvma6xevXqwJkTaOPbYY12TJk2CtdgBcZQnTx7r+4bLI/NhYjkrUKCA7ccdc+LEiSb0Bg8enOTcuIg6LGIIONweGUU2f/785tJJP70zzjjD5vED7lWqVCm3Y8cOE45ff/21Tc2EqEQMIspwsSxRooSVa1yTY7EaYmXEinfffffZNSIpWbKku+WWW8xaSN/BE0880SyLWPX4xTUzFsBKyjxhInoQ/SwiXGhI4f0T+4gpYUeGr1evXrAmRHicddZZVgEQsQETk5955pnu6KOPDraIsChbtqxr0KBBsCZE2kCIXHDBBcFa5oNIQmAUL17cxNTZZ59tjXU33HCDe+ONN0xo0aeNX46j/9vVV19tYgwLXSSUO5zftm1b165dO7Ou3X///e7ZZ591derUsfXIRicsf88884wrXLiwibGLL77YyjDC1LBhQzdjxgzXvXt316hRI7suxyIIEUWM/nvttdfa8YTbWxmvueYa179/f4sDlj3CQlippH711VcmPmMBXEexSorooX6rOm740BCDpVvsI1d8QbLPdyGCL774wl100UVWuND6K4QQQoicDaM8rlmzxr377rvmfnjhhRcGe3IeiLkXX3zRRBrCTAghIqEvL31naWQ65phjgq37kx6T/8eUxW7FihU2GaYQYTNu3Di3cuXKYE1kNhRmuEvRgi3CBbew6dOnB2tCpA3cDD/44INgzdlIjrgqYll66623gq05F6yCWOmwzGVn6AtI/0ARPfSjZBHh8uWXX5qLtNhHTAk7fOI1zK9ID+bMmWOTlIvYAJep+fPnW38SES70z0nNcO1CpAQjOuK9g7sh7ooMFDJo0CBNfh+Auybu5Nl9kBMGrNFE9eHAu8QiwoXvHYMqiX3ElCvm2LFj7aPRtWvXYIsQ4dCnTx9Xt25d16pVq2CLyEwYWID+JZ06dZK7d8jMnDnTRujzw6YLkRbIQ1joGAwEb4fIqgKDhDRv3twsd/R5wwL/3HPP2XxwQDnry1oGOWG4fw/TCdCPDbAK0h8NcGfs3LlzwmAneFmwAP1n6C/HACfw/PPPJzTU1axZ0yYs9zBQie9TRxgRpEDYXnjhBWtMwsp2ySWXuFNPPdX28c4wRx4DltCP7vrrr3eFChWyfbidMs8cMOBJr1697D+8/PLLNp8dMGARYYTvv//epjBgSgRG1cTKyQApQOM11yTNSEdGzCxatKjtw4vh008/tf/0sfNpA8xxRziBNL/rrrvsP/FhkBhcZIE4t27d2gaZYa4/3MC8ZwTxot8fLF26dD/LK30MfZypA44aNcr+k84dOnRwl112ma2LtMOzgC5dutivCId+/frZ+xdrfcszyxVTwk7kCCTsYgsJu/RDwk6EAXmISb2ZCoCRHREWCBZAYDHQCEIMAcJIlEwP4EdyZL8XYexD4HgYbZKBRICRKb0YZFARhAViBxBnXqCxjX0cA9wLqz9wLT+CJXAvP1E5YtEP0ETYOI99XIeKlg8H4pMyieoQ8UHcIciAOLMfsM4xWqgnMhxMYeCF0d9//22TohM/BBZh8IOxMKIm1yQc7ON6fqAU+jB6Eca+yLKR8HkPh8hwcB3E9++//27rkXHm/oSD8ADx8q6jhIN9HiyQPs7ch/sB8/+RvtQJRXRI2KUPEnb7E1OumEIIIYSIDRABTZs2dX379rWGXkbJRFQgjKjse0HCOlYnhhxn8aIO2Oe3s3gxBVzLb8cK5UUdcA2/r0iRIgmiDlj3+yJFHXAdvy9y1F3C6vfxGxmOI4880kQU+4iHFzjANAr+epGiDiLD4UUdcD7Hsp3rRo6wiQD04WCfT0NAlPnrJW7womLo90WGg3RBsPl9kXEmfRFsfl9kf0DC4bezRMaZ8PrtxB+RKYTIGkjYCSGEECJZEAgMy//hhx+ae2T79u1NGAghhIgtYkrY0UoU2dokRFjQmkqrrIgNfIt/ZCuxCAcsEX6yZiHSCtYd3/crkmbNmln/MVzbRfYHKyKLiB7qt6rjhk+kW7WIsT52+IF7H3chwoS+BogJCYnYgPecPi+863LzCRf63LCoHBXRQB7iHY10jxQ5D98/T9/O6PF9UFU2hwvpSv0u0l07FlAfu3goOJThRXqAK5E+TLEDYo5nIlEXPnzcVI6KaCEfSdQJvpv6doYD5bLK5vAhTWNN1GUmMZUSjI61ZcuWYE2I8GAeHj/6msh8aGFjmHA/kpsID0bI05yNIloYnVFzbgnmxWQR0UP9VnXc8OF7x3dP7COmhN2CBQvchAkTgjUhwmPYsGE2fLeIDRhOm3mjIofbFuGwevVqmzpGiGig4eW1114L1kRO5csvv0yYP09EB255LCJcPvvsM5trU+wjpoSd7xsiRNj4/psidvB9N0S4UIYqbUW0+H6wImejell4KC3TB6Xr/sgpVQghhBBCCCGyOBJ2QgghhBBCCJHFianpDugX8s0337iuXbsGW4QIhz59+ti8S61atQq2iMzkhx9+cP3793edOnXK0DImJ0B/GPqT9uzZM9gisjIMDLB06VL366+/Blsyhg0bNrjJkye7a665JtgiciKzZs2y0Yvr1asXbBFphfcJmAtShAdjc5QpU8adeOKJwZaMg2dZpEiRYG1/Mmu6Awk7kSOQsIstJOzSDwm77MXo0aNdjx493GmnnRZsyRgQdps3b3Z16tQJtvwL0yDkhPeWcur7778P1nIm27dvN2FXrFixYItIK9RvoWTJkvYrwoGRRvPnz+8KFCgQbMkYGG39o48+cqeeemqwZX8k7OL57rvv3G+//aZML0KHSsrRRx/tChcuHGwRmQmDMvCRK168uMuTJ0+wVYQBldGffvrJlSpVKtgisjIIuy5durj333/fNWrUKNia/nBPrITvvvtusGV/csK8UVSPkqgi5Sj8NEHHHnus/Yq0g0gGvnsiPJiO48gjj0xWPKUHPMsLLrjARg6ONWEXUyUzlW6JOpEelCtXTqIuhmBCUVwnJOrChw+IRF32w088n5qFOegeffRRt2bNGvfkk09ag2lSx6W0YKU56qij3GGHHZbkwqTVWLPOOOMMd99997krr7zSWrD9hNYszC31zDPP2HyVkdtTszCy62233eZmz55t6wy737p1a1e1alV39tlnu5EjR/7nnAMtP//8s+vYsaO76667LI0S72eKB1yrBg0aZOukQ1Jxz0lLiRIlbElqn5aDW0qXLm1LUvu0pH05/vjjzR0yqX3ptVA2xCoaPEUIIYTI4ixatMhcNu+55x4TMFiaBg8ebMvUqVPTbTjwokWLuosvvtgaaWjFfu6556w7xYsvvug++eQTE0lDhgxxr7zyiom/VatWWV+jhx56yFq733jjDXfHHXe4W265xfoS8tu9e3dzKY60ljVu3Ni999577tJLL3Vvv/22eRP17t3bBN6rr75q1/7www/dxo0bTdTSN/Cdd94xt2TS5YYbbnAffPCBW7ZsmYV58eLFdh+OQQA/9dRTbujQoa5hw4bmaiqEEFmRmBJ248aNcwMGDAjWhAgPPvSa/D52wF2QlnzvmiLCY86cOVbRFTmLGjVqmDjBDXfJkiVmcatVq5arVq2aa9CgQZpcJ9etWxf8Sx3cGxfrm266yU2aNMkEUu3atd1JJ53kfvnlF+v3SRjJo7Syt2vXzibUR5R59+wnnnjCde7c2QbtwNKXHF9//bV5YWC9Q8RhhaOMp18g1ji2IeRGjBhh/RMpbxBtZcuWdW3atHHTp083YUiXE9ylli9f7q6//np5diQCsUwaiugZOHCgLSJccHmkvBD7iClhR4uiJtYV6QGVBk1gGVvwTHJ6/5X0gDJUE0vnPBBSWKDGjBmT8F7lzZvXLGm4FaYWysm5c+eaWyX9Vg4WXKKwiPn+s7gs0ZDDIANY6diHyMTihksTgx5wDu7yuEJivcPqiEhMCc5lQI8//vjDrITXXXed27lzp8WV6+HqjVtyy5YtzWLJwFkM0IbgJX3mz5/vunXrZv1zOIdwMfgC+8W/UJ6oXhYOSsv0ge+d0vVf5IophBBCZHGw0tGXrlKlSm737t22jT7rDErGgGipbdjiOvSZY+hwxFE0ILC4P26PWO0YwIrRiZMaSACxhRslljisapCaMDP4AP3w6LsECD0P1yQtsBzmy5fP+gwC4cB6h3WuSpUqrnz58rZdCCGyOpruQOQINN1BbKHpDtIPTXeQvfCjYg4fPtw1adIk2PpfEEG0XGNx8m6X/LKN39RY7bCY4R7JACIXXnih9Tnr169fsPe/INpwm8RihhjjPlQp+KUFnXtGtqQTRrZ5q5g/jl8v4vyvv1bk8eCP91UX/nvrv497ZBjY5n+5lg8Dv/5a/hyWvn37muC74oor7Po5nWHDhln6dOjQIdgi0gqjIwLvswgPyqjq1auby3lGgaX/vPPO06iYQgghhAgfKt9YpnBRRLh4QeTXUwKRg/slI0bSL+/ee+9NsG6lBPfDhZJBUiIFJPf1I2vy6xeOZ78XU+CP55eF8Pow+2tE4o+PvAbHcQ6/icPAf58u7PPX9Nsjz8FiyAAumrNNCJFVkbATQgghYhxGk2QQi/RYGBmyV69ermbNmjbISGrnLKN/HKNfMpIl/fmyOhUqVHBvvfWW9csTQoisSEy5YtKZGX94ucuJsGGS3cqVK1trtMh8GCEP1+szzzzTFSpUKNgqwmDlypXmUsfIfyLrgysmLj/eOpUeYMHC9RK3Iu8yRB4aP368DUoici6MHkr+yEg3t+yKH5lbDQfhwoBReA7QXzajiGVXzJgSdkIIIYT4F77HiK4XXnjBnXLKKcHW8GFUSBYhhBApI2EnhBBCiINmw4YN7vTTT7fpAs4444xgqxBCiMxCg6ekkjVr1rh58+YFa0KEx+TJky1/idiAYdmZW+pAc1WJg2fLli02/LsQ0bBt2zZzAxU5GwaTWbZsWbAmooHuRiwiXObMmeM2bdoUrImYEnbr1q2z+W6ECBv6CTA/kogNfv/9dzdr1iz3888/B1tEWCDsVHkQ0bJ9+3Y3bty4YE3kVFasWGH9dkX0UL9VHTd8FixYYN89sQ+NiimEEEIIIYQQWRwJOyGEEEIIIYTI4kjYCSGEEEIIIUQWR8JOCCGEEEIIIbI4EnZCCCGEEEIIkcWJqXnsGAL9r7/+cvny5Qu2CBEOP/zwg8uTJ4/LmzdvsEVkJv/884+NiHnUUUe53LlzB1tFGPzxxx+2qBzNHmTWPHbkoV9++cUVLFgw2CJyIr/++qv9HnnkkfYr0o4fBVplc7iQrocddpjV8TIKzWOXSqh0K8OL9ICXSqIudjjkkEPc0UcfLVGXDhx++OEqR0XUkI8k6gSCTqIuHCiXVTaHD2makaIu1okpYffnn39aK6EQYcO8aViDRWyAowDPBMudCBfyOWkrRDT8/fff6dKaLLIW1MtYRPR4bwoRLqSp6nf/ElPCDpPl4MGDgzUhwuOJJ55wEydODNZEZvPjjz+6559/3u3YsSPYIsJi7ty57o033gjWhEgbdMW47bbbgjWRU8HNDZdcET1vv/22LSJccHWcPXt2sCY0eIoQQgghcjQ//fSTu/322218Ab+8/PLL1vc/rWA5f+SRR9zjjz+e0L/qQCxYsMANHDgwqvumBIKdRnQssh7C+eGHH1rj58cffxxs3QfuuAUKFHAjR450X375ZbA1bWBVGTRokIWBa6U2TYQQqUfCTgghhBA5mvz587tnnnnGPfbYYyZkECA33HCD9d3xY8zx65ek1iFynYFvvv76a7sO/YAi90X+j2TKlClu8eLF5tXg8cdGLp7E6x6/ze/360uWLHHLly/f7xwG5ilWrJjbvn27W7VqlW2LPA9XNwbV27x58377PJHr/n9S67jeEzcEHddcuHChHSOECA8JOyGEEEKIRKxbt861b9/e3X///W7s2LHu3nvvdR06dHBXXXWVW79+vbvssstcly5dXP369d27777rhg4d6i688EJb6FbC+pw5c9z48ePdgw8+6C6++GLXrVs3E1ece/PNN5uFzrN7924bwblu3bpuxowZZuF65ZVX3B133GHX5Ny7777bNW3a1I0ZM8a99dZb7pxzznFXXnmluaINGTLEvfDCCyYKu3fvbvcl/Nynbdu2Zqn75JNP3MyZM81C6e+5du1aV7t2bVsHwtSxY0d3xRVXuPPPP9+NGzfOro9Fb9KkSe766693l156qXv66afdhAkTXMuWLU0U9+vXz11wwQWuU6dOFr+dO3eam9zll1/uWrdubed6wVe9enUTseoPLES4SNgJIYQQQiQBLpE9evRwTZo0MRHHCMsIFoQRQ6x37tzZPfTQQ27WrFnu+++/N0sUIoYpKnDnRKRxHIIKoYZo+uyzz2wbIrFWrVrBnfb1j+X4evXqmWUL0cPAJSVKlLBh1RlJGHGHkMOdESsaYo4wfPrpp8FV9ofw9+rVywQeIu7cc881IYqFErZu3WrTzkSOKohljamuEGqEDzFGfBo2bGjxXLlypU2DMHr0aLdlyxYbNbNr165m6Tz22GNN8B166KFu165d7uyzz3bly5e3gXiwCHphhwWTvnvbtm2zdSFEOEjYCSFENiNXrlzBPyHSjvLRvmkfED1Tp05111xzjVnvGjVqZPuYtoX9CBuEzNVXX20unPTNe/jhhxNGFUXsYcEaMWKECbuePXsmnOvBPZFz27Vr5ypVqmQWP9w4oUiRIglTxPjpB+gjR7j4j0hCBEY+Ly+gfPj5Tep5ErakpgJCeHJPru/hmhyLdQ5RR5qceOKJdn3iD0cccYSdy4Kw89ZCBGkkXJtzcpLFjvTXO5U+KF3/JaaEXdWqVa0lSYiwodXwpJNOCtZEZsPHv0WLFlZREeFywgknJFQ8hUgrpUuXNouT2AcWLgQX7oO4YSYeXh3L2gcffGCDkGDZYzJ5L3YqVqxoFjisbrhSYmlLDG6fxx9/vFmxuHb//v3dO++8s98gJ5EUKlTIFS5c2I7DLbNOnTp2Pv3nCIfvD5cYBB6WMy+oSpYsaVa3lAQW840i6DgO6yEClAX3Uq6VHMS/XLlyFneskcTLC07cRbkn988pYPVkEeGCJZnvnthHrviXbN9bFgGFDgU6pn7M8UIIIYTIeBiAg8ogA1wgFkT6grBas2aN9QHDjZH+cLgjItymT5+e4KaIiNq4caNVKNn2zTffmEihTx3rCC2sXVyrRo0aJgYRXcWLF3ennnqqW7FihZ3rJ4Fn6hfEDiIQcPVcvXq1CUoawjiPayCUcKmk6sb2adOmmcjDfRPhRF84rGXcmzBi9atZs6a5j2LVQKSRp9iGWOOcV1991SrHXAcrI+6UuEhijeNYGuBwM+UapAtpsmfPHmuMx/2ScJFG3377rdu7d6+rXLmyW7p0qcWPfYhMtmHZwzJZqlQp69eHUMQdNTtBvEiD0047LdgisiPk9fPOO88aa3ifk+L111+3fq30M8WFOynSY67QmBJ2PigyqYqwUd6KPXgmeh7ho7yevchMYad3NGfw3Xffmevoo48+av3t0hvEHfO5MTALgjU7gWUSd1qEMn0vsfL6d0hlc/qQGekay8Iuplwx582bZ52KhQgbXFrIXyI2oFV82LBhVqEQ4cLABvR/ESIasDzQV0xkf3DpZDTNjBB1QJ/A6667LtuJukiGDx9uLvH0p2SEUyywjC7KIsKFgYmwhot9xJTFjuGEcWdgdCUhwqRPnz422lirVq2CLSIzYUhv+oYwLLbcvcOFocyZH4oKhcj6ZJbFjjzUu3dvfY+FOAhoEHnqqafMHdOD6ylTVCCgcV+lD6YID0ZvxUW4QYMGwZb0R66YqUTCTqQXEnaxhYRd+iFhl73ITGFHHsJdTuRcqAfi4kbFWRwY+g0OHDjQLHQeRgDFJZN+kLzDEnbhImG3PxJ2IkcgYRdbSNilHxJ22YvMFHZUSKg0iZwLLvMIk+w2yEl64fvYUfFn4BsEB1NdMMG8d5GXsAsXCbv90Tx2QgghhBBChETjxo2t8RJhTH/CokWLBnuESF8k7IQQQgghhIgS3Fax0OD51rFjxxw1T5+IDWJK2DFCUtmyZYM1IcKDOXSKFSsWrInMhnmW6HPAPEoiXOigX758+WBNiLTB/GSnnHJKsCZyKgz8IXGSepi/8JxzzgnW9of6req44cN8iXz3xD5iStjxEWnWrFmwJkR4XHDBBer8HUMwsW7btm2t8ijChQmOW7RoEawJkTaogHbu3DlYEzkVBvygf7qIHkbGZBHh0rx5c5tMX+wjpoQdHXRz584drAkRHoceeqjyVgyBuwrPRBO1hg/lKGkrRDQoHwngu6lvZzgoLdMHyinKK7GPmEoJRv9aunRpsCZEeMyePdtt3LgxWBOZze+//24TxjNRuQgXRutiRGMhomHnzp1uypQpwZrIqaxevdqtWbMmWBPRsGzZMltEuPC927ZtW7AmYkrYrVy50irgQoTN+PHj3apVq4I1kdn89ttvbtKkSe7HH38MtoiwoIFs+vTpwZoQaWPr1q3uww8/DNZETmXx4sVqKAoJ6req44bPjBkz3Ndffx2sCdkuhRBCCCGEECKLI2EnhBBCCCGEEFkcCTshhBBCCCGEyOJI2AkhhBBCiP+QJ08eW4QQWYOYEnb58uXTvFYiXShSpIg76qijgjWR2TA0MROKajj18GGOwEKFCgVrQqSNvHnzuuLFiwdrIqfSrl07m3NURA/1W9Vxw6dgwYLuyCOPDNZETAm7mjVr2kSDQoTNRRdd5E499dRgTWQ2FMLt27e3AlmECxO1tmrVKlgTIm2ccMIJrmvXrsFa1obpVe69917XunXrhOWBBx5wP/30U3DEweOveTDXGTduXML9V6xYEWxNmb/++su99tprrkOHDu6FF15we/fuDfYcHExZ8NZbb9lop8OHD7eRiQ8Gzhs1apRNgZHUaKlcj/BxXDT466xdu9Z98cUXUT2jWOPMM8+0RYTLWWed5SpXrhysiZiz2KmiJ9KDY4891vKXiA2YpBUrqix24YNolsVORAsWu+OOOy5Yy9rgSvjII4+YsMFT4O233zZBdvjhh5uQ+Pvvv90ff/xh82r+73//c//8848JN/6zjf1s+/XXX21BbDG/25YtW9ytt95qacVxXCsuLs79+eef9p9fzzvvvOOGDBlioorf+++/361fv96u7e8beS7b+L99+3Y3depU99JLL7nrrrvO5c+f3/YTPvb7cPJLHAgfYeW6/Oc6hBdht2DBArPC0qhGmvg488u9+eXanMf5Hq5NmjVo0MB98803Fm6u6Y/lvO+++85NnjzZff/99wn39tdh8WH2iw8X+HD4ay1ZsiTh/vPnz7ff7AD1W9Vxw4fvnSx2/5L7wXiC/wkwkfMHH3zgevToYYVIRrFnzx4rFDLyniJnQJ7mY4ebmsh8+KDTssvzQOSJ8GBuwN27d7ujjz462CKyMnwTESQXX3yxO/7444Ot6c/PP//sNm3aZEIou0CcPv/8c7NoM5E/FknmfaRSiDUNy9iwYcNcyZIl3T333GMWIwTVYYcdZoKmT58+buzYsTYZ8qJFi8x6xTOhvvTee++5iRMnmsV8wIABJt4o21jH6sS1b7jhBle2bFkr91q0aGEu6UOHDnVPP/20zetJYxf351yuOWvWLBNcbEOEEnbyw2233eZ++OEHE0DPPPOMzeM1ePBgK1OfeOIJE+Q8uxdffNG9+eabFlfm+SKO5cuXdyNHjrQ4Ep/333/fffnll65cuXLu8ccftziT3xBWVatWtTByH8RjvXr13NKlSy0+mzdvtnt/9tlnliakIWGmEZW04t6jR482QYeVkfokdTzShnsQLr7LeNIQvzfeeMPifcwxx5hoPuOMMyxM7Ktfv362aATkOZAHVccNF95H6nc0sGQUPEfenXPPPTfZBjAaUnjvcGVOLmy+cSNMYspiR0FJi48QYfPRRx9pktUYgpZZPvppdSsSyUPL/IQJE4I1IdIGgodKeHYG6xDijm4guOsjdhAlWMkQc1dccYW5W2I1oiKHVYpjcf268MILXa1atUy84aK4Y8cOE0iffPKJXRvrFi6X4C2AkV4jWG4QPYg3RM2VV15pIgk499lnn3U7d+40YVi7dm2rQCKygP7inTt3NhFEAw5hxALXsGFDawDYtWuXq1Gjhp1HQw8VX/7T1QVhB4hBwjNo0CD7nTlzpsuVK5e7+uqr3R133GHpgEUQYYlITNzfkjidcsop7vnnnzcRWKxYMXfSSSe5OnXqmHDEqsd5WCgRo4SZOBJmznvqqadM2EHLli3N6kK4SUeuDZxDGhGW7AANASwiXGjwoDFA7COmhB0FHxU+IcKGjzL5S8QGVBZ4Jv4DLsLDuzUJEQ1U6rEKZWcQb1jCECAIHyx5iDmsQ4go9mNdQ/C0adPGffzxx+YWefvttyekDS3uHTt2NKvVwoUL3Y033mjHcy6/wDWwZGGxoexjwTUTKx/CEFHGMaS5P5dtyVmpCLP3dEDYYQ3gfESTvy8WR8oBrHJJ4YUm1+KXde7Hwr29iCSsCLfEYeEenOuP91CmV6xY0eKGiEHYYYmMDDNhJZzcAzF3yy23mLDG1TQS9nMO6ZId8O6pIly8O7HYR0wJOyGEEELENr6yn13AjRBr17Jly8yzA7fDSIgrbpa4U2JdatasmQkVqFSpkg2EgushljMsYYnhWCxp7777rnv11Vdd37593cqVK21AlBIlSthgIVj66tatG5wRPaVKlTKLH0IUYYSQwgqLkAKELOuEm1+sj0mBuCKMWOBSwgs1+h0iNl9++WWL1yuvvJKimEEY4s6KxRDXtUjXNMQzghNLqhAidcRUHztGQcJ3O7kCRoi0wseND12FChWCLSIz4WONexMuOepvEC5UrLAMnHbaacEWkZXJrD525CEsUN6d0INIQKDwrS5TpkywNWuA+MC1kW8Bbn4nn3yypSllEKOAIvCaNGliLoX0/cJtEWsT65RVWKlwoWzatKmJDbZXqVIlYR/vHK6IpUuXNqsV12U7cE+ORxTTb9G7fnIftuE62bhxYwsP5+KaiGiknxn3oG8e/9nHOZxbtGhRiwN9fDiW54EI49jq1aubJQ/BSp2Ke3M+30BGEOR4+tBhEcPNk/2kAeEkjhxLOAk/lkD6AOKGyn05n3BwDY7hmizVqlWz/biSYgXEPRO3Va5JePjlHtwLCybPgjBzDuIX0cy1CS9xQPwSFtImO8D7BKSjCI958+ZZXsvI8jGW+9jlii9Q4oL/CdCxlUKHlquMHBULVwZ8qbPLEMsidsAdhdZQDQMfG9AS279/f9epU6cMLWNyArR8U4Ho2bNnsEVkZbCmnH766dZPmAElMgryEANc9OvXz9axYtEH/uabbzarD/voZyZyBrNnz7ayhVFAMwLc62hAOO+886zSnh3gnYEuXbrYrwgHyigaDmhQyCho+CJvYsVPbiqt119/3fr/8dxpHEmKxN4BYSBXTCGEEEIkCRUYRm6kEnP++ee7devWBXtEToIRMTNK1AEW1W7dumUbUSdERhFTFjtGQ2IEpKzm3iFiH0ZMwqUD1xWR+eDOhcs3LksZOURxToAhxbGI4kolsj6ZZbEjD913331muWPE6sh+Ugx+gYsdIyXiNuctEHzDGW6f7zjHMAoibopAvYI44HrEeQwyQpkMtGjjtgS46vXq1cv+A9djcBPA1ZHRIIF8Tv8w+pHRT4v+ao0aNbJ9hJeh82kNx73yzjvvTCj7P/30UzdmzBj7j3hgyH4PI0TOmTPH/uPWdffdd9t/3E4ZuZLuIoB7KoOpAH3PaLXnGGBESf/u4SIWObIoI0F613OmHmAwFsAtkTD6USAZWMWnB66UxA03Uiyl9Fsj7oDHA4ILcMF+7LHH7D8gwnCXhMWLF1sYgTTHmo/LJn0HeSZ+pEasHlyTNMNdnukPeKbA827Xrp39p/zm+XkYPMZbS2gIeOihh+w/7pjXXHNNwuTRxJnRkKl24mp57bXXJlgyGF2TEX2BPNO9e3f7D/RdZERSYIJvbykmPXh+jPzJAC6XXXZZggs6o43iKsegGri1kh5+6g4aKqZNm2b/EY6RPZLoG+gnj8dV1Xs+4BKNZYh0pi8hcwEyyigsX77cDRw40KyM5EUGrvGjiGLlpmsTMB0F/StVxw0XykjyUUbO3xrLFruYEnZCCCGE+JfMEnZAPxIqzlRoERN+wBQGx2DuNSr7iBH6oQEVfqYKYGREKr9UpBEJgPBhehOqHIgUKtR+lETmXfQjuVJBjxxan+shMiDyXghERB339H3fvGhChCIEfDiox/hRHamg+xEt2UfjkodziDNEhoN4IyJ8OKikFShQwP6zjX0+bTjHjxJJnIibh3txTyAMhAUIG2FkH2EmHF5IEyfiRhyJM0LL98shLUgTQMBQ2fSQvr7RjGsRRiDN2ccz4FkQBoQRIMa5JuFgH9cjfSEyzuxjHjsPFWqf9hzP9ArAdRCtPhyRcSaN2OfzgG/YB/IM+zx00fFxJu/5BgG2kT9Ie+5FOHx68BzJs4SV9CXOPg+w3Qtx0gGR6yFP+co26eEbBLgH+0hnngVpQViA43nOPDv28Sy5LnAfL8RBoi57IGGXSigQeDF8oShEWPDyUKj7wlZkLhQ7fMR5131FR4QDlR0WWUKzB5kl7MhDiBYqyqtWrTLrB/O1YZ1gG5UV9bHL/vhh5P0ooCLt+IYB1XHDhboE9Tsv3DOCWBZ2MVWjwm0BU70QYcOcOt61RWQ+tGTjnhLZkinCgZHkcDcTIhpwMfQDp+BKhzsc7+yTTz6Z4OInsj+4LDLxuoie8ePH2yLCBddqGpzEPmJK2GGix9QtRNjg2+5dQETmg1sL7jrezUeEB64/uCcJEQ00vmAt9NAajqCjrxJ9srLLEPQiZXAL9f3bRHRQv1UdN3xw4/WutUKjYgohhBDiIGBQDFnthBAi9pCwE0IIIYQQQogsjoSdEEIIIYQQQmRxJOyEEEIIIYQQIosTU8KuZMmSrkKFCsGaEOFRrVo1zckYQzDtBJO/Mk+QCBfmfzrxxBODNSHSBnOC+cmeRc6FedeYrF1ED/Vb1XHDp1KlSgnzDYoYE3aMstW0adNgTYjwOP/88zWKWwzBBLTnnntuwoS3IjwY1KJFixbBmhBpo2zZsu6qq64K1kROpV69eq5u3brBmoiGJk2a2CLCpXnz5ibuxD7kiimEEEIIIYQQWZzcD8YT/E9g48aNNhFpjx49XP78+YOt6c+qVavc119/bS6ZQoTJxIkT3V9//eUKFy4cbBGZyW+//WaT3vI88uTJE2wVYbB582a3YsUKV7p06WCLyMow/+brr7/uGjZs6IoVK2bW7p9//tnm5vzxxx/d0UcfbccxoTjrRx11lMuVK5fNZcj8Trg9844xf9a3337r/vnnH3OB5h3ctGmT+/XXX+0av//+e8J8n+zn3I8++sjqANwzd+7cNp8Z808yDyX34X5btmyxc1mnjGV99+7drmDBgnYv1vfs2WPhOPzww92uXbssHIcccojLmzev++GHH9w333xj8+Ydc8wx7o8//rD581jnmnFxcXY84SdcXIcwED7iyTbmsOI+nMtUDMTJpw/r3Itr7t27NyF9fDj8NQgj4SAOxJc5NqkLcQ08C1jnHlyDcBMOziccxIvFX4P0IN0IB2n8v//9z+5LehAu7k2aEy7eV9KL9OW6XJ9rcCzhIG6s88s1SY/knrUPh3/WHJvUs2Y98lkzRyHhIFxcM/JZL1261O7NcT6NCVfks8ZtlzyR+Fn7cPi4peZZc0/O4x6Ei+MJV+JnzfNI7llTjyQdWec8rkca+Tzn45b4WXNtnjXhSvysfZ7jXYp81j7PEQfSkLTlmomfNeH47LPP3MqVK61bCNfx1yDeiZ815/hnzTrpA4Qh8lnzn7j5a0TmOf+siQtpn9yz5hnynHye41jCHvmsOYfwpvZZk7eIi89zvBOkcVLPmvXIZ+2fky9f/LPmXI6JfNakz9SpU+148lRyz5owE5fUPGvuwXX8euJnTfm7Zs0a9/HHH7t27dol281nwYIFlhfbtm1r10oK0jZ04hP3P0yZMiXu2GOPjYtPjGBLxjBmzJi4+A9YsCZEeDz44INx8YVqsCYym/hCP+7xxx/P8DImJzBjxoy4l19+OVgTWZ34ikFcfKUwLr5SFterVy/bNnz48LjixYvH1ahRIy6+QhIXX4mLi68cxVWsWDEuvqJs2y666CLb9u6779o5119/va3ffffdcfGVm7hZs2bZerxgtP3z58+PK1++fFyFChXi4iskthQuXNiOmTNnTlx8pSbuzjvvtPUbb7zRznnnnXfi4itTcR07drR3mnufeOKJto3j4ytVcTVr1owrVapU3IgRI+yc22+/3fb37dvX1vnmFy1aNK5+/fq2Hl9hsv2sx1em4uIrWHGtWrWybV9++aUd0759+7h44Rj37LPP2jrpwf4rr7zS1j///PO4cuXKxVWrVi0uvhJn21gvUaKEXT++ghh37bXX2jnPPfec7ac8Yr1nz55x8ZXRuNWrV1u4KleubPvXrVsXd/LJJ8edcMIJVkeCiy++2M6Jr+DZ+pNPPhkXX1m07TBp0iTb36ZNm7j4CmtcfGU57rTTTrNt8ZXvuPhKXVzdunXj4gV73MCBA+0c4sT+e+65x9aJW8mSJeNq1aoVF1/hjouvkNr+qlWrWtx41h06dLDnMmzYMDune/futn7vvffaPaZPn27rTZs2tf08T+JBflm8eLFtI1wcs3DhQnt25DXWmzVrZmEYMGCArfOsCUd8hdrSlG3xgsCeE+kdX8mNGzlypF2TfML+/v3723q/fv3suZ1xxhm2vmLFCtt/+umn27OOFyl2P7aRP+Hss8+OixcGCc+J/Mz+q666ytb5rpO/SI948WHbCAPvB886vhIed80119g5L7zwgu3v06ePrfOseXfixZalqX/WPHvycZkyZeK++OIL20ae4xzqqfDII4/Y+qWXXmrrhIP11q1bx8ULJQvLKaecYtuIG2lavXp1yx/+WZPn2H/ffffZ+nvvvWd5jvMIN8+W/VWqVLFnHS8w4s4//3zb9tFHH9k5Pm73339/XLx4iZs8ebKtt2zZ0vaTjjwnnnW8SLdtvJMcs2TJkrh4wRV322232fodd9xh+3knWb/iiivi4kWU5X3SgjSCeOFkz5r3yef96667zs7xdXjeb+LauHFjW//qq69sf4MGDey7zzXYx7Z58+bZMS1atLB7+Oc0ePBg29+lSxdbJ+15F3jWvEuAVqFs5F3j3ejcubOd48sX0pb1m266KeFZ58+f395lIA/yrMuWLWvvCfC+cs748eMtbz/00EO2TnoA+TteJMbFi0d7X5Ljtddei7vwwgutbEwOypqwl1xcONB4CcRnZBf/UXDxDyJDB5wYO3asqeKuXbsGW4QIh/iC3PoJxFcQgi0iM6FFMP5j7zp16qRBbUJm5syZLv5j4+IrLcEWkZXBohFfqXfxlQsrvxh8gdbk+MqntZSzj9bpadOmmRXg1FNPtdZvPGBoiT/ppJPM0sfxtKhjyY2v1Fur96JFi8wKxDVowcY6g2UhvtLj1q5d6x599FF3ww03uPiKoB1H6zOt2/EVOuvTwjncg5ZwBu2hVZx78EsfPaoXfNNZZ3985cha0Lk3Lf/xlTj7zzbigrcOLepYC2gpj6+cJ1hcsDxQVtDyTYs8FgmsgrS604JOSz/hIK7s4xzShXNID6wYhId7sE64Oc9fgxZ7rAy0yBcpUsRa0gkHFggGDyFc3Jdf9jGoCOdwL29J5Xy2RYaDcwgzgztwf38NngPh4B5cD+8F0thfg7QhjQgjYeVY0p30wOLAOnEjjjwr0j1eANh9ePbch3DHV+qtvI0XcGY54VmS5suWLbNrMbAYcY4X9nYv8gLrWEIIG2UJYY2vkFse8oMzEQfyD1YM+o2xzrH8sp/jsGpgLaHfL+lOXuC65APugwUmvlJv9yMchIdwET7yMWlAPZQ0IR7EBwsVVi/iSXzJO8SX5xQviCyt8QYB4so7QTg4r3z58hYX3inyA+nJ+0TeIhwcS5/C+Mqxixc9lm8Z5Iv8wTqWG94N8gfPgIV4cgzh4P0hPxEurF+EnWvFC1fL3zjIYbmKFxn27AgDYSFevJOEkbASDtKH/EJciBNxI47ElXtxT+5NWnCef9akFfclzJzDs1++fPl+z3ru3LkWrtq1a1te5ZnwbOIFsqUHz4xwkMa85/7Zkk/jxZg9c5492+PFsKWHL184nnQl73Bd8jTPgbxFHmOdcIB/1uwnb3JN1kkLnhN5mPhSDnAf4k18yfvkD9IpXoy5ESNG2DgK9evXT3jWxIP4UGZhbfTPmneSZ431kjoheZBnS1rz3Eg30o93kHDyXvr84vMcZQ3l7b333uvixbiFJSnwtPj888/dm2++aXk5KQhP2EjYiRyBhF1sIWGXfkjYZS+oVFAxxC3yjDPOCLamP+QhKiT9+vULtvwXKmG33HKLVaCosM6ZM8e2U2F85JFHrOIFVAQRFlSKqFgeDFSQJ02aZJXaZs2aWcWOChWVbGDghHvuucf+pxYq7CNHjnSjR4+2cFIpTg4qhRMmTLCyCrGJCKCOhACgEngg/L1Iy7PPPtsEH4KNNHrjjTfcZZddZhXp8ePH23YE8bPPPmvn+so9zwIQSFQ0L774Yqs0IpYONu4Hy7Bhw0w8dujQIdgi0gp5ALp06WK/Ihwoo6pXr26NDxkFIva8885zr732WswJOw2eIoQQQoiDhhZ7Wq9pLadlHJE0ZcoU9/TTT5ugwSpAIw5ibPDgwWZNoCKDNY1fLAC0jHMMCy3yCDbORTRyHC39tMDzH7BAInIZVfeOO+6whXM43p/DL2KS7Vi7aJVHIHIv9vswXX311WYN4BjO4b7s4ziOR1S9/fbbZk0gruzD8tKoUSMTeVyLexAP9hFfzuNa/ALxxIrwwAMPmKUAoU7fm3Xr1rlPPvnEGrOxSmD9YR/3psJIhfCZZ54xkUdjd8uWLa2iiHWERnfi79NECCE8EnZCCCGEiBpcol555RWz3GGluvbaa806gYsalmRE31NPPeVuvPFG++U4jnnrrbdMvNx5552uffv2JnQ4v3fv3q5Xr14m7pIDt7ILL7zQvf/++27UqFF2DgtWNrZzL6xaiCvCct9997kZM2a42bNn2/FDhgyx+9522222HddTLAAIMoQoAgyXNtxSO3bsaCLwxRdfNGsfrnXdu3d3kydPtn0cg/sY1nIvuhCAuJ8xcAZxZRAc3NQQwlhgcU/DvRX3RSxjiETCgUeDt9RFgtsj6YblUAghEhNTwg4fYCHSA+Wt2EPPJH0gXakgChENaclH9I2hDxJ9URAgWLNwP6xTp44788wzrZ8M1jbEEr+IIEQTbo5YxRBVvt8U/bAQP1ixsLilBKKIa9CPBksc5+EaynZEG8KQfjm4czJiLK6P9J9B+I0ZM8YEFMILwUQ/HMQg9+caWN5wKUXo0Rfo8ccfT/jft29f17p1a+srxP3ZjmUvEs5F9JEegwYNsmOwcn766afmWkq/olmzZiW4pJPmWBHpQ4V1LjGEC1GHdTEjIB+orA4HpWX6oHTdn5j6+vMBUP86kR7cf//96l8XQ+BvToVL/evCh/5Y1113XbAmRNqg3wjC5WCgrxrijb5nWOgQPMOHD7dKF4MV+EEhBg4caIMeMNgDgov9CBqsWxyDWyICDDdEBog4EP4crHZY23zfNLZzTa5N3zasYLhu0t8Pyxj7ce188sknE9wbOd5XEv0v4g6xSV8/4ogo8xB+xBx947Dmde7c2SyThAdwI8VFFasdxzEQBuHhmvT7pl8d+xgsAtjHIB+4eybV94/zMrISy3gLCGARPddcc40tIlyYmi0j+x/HOjE1j50QQggh/gV3QFwVGTAjpUE+MgOsT8zldNZZZ5lgQcwh2LCIIawYWAXhggWKeLANixz1C0bUxCpFnzUEHtYx9iFasKYhpOiThgWQkfaIe2RDEPdm0BZGIfSjg9LPDfHF9bDWsY9fIAykIyPgYUFDMGKd49rEASFZo0YNiweWRwQbIg9rGpYzRsFEtLVo0cLuy3lYz+jLRxzZj2Xx9ttvt+MRjNyDUQe5Jm6qWC7pK0d4GXyF+HMug6AgiBGa3JsBUhCKXsCRNhyH4GPgFuAcLJM0iAshMha8AGhIojEouQbqzJrHLqZGxaTDMS1aFGpChAkuP3yE1VARG+BGRMWNiheVJxEeVC6p9CblxiWyHpk1KiZ5iHcUEZMc7EdYIFbox4ZVLrtBfzfqRFj6Mrus4pnQR5ARKp977jkTjVg/0xMEOaRmBFCRMrwvoDpuuGApp+yhjpdRaFTMVMJ8HbRqCRE2vHx8oEVsQGvXgAEDrEAW4UKDHC2JQkQDfdUee+yxYC1pqKAyeAmuhtlR1AFiGtEaCw1QpDEjZeLCyTQE6S3qgGkYqJyK6GFAIBYRLsOHD7e+qmIf6mEvhBBCCCGEEFkcCTshhBBCCCGEyOJI2AkhhBBCCCFEFkfCTgghhBBCCCGyOBJ2QgghhBBCCJHFiSlhx3w1DRo0CNaECI82bdrYHEkiNmB0N+a+Sm4IYJF2mAeradOmwZoQaYN54y699NJgTeRUateubXMEiuihfquJtMOncePGNiel2EdMCTs+JEzqKUTY8GGKtcl9czJM0MvcL8zDJMKFiZiZ+FiIaGAexIYNGwZrIqfCpOg0FonoYRJ61XHDh+8d3z2xD7liCiGEEEIIIUQWJ6aEHRNIa4JykR68/vrrbubMmcGayGyYoHzQoEGaoDwdWLJkiU3YKkQ0rFq1yj3xxBPBmsipTJgwwU2cODFYE9EwatQoW0S4fPDBB27x4sXBmogpYffDDz+47777LlgTIjy+/fZb9+OPPwZrIrP5+++/3fbt292ff/4ZbBFhgWjeuXNnsCZE2vj111/d5s2bgzWRU9m7d68tInpoyFRjZvjs2rXLvntiH3LFFEIIIYQQQogsjoSdEEIIIYQQQmRxJOyEEEIIIYQQIosjYSeEEEIIIf5D/fr13emnnx6siWg488wzg39CpB8xJeyOPvpoV7hw4WBNiPBgjpP8+fMHayKzyZ07tytWrJg77LDDgi0iLI466ih37LHHBmtCpI0jjjjClS5dOlgTYfPHH3+4rVu3uk2bNiUs0Q4A8b///c9988039psa4uLi3Pfff5/ifckDpUqVCtYODq7PoGXE1cOAWQySx77kYCC9yHRh8JaUjvf88ssvtiTm999/T/UAMISVMPv7MdDXjh07EsLCwFSpCcs///xj94wcIIxvnuq44cOcm/ny5QvWREwJO2blP//884M1IcKje/fu7owzzgjWRGZDIdy5c2crkEW41KhRw1188cXBmhBpg4mU77777mBNhA1igSlfSGPqPS+++KJbtmxZsDdtMOz7Qw895DZs2BBsSRkE3VNPPWXTAaUHCEzitXTp0mCLszjefPPNSQowT79+/dwVV1zh+vbt655++ml3yy23uD179gR7kwaxtXr1ard27dpgy7+Q1kynlRrmzJlj90cMAiMudurUyfXp08fictNNN5nAOxAI5kcffdR9/fXXwRbnjjzySNe+fftgTYTFRRdd5E455ZRgTcgVUwghhBAiA8ESdu+997rrr7/eNWzY0OYMxFLVq1cv99hjj7np06e7unXr2sLcZ8wriAhs3ry569Gjh1m9Bg8ebPuvvvpqN3nyZHffffeZxQnvlI4dO7oWLVrYdRAiDz/8sLv88svdxo0bgxDsG36fxrVt27bZdiyI3PuOO+5wl1xyifvkk0+sQRShw3UJB/d74IEHzKr10ksv2bUJ2zvvvGPHE/42bdrYMYiajz76yA0dOtTuh9AbMGCA+/LLL938+fPdc889t9/1Izn77LNN1L3wwgsWH+5DGNu2bWvXX7FihaUBcSdMX331lVnTEGKE5f7773fNmjWzNPrpp58sLIQZkcjxbCe+pFnXrl0tvmvWrHFvvPGGGzt2rE3H48F6TZrwjLC6YRWdNWuWpW+jRo3c+++/7xYuXOhuvPFGE+n8/vbbb8HZztKUY7D+CZHexJSw27JlixUQQoQNhS75S8QGfMT5EDNXlggXWqep9AgRDVT6U2vlEOGAUEFsYBVCTDAxeO/evd20adNMnODah1UOy8+YMWPclClTXP/+/a0f3KGHHmrntWvXzj355JNmGUI4Yo1D7CCMnnnmGVe2bNngbs7ETu3atV29evXc1KlTTYxgReQaCK7PP//c1hFUc+fOde+++64bMWKEHYdAY55D/lOOM1cs9yH8L7/8slnm2NeqVasEDwLihIDinogwxBMToCMsFy1aZMd4sHhxX6x9HHf44YebWCOOCDHE4OjRo12tWrXckCFDTMzxjScNsViSHu+9954dw7XZ9/HHH7syZcq4gQMHWtyY1Jq0vfXWWy2+xJHwIdjovuFBECKoK1WqZGl/8sknuxIlSlh6PPjggyYIifvy5cvds88+a/8XLFhgbphvvvmmdTPiut6qKMKF712kEM/pxJSw4wWmdUmIsKElkUJXxAa03H722WfWQi3CZf369dZ6L0Q0UGmn4ioyFixChxxyiJWNuCIOHz48oQGsQIEC1i+5ZMmSrlChQmYdQrghoo455hg7BjGBABw3bpxZnnCpxa2QcxFHHsrgDz/80AQi7oeIRARM5cqVXcWKFV3BggVNMGIto98u1+S+9N/F3RurVVIQfsLiw5MUCByuV7NmTZcnTx7rw4eQi2T27Nnm+njppZe68847zyyLHIM4mzlzpitfvrw1Yp1wwgkmuHApRTgC4a1Tp46JM/b7ayNuaazAWlehQgWXK1cuCyfXJr6IwaRAmCGyKVs5HiHJtbDuYY30bqL0n2M/aQDEEZFZpUoVW0foqo4bPl988YVbt25dsCbkiimEEEIIESPgskdjZNWqVc16ltQgU4gVRMMjjzxiAsb3z0OcIPqwit1www1mwYoUdB6sHAg+RBN9lI4//nizYCUHggWrHNejkZTjuRd95ejXhkUxtXhBRWM+3htcF/EUCZY+rF+vvPKKiTGEKMLtrLPOcldeeaWJUMQYDRAILlxAvcBCQLGddQQY9wLSCTF5zz33WBgO1jWSAVG4L/FGXDJaKGmXnCAsWrSoudqOHDnSLJlCZAQSdkIIIYQQmUDevHlNiCE0GFSK/1ix6B+GWMFFEmGGlYt9WPMQKvTRK1eunDvttNPMhbBly5a2HbHDACq4IJ577rnunHPOMUuSP9fDOYhGrHJYt3A1xIUQ6xWjFhMWFv5zzerVqye4aCKyrrvuOnfiiSdavz0sJoQH6x734Rwse7gtcm8sgx7EFRZI7kM8Tz31VLsPgsuDdZGF8DJFAFZHrkG/Pfqr4YqJqykunlgbcZ2knyJik2uRVrhmIryaNm1qYSdcF154oYlQBtpAdGF5xLoWGV+shxyDeyiwD0FJOhJfBBrCEssmg8CQzsQJccc1OZ57EXd+cf3kWeL6qT52aeevv/4yKzbPVqRMrvhE+k8q8ZLSCkEfmOOOOy7Ymv7gNoB5n5dWiDBhRCs6TNMKKDIfCmj6hjDaWEaWMTkBWpLpU9qzZ89gi8jKYJWhgsogFFSqMwryEP2D6MskRFaCPoa4jV522WX7idnMhlFI/9/emcBrNX3/f9OgUkmD+koaNU8i0WCWDCGVKYoUIjOZfmSeydRgCBXNqTQoX5VmUuqb0kQaNE8o/Snc//NenZ1HirrPufee5z6f9+t1Xvfuc55zzj5777PPXnutvRZOVNq1axfsEfsLmlcc2Jx33nk2iYEw7aGPQnjHs35mgZYZbffrr79ukxN7AzNpBHr6Ua813hMmScJGGjshhBBCCJEtYMIQDVuUhDqRGGg7McllwhKvqKyTxORW/J1IaexYnIoUTPwSIcIEt8mYemDWIbIe1ingbQ1TGr/QXITDF1984ebOneuuvfbaYI9IZrJKY0cbYn0Ta7iEEImDCSqmm3jIFAcGayYJdeFNZIF+kRAgrLHEsytbZhFljV2kBDvMs1hIi222EGGCiS/28/t6uUTmwuwb7q5ZZ7E3xwAi/WDuwwCC9R4i+ckqwQ6nGARYpt8UqYsfIrIGUCQGZYnDGtZVigMDZ0GE2MB5Tzysq7znnnvM7JZ1mZmFBDshhBBCHDBZJdgB7tqFECKrYY0d6+u8xo4JJ0JhEIMQxz2EuMhMJNjtJzwgM/maIRRhgzYYz2I+zo3IWnAbjWaJzhgvYiI8mBHG8gEPdSL5ySrBjjbEO4pnP5G6+Bh6eHkUicH7BBrjHjgE08fDKWWIB1Qc4uHVFAi1wfgOL6uZhZyn7CcsjCTehxBhQyDR6dOnBymR1dA5s8Zu48aNwR4RFsSGGjRoUJASIn0sXLjQvAuK1Objjz82/wcicYYNG2abOHAwX2VN/oABA6wMvVAHhML4pxiMqUakBDtmCOXlRmQErBehfYlogKEAM8Fo7kS40M79LLsQ6YW4UQcSdFpkT7AAYBOJw/hWY9z0wZpx4hgSb3FP0Hrt3LkzSAn5ghVCCCGEEEJEEgLAZ/Y6umRFgp0QQgghhBBCJDkS7IQQQgghhBAiyYmUYHfwwQfbJkTY0K4Uhyda6F3PGGjn8jQqEkXtSIDGZeGhsswYVK5/JVIlUalSJXfCCScEKSHCgwW3tC8RDfBwheviggULBntEWJQpU8bc4wuRCCVLlnQXXXRRkBKpSs2aNV2NGjWClEgExrca44YP3zu+e2IXkRLsypYtqw5EZAh68aMF8Wbq1q2rxdAZALFHa9euHaSESB94oTvjjDOClEhVmBCtWLFikBKJUL16ddtEuBD64MgjjwxSIlKCHe6V5ZJeZAS4a6Z9iWhAuAPqhL8iXH7//Xf1oyJhaEdyzS5wIy9X8uFAv6y+OXwoU/orsYtICXZz5851EydODFJChMfw4cMtcLOIBsSdGT16tPvhhx+CPSIsvvnmGzdu3LggJUT6WL58uevdu3eQEqkK4zJ9O8Nh8uTJtolwGT9+vFu8eHGQEpES7NauXeuWLVsWpIQIjwULFrh169YFKZHVMAO8aNEiaQQygE2bNrlvv/02SAmRPph0mTNnTpASqYpMMcPju+++s02Ey9KlS+27J3YRKcFOCCGEEEKknz/++MOtWLHCJjT9tnLlynSZq+XPn982WL16tU2+7++yBiYH/P2x0thfGKQz8bdq1ap0L6HgfuvXrzczPa5HmQiRCkiwE0IIIYTIJiDAffrpp+6tt95yl112mXv77bdtmUsi67sQlO655x43dOjQ/bK0mDdvnnv66afNnJf7v/rqq27Lli3B0X1DHjmve/fuburUqem26pgxY4Zd56effnJff/211tiLlEGCnRBCCCFENiFXrlyudevW7u677zaPgffee6+7+OKL3ZNPPmnC2TvvvOOeeOIJ80JOSAu0cAhf1113nTv++ONNIGRdHSFp8Cg9bNgw98ILL7hPPvnEHX744bamiXOvuOIKt3Hjxt3nvvHGG3Z/TO3ff/99V79+fbsPAhbXQjicPXv2X84dNWqUu/766129evXcU0895UaOHOn69+/vNm/ebMtz2G666SbXsWNH9/LLL7sHHnjA8nzfffe5V155xUIZIUTyDOzn2p07d7ZrIFQiHKL9Q7AbPHiwHefcH3/80T3//PNWTg0bNnRTpkyxvAuR7EiwE0IIIYTIxmCKiICD4IaQd+WVV5pTsTp16riFCxe6NWvWWMy69957z4Qrtquuusp16dLFTBrbtGnjzjrrLAtL1a9fPxMOCauC0OfPbdu2rd0LzdySJUtsbR6Bowl0T3gbQND74IMPXLNmzUwQRLgrXry4XeeLL75w5cuXt/vccMMNdh28J7Nm+JprrnHFihVzX375pV1j1qxZFtoFYY61oNwHQe/NN980RxrEi2vVqpWrXLmy27BhgwmqAwcOdGPHjrV8IIziaOq2225zDz30kGk0teZbZAciJdjxkpYrVy5ICREe1apVcyVKlAhSIqthRpkPLoHKRbgULVrUVahQIUgJkT7QzBx33HFBSmQXiPeFqSZCTt++fU3gQejLmTOnK1SokCtSpIgrWLCga9SokQlsmFDSTx900EF2PpoutGlo2tDAFS5cePe5CFdQoEABE8K2b99uaUCr9vnnn1u7Ivh96dKlTXDjHK5BTFP6rr2RO3dud9hhh9n/OHNhrHjUUUfZd537cn+ET4RNBMT4+3pY78ezcw+0dqwXZO2gvy/3yGgQitlEuDAZQHsTu4iUYMfLdvLJJwcpIcKjadOmCgwaIfLmzevOPfdc+yiLcOEjd/rppwcpIdLH0UcfbRoPkf1AMMMkEi1cmTJl/uZYBMFv/vz5plW74447bI2ad36CgEX8UTR+CP57WzeHIIhmEI0cQhZC1TPPPGNCFL/HKQrhNBDywgItHZO3aPB8XuPhW4Mwh4YQYTYrAlozvtUYN3ww89Vk5p9ESrBj1oWZfCHC5pBDDrH2JaIBs7/MkPpZYBEemD1lxuyzyN7QjvamUWf9FOuZ8Looog3fPLRj1CWaMbRc+fLlM6EGIeiSSy7ZbSqJ1grhh/8R6jGdxEyR9W2sQUOTx7XQkt16663uwgsvNI0ff/25Hvr1a6+91lWtWtVMIjkfAbFx48a2Rg6BEScsrMvjPK5NPsgXbY77kM8jjjjCvt3kx2vtyDd55Dcc43z2YwqKFhIzUdb2Yd75v//9z8xMvZauZcuWlgcEU8xGuRbX4J78JqO/R4xvNcYNH9oGbULs4qBYA08L/t8N3pR44XkpUHlnFsSi2LZtm72gQoTJtGnTrC3LDCIasG6C/oVBArO4IjyYlSZm47HHHhvsEckMca9wYDFkyBDXoEGDYG/GQxtCs4FzCkCLQxqnFJMmTbKBeosWLeyYEOLf4f0BhEwRHqyxxBQTYT+zwEyZSY3XX399n99aNNb//e9/zRmRNyXek71plxMlUho7FvbiolaIsBk3bpyZaohowCJ1JpBwRS3CBROn6dOnBykh0gcTBDjXAEzn7rzzTjOfxpMgpnlCiAMD5zBsIlw+++wzsyIQu8jxcIzg/91QQIMGDXIdOnSwRbCZBV6UGOhpwbYIG4QIZnNkhx0N0NjxgcOrWmb2MakAgYgZlGMCJZIf1if17NnTXXrppWaSllkwI/3xxx/bhCtr7dDSYVGDkQ/mZOecc85u6xrWbDFuwPsg33DeaW8aRXtEMOTYzz///BeTPax0uA/HMPH0fQH/o6nE1T1rojApZF0ucH2O4SyD++Low9+LfUxscD2OYV7n+f77723jGM/h13fhBh+zUt4ZjoG3ImB9GHnkuhwjf96kn3rhGPvZcADinYeQ9vnA2Qiz9RxjLRtl4fPBvXHggQkg8du4HppSjmFe5k1hmdVnfMR+NvLnTfooD7xGsp88cT3ySD1xLZ6NY0ymcczng3MoX47xW//MHCOguL8XcD02rsEEKfspX+rEm31TT74NUL6UlS8P9vvype+nzjxczz8z9/bB0CkPvFZS9gQY53l9ebBOz9+LZ45vA9yHNscxyoZ68VAnPh88i9eiePNi397IN6agwLP49sYx7uXbAPny+eBYvAMPruXLnnzQ3vDoSZ3zO58Pnpmypw1Qz9zLlwd58OVLPigP9rORd//M1AXnsT++PLg29/HtjTL17Y180Ab8vfi9f8f4He+9vxfljskq8A77fFAP5JG6oQ1RRv6ZeXd8G+AYbdu3N+7t33WIb2/xZU9b8e2eZyQPPh+UvX/HEOywxsIhT2ZBfWC9gP+GfVk24rmV577gggt2t909oSzCJnKC3datWyXYidDBlTHrCyTYRQM67JkzZ0qwywAY1DBYlmCXPchKwQ7zTwasfJvjByAMvnBYgIMMQIOHyZEfDOK50A/AiHnGwIsBPAPceDM0NII48eAYg9BjjjnG9jN4HDFihJs7d64NjFiD5b0aM4AdM2aMDQYZRFapUmX3gJSBFPfjerwH8e8A3wBM8jnGgJT4bsBgmrxzLscY+JYqVcqOMRAdPXq0ORLhGJ58veDBoBjPkOxnY02aH/BjGuatRLgGjrs4xoAZARmNOscYTOO8hPJEACTEAOZ6HGOw6AUF6oAYbP5elJMXjigPyor9CI0cY2BMeWIBxXNzjD4Xx0o+H5Q95csxfu/bFkJO7969d9+L8udc8km5sY6N/ZQv53jhCNN64txxjDZLPrxQQjn58uXelKNnwIAB5jGTY7QZ7gOMBfFwSdnzjKyZ8+VBe2TSwYdpoL35gTNx6yZPnmzXoy3Gm8kR6oAJRY4h2NF2ACHko48+snpDaGHywTtX4Tk5RhunLFg36AUP8k0+uB7nsbbPQx1T1xxD4CEftHXKkvKhbjhGvhFIELYQVigrXx4IK34ihHxQZ+xnY1LFPzPvAu8E+ykPnouy5J2lPNg4RpvA8zztjnfsww8/3N3eEIC9gELZs1bR34v8eQEZQZH1kexHYOR6/p2gjidMmGDHuD7jLT8BwTm0EY5xf9qip1evXtZ3cIz25E0qeSdo99QzQhz7fT7i+xyuy7suwW4XkVpjRwdKx9S+fftgjxDh8Mgjj1gA1CZNmgR7RFZCh929e3fzypaZfUwqwOCVmWEC+orkh0FtVqyxow0RE4yg0bipx6shgzZg8MW6Ea2xy/4geCF44nhEJAbvDLRr187+inDo1q2bCbo46cksEKC1xk4IIYQQSQNaBDQGZ599tmktGORjURNvSieEECI6REqwQ1XpVdxChAnmft40SGQ9DBgx32AmWIQL7dybxgiRXjChil8PR7vCkgdzti5dumSq2ZPIOjBz9aauIjEY32qMGz6sUdT47k8iZYqJShKXyhqUiLDB9A97f32gogG2/tjx865jby/CgzUcrGPR2sXsQVaZYtKGWEcS73zCw7CBb7VfUyayL6yVYiJOAkni8D6BxrjhwliC8V1mCncyxdxPGHSrwYuMgJdKQl10QFNHnUioCx8+bhLqRKIwUNqbUAcM9CXUpQZoQyTUhQPjW41xw0cWWX8lUoIdHpdwvSpE2OBRCk9UIhow24+jJLQCIlyYvcQTnxCJgKYGj24itcFTI5tIHLxjsolw4XvHd0/sIlKCHa5BcR0rRNjglhYvbyIaMGjEtIzJHBEuuIbGZbYQiYA7f8yMRGpD6ADc5YvEYXyrMW74+HAUYheREuyYvSe2iBBhQ5waaYeiA2t0qBPW2olwIQ5VRtjti9SC+EqaBRes2WUTicP4VmPc8OF7x3dP7EIu6YQQQgghhBAiyZFgJ4QQQgghhBBJTqTCHYwePdocKrRv3z7YI0Q4PPLII65evXquSZMmwR6RlRB+onv37q5NmzaZ2sekAtOmTbP1pB07dgz2iGTGhzt4//33LTh4ZsH3v0+fPu75558P9ohUZOjQoeYF9aKLLgr2iPTSu3dv+9u6dWv7K8KhZ8+erlq1au7EE08M9mQ8OHq86qqrIhnuQIKdSAkk2EULCXYZhwS77AWCXY0aNdzJJ5/s8uTJE+zNeHhHly1b5mrVqhXsEakIYzIoWbKk/RXph/cJypQpY39FONBHFixY0BUpUiTYk/Gwpg+Hjzgqk2D3D9CB4C2vYsWKwR4hwoG2XKxYMXfkkUcGe0RWgiObxYsXu/Llyyu+YMhs2LDBbd682VWqVCnYI5IZBi3jxo0LUpkHTh4IEVOiRIlgj0hFfvrpJ9PYKTZm4jBZAvsa5Iv0gXdtJr2yYizRtGlTV7x48SD1VyTYCSGEEEIIIUSSk1WCnZynCCGEEEIIIUSSEynBbtKkSW7QoEFBSojw6NatmwVaFdGA+FhvvvmmmQ2KcJkzZ47r27dvkBIifRDw97HHHgtSIlUh+PPYsWODlEiEwYMH2ybCpX///m727NlBSkRKsNu2bZvZ9AsRNggQrN8U0YDA5Js2bbIgyCJcCPzOGjshEoE1dmvWrAlSIlVhjR2bSBzGtxrjhg/fO43v/kSmmEIIIYQQQgiR5EiwE0IIIYQQQogkR4KdEEIIIYQQQiQ5EuyEEEIIIYQQIsmJlGB3+OGH7zPQnxCJUKpUKVeoUKEgJbKaHDlyuKOOOsrlzp072CPComDBggrELxImf/78rnz58kFKpCpFixa1TSQOwf4V8D98iLfNd0/sQgHKhRBCCCGEECIkFKBcCCGEEEIIIUS6iJRgt2zZMvfVV18FKSHC47PPPrP2JaLBr7/+6r744gvFnskAiD2GtYUQibB+/Xo3YcKEICVSlcWLF7slS5YEKZEI8+fPt02Ey9y5c93q1auDlIiUYPf111/bAFyIsBk7dqxbuHBhkBJZDcGPx40bp8C3GcB3333nJk+eHKSESB/ff/+9GzRoUJASqcrs2bPdnDlzgpRIhOnTp9smwmXKlClu6dKlQUrIFFMIIYQQkYEJn5dfftndeeedtj377LNuw4YNwdHEQWhFG/nbb7+5P/74w02aNMnde++9u+/HxgRJRrJo0SI3bdo0N3PmTJvkEkKIMJBgJ4QQQojIsH37drOwaNWqlbvlllvczp073fjx44OjiYOZKQIVgt3BBx/s6tSp426++WbzAlqmTBl36623upIlSwa/zhhmzZpl5ugVK1Z0J5xwQrBXCCESQ4KdEEIIISIFoVAI23H00Ue7qlWrmjCGuVWbNm1cvXr13MMPP+x++OEH98ADD7jjjz/eXX/99fabESNGuDPOOMOdc845Jjx17drVXXfdda5Tp06mBWzYsKHr1q2b+/3334M77QrtgCBXuHBhC7tEKJYXX3zRXXrppe6dd94xU/7GjRu7GjVq2Ln+mieddJJp+tAmtm7d2tWtW9f+btmyxb300kvu5JNPtt/gaZyNe5977rnu448/dn369DGPee+++6577bXX3MqVK90111zjGjVqZBpKfsM9mzZtaueEqbEUQmRfJNgJIYQQIlIsX77cde7c2d1+++1u2LBhptUaPny4CW8IUGPGjHEDBw5069atM6EJQevHH390gwcPdj169HD33Xef/d26daurXbu269ixowlPAwYMsHBOaOv+CSJBnXXWWSaoVa9e3c6vWbOm+QJAo8g1P/zwQ3fQQQe5VatWmSOoZs2auQsvvNA0jM2bN7f7IJx+8803rm/fvu7JJ580wZC4cFdccYU788wzLb4qQiZCHgLp6NGjzQX6ihUr3CGHHGIu07kGTkyEEOLfkGAnhBBCiEhBDN0bbrjBtFZFihQxrR0CEOaZCG1Dhw51lStXNg0bGrfjjjvONG4IZAUKFHBHHHGE27Fjh62hI+3jReXNm9cEK4SmfwITzTx58pjghvYN4eziiy8Ojjq7Zo4cOew3xYsXN4GN3959991mYolGsUqVKiYckm/yQp4w9cT0Mx7yzPFixYq5XLlyuXz58pngSV7JJ88nhBD7Q6QEO8wWWrZsGaSECI+bbrrJzGBENGBQ1L59exvIiHA59thjbfArRCIgSD300ENBKvPBFBPhDq1WuXLlTONVqlQpE5pwb/7oo49a2JRNmzaZRg9TS7w3ot3CjBGTTJ6B6wDXQkDCUQkaPjR5+wsCVsGCBc1VPUIaglg8aNdeeeUV0yRiAoqw5wXLBQsWuJw5c1peyBNml48//rjtw5QUAQ4BsXTp0m7q1Klu4sSJth9NXmaBtnFfoWcwA23SpEmQEonQokUL20S4XH755TaxI3aR42GmlfaAeF+4Oe7QoYMNwDILOmA6RCHChhlQ/4EXWQ8z29QJs+IiXJjxZyAqRCIgeGSVpoj+4bDDDnNly5a1tsw6u7Vr17pTTjnF+nG0Z5g8sh4NrR2OUDCTPO2002xiA2EKTd7VV19tAhnns4YO4Q5TSgRF1uUhBMb3QV6YRKPHWATtGv8zAYUXS9bLVahQwYQ0jiG8MUbCVJP7EBqgQYMGlg+EPxzAIBTxW/7ijRMYiHIuz1mpUiV7zvr165sg+O2339pv0faRF5yrcA8cu2TUeIwyeeSRR+wZKCcETQ8aw3/Tbor9gzalMW740Efw3YsarPFlXfAFF1ywz3r/N5Pw9HBQrPP569RTDGazsA0nyC0dS2aByQRosCfChllWPqJqW9GBOqE+qBcRHvSjdOvxgzMhDhTaERsCnsjeoOnEPBTBEaHywQcfNGEVNC4LD5VlxhDVcmV9LGtn33rrLZuo2hveRDxMIiXYsWiYRciYaAkRJsxG4klNJiXRACcH3bt3Nw93mdnHpALExvryyy/N2YMQ6YU2hNkgHhpF9mbevHmmZfQceuih1je3bdvWjmFdoWUyicMAH9q1a2d/RTiwvhWNfdSW20iwiyHBTmQUEuyihQS7jEOCnQgD2hDOS3C3L7I3mLkyON4TzE5ZM8iAmTGhSAwJdhmDBLu/IsFOpAQS7KKFBLuMQ4KdCAPaEAOmF154Idgjsis4o8F5nQeTNtJoa1mvyBomaewSR4JdxiDB7q/I0FcIIYQQfwNnIgxItGXvjbV1rHXG4QwCHc7z8CyKl085ThEiuZBgJ4QQQgiRwuCGH80CIRmI1xdFL4NCiH9Hgp0QQgghRIqCB8x3333XNWvWzEIeCCGSl0gJdizUJQaNEGGDeQlxgEQ0wLyHeE9ZFScrO0MQZ0yohEiEEiVKWHBqkf0hpAWeL/cWeqZatWoWt08kDuNbjXHDh5iUxKoUu4iU8xQhhBBCCCGESGbkPEUIIYQQQgghRLqIlGA3e/Zs98knnwQpIcIDL1+0LxENtm/f7oYNG+a2bNkS7BFhsXjxYjdmzJggJUT6WLp06W737CJ1IXzK9OnTg5RIhHHjxtkmwmXs2LFu4cKFQUpESrBbs2aN++6774KUEOHx9ddfu3Xr1gUpkdXs3LnTOuJffvkl2CPCYuPGje6bb74JUkKkjx9++MFi2YnUZuXKle77778PUiIRGN9qjBs+3377rX33xC5kiimEEEIIIYQQSY4EOyGEEEIIIYRIciTYCSGEEEIIIUSSI8FOCCGEEEIIIZKcSAl2hQoVckcccUSQEiI8jjrqKGtfIhrkyJHDlSxZ0uXKlSvYI8KiQIECFlxaiEQ49NBDXdmyZYNUxkEcJzwvjh8/fvc2b9489/vvvwe/CB+cN+HEgnvjxOlAYkmRL5xx+bxOnjw5VMcNPm87duwI9vwdvAovX748Q8vIU6RIEdtE4jC+1Rg3fIoXL+4KFiwYpESkBLsTTjjBnXPOOUFKiPC48sor3fHHHx+kRFbDoPGSSy7RgCEDqFq1qrvggguClBDpo0KFCq5jx45BKuPwgszMmTNdly5d3Jw5c8xD9h9//BH8InwIs9KjRw+3adMm85ZMHvYXhMDu3btb4GFCiwwfPty98847wdHE2bp1q+vdu7fbvHlzsOfv4Kmyb9++GRLceE9OOeUU16hRoyAlEqFJkya2iXBp2rSpq1atWpASkRLscubM6XLnzh2khAiPQw45xNqXiAYHHXSQ1Ql/RbigDVU/KhKFdpQ3b94glXEw096qVSvXunVrm3y7+uqrTVN4xx13mFCBoHfDDTfYJFDt2rVNS3bdddfZJHD9+vUttAcxSqtXr26/+fzzz01Q5LekOffnn392vXr12p0ePXq0e+WVV9yoUaMsniYCHudxvHHjxibscbxFixZm7fHSSy8Fud0FE1MXX3yxXYu8LFmyxAQyhEV+z8TK+vXr/3ZNBMpLL73U9hFble3uu++23/Nb8sz/PjTPE088sTvPQAw0BO57773X/frrr7Yvo8GqQpYV4UC/rL45fChT+iuxi0gJdmvXrlWMD5EhLFiwwNqXiAbMkC9atEhx7DIABqnE9REiEYhjh8CUFWBiiCniwIEDXaVKldxdd93lPvzwQ3fyySebGSSC1Msvv2yWGAhEbAiE/fr1M83fwQcfbEH6e/bsaYM+NGuc/8UXX7gaNWqY8IVAdtZZZ5nQt2LFCvfCCy/YcYSoN998023bts2dfvrpJkhOmTLlL98PhCp+i6CFcIggihbtq6++MuEOAQ2t2/PPP2+avU6dOlm+hw4d6s4880wTRgcPHmy/RzPJ/xMnTnQPPfSQ69Onj92DaxNHEIF0w4YNpqEjEDPXQJNKvjMDYtgpjl04ML7VGDd8FMfur0RKsKMT++STT4KUEOHBAIGZXxENWCPCAIUZbBEuCMwfffRRkBIifSxdutQEnKyCtaJoin766SfTqs2YMWN3f8Gxww8/3LR9zNSjvUtLSzMTSSwzENTeeOMNexfoa3788Ud32GGH2fqmm266ybR78TDBxBps1qYi9PF7rsv1uU++fPmCX+7it99+M2GHMcuECRNcy5YtzSwSYZC1b0cffbSrXLmyCZWlS5c2Ye60004zYZnrc81SpUqZlo88IcRiesk+8smaIbR2CH2rVq0yjR/nIFAWK1bMrlG4cOEgNxnL1KlT3fTp04OUSASEdTYRLkx4sFZW7CJSgp0QQgghhAdhCMHriiuuCPb8nY8//tideuqp7oEHHjAhBO0YWrRmzZrZccwZ0WQjjN13332mIYsH00pm/BEImf3n9/8Ev+fat99+u2vevLkbOXKky58/vwlymG8ieHqLBP5icomGsWjRoqatQwOH1tE79MqTJ48Jc+wjn2j/EPLQyp133nlu2bJlpjHENBZBjzx6c00hhIhHgp0QQggh9huEi7AFC4Si8uXLm5YOwalixYr2/5FHHmnaMNbcYTqJMFSrVi37/X/+8x/TsqGxe/311939999va9YQ8jCRZJ1cnTp1TNuFQIfgB6xzQxCbO3euq1KliitXrpx77LHH3C233GKCIWaaZcqUsetzHzR8/AU0ecccc4xp89AO4rgBgRFh7Nxzz3XXXnutmWlec801tjava9euplFAAEQYREBjTSH3atiwod2H65An1v5hvom56BlnnOEuv/xy17ZtW3tmrsc1nnzySfPEyXNpXZEQYk8OSsN+YQ8+/fRT81j3v//9zzq2zIJOjQ9G+/btgz1ChMMjjzzi6tWrJ49UEQFTJ8ym2rRpk6l9TCqA63hMxDLDo6HIvtCG3nrrLdetW7dgj3OrV682bRdCE99ptFMiezNgwABbs4i5qUgM3ido166d/RXhQB9Vs2ZNmyiJEpiDs8aWesfEem9khGdbaeyEEEII8Y8wOMGZCI5McFYihBAiekRKsMPOfM9FykKEAWsecK8vogFhDqgTZoJFuGAyhpmZEImAGSROQvDuSIxZNHSsF8OjLV4rWY/mvdqS5himjWzxZpoc8/vZ4h0mMVvt97MuLt7TI9fwx1hTRl48rFPzx8hHPFzHH9vTk6U/Nn/+fFu758FxCUHROYYThvjg4JhY+uuxBi4e8uWP4TTFQxnhiZP9eL6M99iHMxjuzzHuGR+2gBAJ/nociwdzT3+Ma3soFxzd+GPxz4zjGDxC+2M4d/GQD7+fLf6Zya/fTz14M1SRGJgYs4lwoUw1vvuTHA/HCP7fDQt1WezboUMHG3xlFqgq8SClQYkIG9Zp0LYyIy6T+HdYG1KyZElzJqB1IuFC/4njhczsu0X2g8ESA/rXXnvNPFLGr9pgQoa1bXh6pE9FkMGBCUIR4wfaIJ4bAYFhyJAhtp+N83jvASEPxyPeOQjtlrVrgBCGR0aOIfCxDs7HU8N7NoIPx/AcSWw3DwHDEcA4Rt64JiDUEAIBoZAlHzgr8U5SENAmTZpkAhLOS1hD5weKrJdj43qYkLP+zYNHTAQ3jiHAch4gsBImAaEKwdB73ATuTWgD8oGwRjgH/13i96yf43qcV7duXdsPs2bNsnrgGOVGPpggQzCknBDC/DNT9hxDYMULoy8PytCXL/mgztjPxjpC/8wIjuSR/ZQ5axb9eSL94NEUpz4a44YL7zJLOqIm3PHO0qcQmxLF1d6In7AKi0itsRNCCCFENGB4gJCC1u7BBx/crXliEpb1I6y7QoAABBs/nEDwi9fGxw9emMjx5/B7zvPEH0NgYwP2xU8Axd9rz2Px94rPR3rvld587Ks89jcfgFMVz/7mY3/vtb/52PNeQoj9Q2vsYhDTRXGtREaAiUu8GYrIWhhQ4PI7I2arUh3Mr5ipFyIRGHCsWbPGlkcQtBsN06OPPrrbIyXCgxcEgME/ggibFyw8fj9b/Dn8v69jXMPv31OwiL/Xnsf8frb4fKT3XunNR/yx9OSDLZ79zcf+3mt/88F3E02lSBzGtxrjhg/fO757YheREuzwwoVpgBBhg2cv2peIBgpQnnGw1gkPw0IkAiZEzDh7mHFGa8cyjaeffnp3DDaRvVGA8vDAhJhNhAsm1pgxi11ESrDDjp4FvUKEjWZ0ogVmPtSJNHbhg6Yl3jGEEOmBtVtYOuwJ68iIqcb6OpH9wZKKTSQOmk9pP8OH711GmDQmK5ES7IQQQggRbTDb29McUAghRNYjwU4IIYQQQgghkhwJdkIIIYQQQgiR5EiwE0IIIYQQQogkJ1KCXdWqVV39+vWDlBDhcc4557gqVaoEKZHVEET3rLPOUtDbDIAgxCeffHKQEiJ9ENj70ksvDVIiValTp4479thjg5RIhJNOOsk2ES6NGjVy5cuXD1JCAcqFEEII8TcYHsTHNxNCCLF/KEB5DIIWy/25yAh27Nhh7UtEAwaMO3futL8iXGjnlK0QiUBIEvpNkdowJtO4LBxUlhkD3zuN7/4kUoLdnDlz3IQJE4KUEOFBMGw00CIaMEs1YsQIxVvLAJYsWWKzhEIkwrJly9y7774bpESq8tlnn7kZM2YEKZEIWMOxiXAh6PvixYuDlIiUYLdu3Tr7mAgRNgsXLtxrsF2RNTDDRkf8yy+/BHtEWBD4fenSpUFKiPTBpIsmw8SqVatsE4nD+FZj3PD57rvv3KZNm4KUkFdMIYQQGQ6mMp9//rkbOXLk7g1NQCJmo/6a+3sdTAsnTZpk9+ZvZpkabtu2zaxRmGDCxNHD/bFU+fXXX4M9QgghRPqRYCeEECLDYT3l1q1bbXb16aefditWrLB0vKBzoKxevdp16dLFbdy4cb+ug/nv+++/b1pN/r733nuZsuZlypQpdi9MkOPXlfL8L774otuyZUuwRwghhEg/EuyEEEJkODlz5nRnnnmma9mypYVkwJV+2bJl3XXXXeeaN2/u+vTp484++2wLhXHRRReZ+VebNm0sdAP7pk+f7mbOnGnnFC9e3PXs2dPdfffd7uOPP3Y//vije+mll3afi+D2wgsvuPPPP9+ESEA7NnnyZLte69atXdeuXd0VV1zhevTo4fr27WvnPPHEE27t2rV2ba7Vtm1bMxd+6KGHzKvZXXfdZdd57rnn/nKv0aNHuyOPPNIdc8wx7uuvv3avvfaaK1y4sKtUqZKtd+zYsaMbO3as3Yd8osHjGqyHFEIIIcJCgp0QQogsAS3bypUrTchp0qSJe+edd9zAgQNdyZIl3YYNG0yb1rlzZ9evXz8TijBbRBDs3bu3K1CggLv33ntNuEKI+vLLL+13CFhjxowx88bzzjvPhD/InTu3CWbjx4+3cD69evUy7SH38B7V+B8t4EcffeQWLFhgcVUR2sgnGsZq1aqZpg8BM/5emIKSFwRDBFDy/vLLL7tnn33W5cqVyz3yyCOuQ4cOrlatWrs1hPyVV1ghhBBhEinBrlixYu6oo44KUkKER4UKFVzRokWDlMhq0N6gtTnkkEOCPSIsDj/8cFe6dOkgFX3y589v2rA1a9a4V155xf769XIIRQhwfBty5MhhGj8CZ6NRwwmBF8gwacyXL5/9JQBw1apV7fecGx+Hje8L53qtGVq7PdfZ/fTTTxY4n/6iXbt2rkyZMpY/2uo111zjSpQo8bd7tWrVyv38888m7NG20RR+++23di8EzGQU4CgDBFmR2hDLWPGMw4G+i02EC987vntiF5ES7I4//ngzxREibC6//HJ33HHHBSmR1Rx66KGuRYsWpmkR4VK5cmXTVCUbmF4iTDVt2nSvMYnQcOHWukaNGmZmuX379t1OR2hHmFDy/cAsE3PIPUHwwvRywIABpmnjtwiV3BNhknV6aOVI8z+aRDR8aOTwqMv97rzzTtPW7Xkv1s9hYnrrrbeaRhAX8TfffLNpF9EKovE7+OCDXZEiRexeCJXffPNNkLNoUr58edMyitSmUaNGrkGDBkFKJMJZZ51lmwiXc845xybYxC4iJdgxs8rHT4iwoV3Fz9yLrEfvesawr34U9/V4ZkQjlZWg+apTp46ZRiLg16tXz/6vXbu2W7RokZk0MsnH74499libiUVw4zjCFOvXOnXq5E477TSb/eY3mEyiXUOQwhEJwiHr3Tju33vuhWkka94w3+zevbt74IEHbOCK2SXaO+6LGeiDDz5oZpUIfrfddputy7vhhhtsbR+mnXve66qrrnJPPfWUCXiPP/64q1mzpq2rGz58uLvwwgtN61exYkV7BgRMBEb+57koiyhqrvU9FkA70LczHHif9E6FD2WqNvonB6XtxUaEAIqsQSCGTWaq4JnZZCaTGVkhwoQZdEyoGGCJrAdNy9y5c22WjQG3CA80QmiYWM8FCBI47njzzTdNKzZs2DAzgxXin6ANzZs3z51++unBHpGKEG+UQTMTJSIxeJ+gevXq9leEA2MJLC2wxIgSb7zxhk0kvvXWW2bOvzfwlBw2kZo6IMYPA3AhwgbPebQvEQ3wNIjJWlZrj7IjrD3DvT7MmjXLNW7c2CbqMClUEFexv3z//fduyJAhQUqkKjgsUqD6cCDmJpsIl6lTp5piSOwiUho7vI8xo9y+fftgjxDhgFc6TL7wvCeyHtYmYQqHO3stzA8XPnKvv/66OSDp379/sHcXmBJiYnjEEUcEe4TYOzh/mT9/vml6RerCmlRM3VhDKhIDzQ1gyi3Co1u3bmb+3rBhw2BPNJDGTgghRCj4+bq9redA4MMTpDZt/7T5sAxCCCGSB2nsREogjV20kMYu45g2bZrFdLvxxhttTQd/0eIBaxAI0q01duLfoA0x08xsuEhdpLELD2nsMgZp7P6KNHZCCJENYTDGx44QAR988IGttcPdvhBCCCGyJxLshBAiG5MnTx7XrFkzN3DgQNelSxfzHiaEEEKI7EekTDEJ4kp2cuTIEewRIhxYL4IGY29rjkTmw3tOEGredcWfCRfKlr5U/ahIBP+O5syZM9gjUhH6EtC3M3F4n0B9c7hQrowjotZGZYoZg0pRgxcZAYMTfZiiA50wdSKhLnwoU/WjIlH8OypSG76b+naGA/2y+ubwoUzVRv8kUiWxfft2xbUSGcLmzZutfYlowCzwli1b5HkvAyBGIM5phEiEX3/91W3YsCFIiVRl27ZttonEYXyrMW748L3juyd2ESnBDhNQPDAJETavvvqqmzRpUpASWc3WrVvNTEEDx/CZPXu2e++994KUEOmDGHYPP/xwkBKpCt7Kx4wZE6REIgwaNMg2ES59+/Z1s2bNClJCukshRJawl+W9IgQoV5WtCAO1I6H+JDxUlhmDyvWvSLATQgghhBBCiCRHgp0QQgghhBBCJDkS7IQQQgghhBAiyZFgJ1KCWrVquZIlSwYpIYQQQgghsheREuwqVqzojj/++CAlRHhcdNFFrkaNGkFKZDV58uRxJ598sitQoECwR4TF0Ucf7U488cQgJUT6OPLII13Tpk2DlEhV+G5Wr149SIlEYHyrMW741KtXz5UuXTpIiYPS9uJKhrADl1xyifvf//7n/vOf/wR7hQgPYo5Mnz7drV+/3tIlSpRwDRo0cKtWrbLAuAxO/wliLM2ZM8c0cQgJ+8OOHTvcZ5995tasWePy5s3rGjZs6AoXLhwczXg2btzopkyZYp0Q75XPD5rE8uXLB78SQgghhBDJDCGd/vvf/7q33nrLHXbYYcHev/L//t//C/4LD5liiizhhx9+cC+88IJbu3aty5Ejhxs+fLh755133O+//26C3b9BwNSuXbvadfYX4nsNHTrUgmPzP/fLzKCWixYtcg8++KC96Dzn6tWr3Z133unGjRsX/EIIIYQQQoj0ESnB7vPPP3cjR44MUiK7kytXLnf22We7Fi1auAceeMBNnDjRBK+pU6e6L774wrR2CH1okHv06GFCEZq2+++/f7dAhmB4+umn2+/OO+88N23aNNe2bVsT/J566inXr18/+x0sWbLE1PXNmzd3nTt3NqGKoJZopzdv3uxuu+02N3nyZAvufPjhh9t10e6hZeP6J510kqVnzJhheeNaCxYssDRaN87hXAL7cqxo0aJuxIgRwd13gUkLQt3OnTstP2ju8ufP7zZt2mT55z7km/yTL9JXXXWVpfnr0zw/ZUZ5cG/yQF64L/m8/PLL3U8//eReeuklu75/lqjw888/W1BRnluEC+1v2LBhQUqI9LF48WLrP0RqM2HCBPs2i8Qh2DubCBcUA/PmzQtSIlKCHYO8KA0+ReaBgIJJJQN+wMzymmuuMcFo6dKlpq5GEESQO/jgg20fsK9Pnz6uf//+7qijjrI1W6VKlbJByfLly82803P++edbG2vWrJl78cUX3dy5c03IigcBj4ExGr3HH3/cBL9XX33Vffnll+65556zzuOZZ54xofDaa691Tz75pP2mffv2JtQdeuihJoiypg81/JYtW4Ir74Jn/PHHH80sc+bMma5atWr2PIMHD3Zly5Z1PXv2dJMmTbKBOc/CcyH8fv311+63335zAwYMcMcdd5y9J9yTiRCEOPL7/PPPmwBMPikXNIQ8I5pNTFYRmrlGFCAfK1asMHNUES60r++//z5ICZE+mEyiHxWpDcsl/JIJkRhY6bCJcGEJz4FYb2V3ZIopIgEDfLRYfr0cQhgC2ssvv+w2bNhgwg9r0w455BCzVWaNHSAcYNKJBgttVu7cud2xxx5r5o4ISvGeMAsVKuQee+wxE5bYP2TIEBu8xIPAQR4KFizo6tevbwuduSdCI2vy6tSpY79B6EL7dt1117lzzz3XFphj2ongR97r1q1rwhoCqM8rIPiRDzSLdERlypSx/QiAaPy470033eQaNWrkrr76aluDxwwfz9yhQwdLM3uKgItAy/Pz3DwHwiLPzHpFnoH7Uh78f8opp9i2P2auQgghhBAi+UgqwW4vfl5EksN6N7Rm3bt3N4GnWLFitv+DDz4wwalLly5mYogmD/PMrVu32uwhAhKsW7fOvLdhaujNMxHIFi5c6GrXrm1CjwftGtdD2EFIO+KII1zx4sVNoFy2bJk5C+IYQhLX7d27twlr27dvN4ENQQqNGKaNCE/kFcETrRkCFf/TRrt162YmkQ8//LBp1uK1gjlz5nQVKlQwzRvCmn8OTDIRGBHoEAi5Jvl59NFHTVDl/7Fjx5o5KmagzPpRdgiR5BcnMAiJaA+ZZaecED55Np4Vs0zW8ukdEkIIIYTInkResGNQzFqkV155xY0fPz7YK5IdtEhovzB3ZM0YYOJ4zDHHmFB08cUXm0aN4506dXL58uUz08o77rjDtGiVKlUyl+6sJ0NrhSYOs0sEMzaEJ34Tz4033miaMUw8n3jiCdekSRMTHk844QQT4ho3bmwhN6688koTADGVZL0ebQ9hC7NG0twLLdrAgQPtGGsE3333XffQQw+ZgMnat1GjRplJ5PXXX295B9bc8cyVK1c2oZNnRBjjeVn3h8bu1ltvNVNRzkN7h7klwt8FF1zgatasaVo78sh6PARLfn/qqaeadvOuu+4yjR5CMeXL7/z6RcqudevWJlgKIYQQQojsR6TCHTBYxlaWwSywTgSNCQN81hh99NFH7owzzrBjInVAk/Xaa6+5IkWK7BYC9wXmhzgfQavWsWNHE3BSAcqoV69eJlDyP2acCI5RhXVgaGnbtGmjkCohg5kva0Jp/0KkF9oQbrqxQBCpC9YlLIVo2bJlsEekF94naNeunf0V4UAfxcQ31klRQuEOYuDwgQ3TMjQhaFPQgiBgYlKG6Zm21Nv4qNxyyy2uVatWez0ev9F+aDNo9tDc7e032XGjjNBEolnE8QrOW/b2u6hszCdRP7C349rSv2F+zLpQIRKBduStDUTq4q1gROKoLDMGvneM/cQuIhegHHfzmN5hUrYnOJXAvEwIIcTewdwWRzl4XBVCCCFE5pNVGrvICXasl8KUCEcUOMuIdzyB4wo8IwohhNg7aFpYt8kaTSGEEEJkPhLsYuDtkDVSOIIgWzi0IBg1rt0xMfrkk0+0xk6kCxzwxHvdFFkL6wBx6EIYCZkNhgsOgvCCinAnRHrx8RCl+U1tfGxhrYVOnJUrV9pfxrgiPBhLMJGJA7oooTV2MfBCOGbMGPufeFs4VsDVPcGko7YoUiQXffv2tVAAIhoQvmLQoEEWEF6EC30mgf2FSIRvv/3Wde3aNUiJVGXSpEluypQpQUokAiGL2ES44DRu/vz5QUpEPtwBUjgu3d9//33zeiOEEEIIIYQQ4q8kTYBygjLLjE4IIYQQQggh/k7SCHZCCCGEEEIIIfaOBDshhBBCCCGESHIiJdjhMIVNiLAhgLfaVrSgTkT40M5VtiJRaEeEzhCpDX2J+pNwUFlmDJSpxnd/EqlwBxs3brRwByVLlgz2CBEOS5cuNXezRYoUCfaIrIRwB7hSp39RuINwwU094Q7kUlskAm1o9erVrnLlysEekYqsW7fO/hYvXtz+ivSzatUq+6sxbrgwlsifP7+FtIoSCncQo2jRomrwIkMoV66chLoIkTNnTlemTBkJdRkAHxAJdSJR8EgtoU4g0EmoCwfGtxrjhg/xcKMm1GUlkRLsCEL++++/BykhwgMNEe1LRAfqZC8GAyJB1I+KMKAd7dy5M0iJVIW+RP1JOKgsMwbKVOO7P8nxcIzg/90sW7bMggfXqFHD5c6d26K5b9u2zU2dOtWtX7/epOOtW7daQPEVK1bYDHGePHksAPTChQtNciaN+ducOXNM1UioAlT6M2bMMBMPtCd8NEgvWbLEwhlMnDjRAkkD56Na/eabb+wa2NByXVTZX375pV2LmQ9MNwmgSb7Q+DFQnDt3rgXpZcYxX758lvbBC3mWDRs2uM8//9zyUaJECbdlyxZ7Fq5NvnLlymXPSoDWI444wrQLixYtsuv4axDpnnzwbIULF3a//PKLmzZtmpVH6dKlbf8XX3xhZclzkI958+bZxv/s89fAdIp8/PDDD3YNgjbzLAx8Oc69mTEjX768yBPPt3LlSiv3HTt22DmUA2lMaLgm5TZhwgR7NuoAO2TKgo0yLlCgwO5n4348C3XL81NOlHF8XVMHaFlIU9f8njRlRT1RH+Rj7dq1llfOpUzZT5r6pHx4EUlzXt68ea08eC7Mf/dW17Q5ynTy5Mn2jDwLLzK/p675Pdch/fXXX9tzso/fUteoxMknZebrmnxSpgRfpa1S19yb8vjqq692X4M6JB/Usa9rygf1P+02vq4pT/LB+ZSxr2t/DV/XtLnp06fbX8qHsqfeFi9ebMfJF/mmvPiffFP+/Ibfcg7lQpqy5hygrql7X9e0N/Lhy5g6o64pf9ox7wBtbtOmTe7II4+0NM9Cu+I4ZUaaMuGe9AfkiXL2db1mzRr7DX2Er2ufd7Ry5Je6powpj0MPPdTayosvvmj3pG1TlpQP9UWb2759u9U1bZB7UNecQ/7JF22XdHxd+/6F4OfUJc9E+cTXNdekLnxdcz3qyre57777zs2ePduegbomH5SPr2vSe9a1718oX57NX4O2z7PxPlPXvN/kg37P1zWmqKxj8u+Gr2vfN1BP5IM6jq9r+jlM5il7rhlf11z3s88+s7ri2Xxd0/bi65o070J8XZMP6tqXl69r8kzd0rb2Vddly5a1fohrUAaUDeXh25x/Nl/Xvn+hvngH91bXPDt1TXmS9vXk+xfqw9e1f69p+/SPfBf2VteUN98s2uOedc17TZmi8Yyva/LN8/g2R93Tln1dUx7UNfmg7OPrmnxRJ5R5fF1TP1zH9w089551Tftgv69rno26p67JB+XLxv88G7+lLuP7F64RX9fcg3uTT/Lly8v3v75/4Z6PP/64q1Chgp1DOXEO5bZnXfv32tc116fMuB/P5tsc5URds+zC17WvW+5JG+T3pH09+TbnxxGcy7Own7ol7+SV/pHj1DXfBMqIY1yD8qbuyLOva/JBGVPXtEHuwTXId3z/Qprn8+3F9y/kg/KgbMk7dc01KEfaNe+kfzd4LuraX4M6pJ6oU56XfFA+XINxEGlf19Qr+fD9C8/F5q8R3+aoa/7uq659efG//w7wG95JzqFceBa+cbQf6pY+hfLkuvF17ducfzbKjmehv+NZ+JbwPpE/6pp2xbP7/oXzuCdpX9e8v+zj/jw/fQLvQnxd840jvxynjMkH5eH7F1/XlCXl4/sXP46gDe5Z1+SbZ/RjWeqJa/j+xY8j9lbXXBN4FxjP+PLwYyIgHzzDK6+8YueddNJJ/1jXvn/Zs67j25wfR1BelAf5oq7p48nXnnXt+xc/jtizrumH+LHcQNYAAB4mSURBVF6T9u819Uw+aAPkg7KJr+v4/sV/W/asa56NfPm69u+kb3P0K5wTX9f0pbSJ8ePH2+94lvi69v0Lz0af9d5779n7wT7aHPW1Z137uuUe9C98R+Lr2vcvfhyxNzmFvoK68HXN+dzXtzk/FuEZuA954ToXXHCB/XZvUFahE8vk34i9OGmxB0wrV65cWqxjT4t1hmmxwkyrWLFi2vnnn2+/iRVwWqNGjdLq16+fFqtA23fppZfab2IvQFoss2nPPfecpe+55x47PmLECEtfd911abFOIi3W8aSdeuqpti82CEobNmxYWuwjkla7du204cOH2zlPP/20He/evbul+/fvnxYTONPOPfdcu0esI7Dj55xzTlqsMNNiDSvtqquusn2xD7udc8MNN1j61VdftfTYsWMtTT4g1iDT6tWrZ3mJVbLt49mqVauWFquwtFiFpz3wwAN2zssvv2zHX3/9dUt36tQpLdZx2Hnku27dunacZzvttNPSTjjhhLTYy2v7brnlFjvnww8/tHSPHj3SKleunHb11VdbOtZY7Phll12WFmvkabEXPq1p06a2L9aI7Dekq1evntanTx9Lv/POO3b8kUcesfTo0aPT6tSpk3bWWWelxTrYtFijtOMNGjRIizXutFgjS7vppptsX0x4t3MeeughSz/55JP2+1gDtfSFF15ox2OdTVrDhg3tGrGXyPa1aNHCfhN7Ma0efD3df//9dpy6JE3Zx156uzdlyj7Kk32NGzdOO/bYY61dwBNPPGHH33zzTUvHhPzddR3rlNJig107ft5556XFPohpsU4urVWrVraPOoR27dqlVapUKa1bt26Wpjw4XrNmzbSPPvooLTaw313XXA9inazdhzKOdXZp9957r53TtWtXO861SLOf4/yO63EecB1f11wfbrzxRjtn1KhRluYa5Ovaa6+1NPnlOPnnOXgenot9sQ7WnpfnJl+UA7z11lt2nHcSRo4caeVHOVKesQ7ZjlPOlDf7OnToYPuGDh1q5/h2TH1R17HOx9LNmze349Qv9Ux9U+9w0UUX2W9oF5xDOyFNu4HBgwdbmmemfXFvzmcffUes87f2SLv05dG5c+e0WGe+u65jHbO1a9o38D5xPmneA8ro8ssvt330L8B7w/vDewS8Vxy/+eabLc37T51QN7yPQLpWrVp2feqSvolz/DViH15L045pp7z/9AM8D8Q+dtZ2aEOxTtv2XX/99XYO/Qq89tprVtfsB9oEx+mX6J/op+iv2Bf7aKXFBle767pfv352DvnhOPUEPJuva/rK2AfLjp9yyin2bPSnPh8PP/yw9XX+2Z599ll7Ryk30pdccoldk36b/ptni324bR/9O7+hv6fuaGukff8yYMAAS3fs2NHqmrbPe8A+2izPd+aZZ1pd876B71969+5taf5SprQriH2c7Tj9DXVN3+e/JbRPoOyqVKmS9sYbb1ia9szx22+/3dJ8s+h7Tz/9dPsmAHmgzKhr+ui77rrLzuE9ghdffNHSDz74oL071DX3oH6B95zyPfHEE9NiAx/bx/vLOZ988omlfXuh7QP5IN2mTRvrf6nrs88+2/bxbJQpdU//MXDgQDuHfobjfC+BZ+Nbwnnkm/eY47Rj2gvvE/0c++jfwD/b888/b+3J9y9XXHGFHaccqWv6htgA1vb5NkiafD366KOWph8G2l5skJJ26623WpujX6Ld885BbPBkdX3cccelffzxx7aP94Zr+D7r3XffTatatap9L4B7cbxZs2ZpsQGUXaNly5a2j/4FeM+pB19PfKc4zjPCuHHj0o4//vi0M844w/pN4J1mH+8n78Ydd9xh5/B9BD8Wod+hrmODNHtHuQaQPvnkk60tx/cvnBMTGq1tv/TSS5bmOw60AdLXXHON1TXtjn6OfbRh7tOkSRPLG30kMH7geJcuXSw9ZMgQO87v6G94fzhOvnxdt23b1vb5Mr7tttssTfslX/RzpHlHIDaQtefgeWIDadvn88VzxgbS1keQ9v1Lr169LM37RPlR17xP9MmMuejTyBNl7Nu+71/oE6Bnz55W17y7wPeD43xbqGfq++KLL7Z99C9AX8Q5b7/9tqW5F8f51sJ///vf3XXN+UDfQd7II+3Sl4cfEz311FOWps/iWSkD0rxPEBvU765rxi9w5ZVX2m/oq3l/fN9AO4IxY8ZYmvefOqFuyBP7SPMt8XX9wQcf2DkvvPCCHffjTtpx6dKl7b7ki+fhOH06bYc25NscbRz4lpGm3VDXvn+hzQFtlf6Jfor+C+gDeUepa9qg73/pG4CyJn3nnXdaXfPO8A6Td6DP4hqUcUywsn38lnNor8B3m3eU8QvwLeE477Kvaz9u8P0NdU/d0ScA33yOMyYBvp/kgz6F9wd4Dp6P7wx17cfQ/jvpv09svAd8x/if7ynEyykxQdT2+XEEfTp17fuGu+++244zRiHdvn373XIKfS/7+OZRZrQl+mjGucA3luN+3Mk7QR8fE1Ct7+M6+4K2E/YWKecpsY+UzdjECjTY83dijdtmFJiVY2OWBil5f0H6ZuM8/jIrwMYsgociiX3obFbgn65NXoB8cA4zD8yAAdfn/Hg4zn5+f6D468O+JH+xb2KdvIsNSlys8w32iKwkNlh13bt3d7EBcKb2MakAM6fMpsaEr2CPEAcObYhF/7HBSrBHpCKxQaqNWWKD9mCPSC+8T9CuXTv7K8KBPiomSLmGDRsGe6KBnKfsJ0uXLnUNGjRwTz75pHvsscdMbbq/IIhxDi/Va6+9ZsJr//79TVUbL9+iuu/du7epUPcF6lN+g/oVtmzZ4tq2betat27trr/+evd///d/fzk/JkW7m2++2fKfHjifvF922WX2vxBCCCGEEEJ4kjKgBnauV111lWnZEJ7uv/9+SyNMYYP80EMPuXPPPdf169fPtIDYumIDy5qe4cOHmy0vNsVoB5mJQgOIDTHncC7aBDZse6+++mrbEMi6dOnibrzxRnfDDTe4cePG2f169epla2kAu3IEzueff960awiMXJPfcy9AALznnnvcRRdd5IYNG2bXueWWW0zI/Oijj+ye/J77YNPOb/jtqFGj3IUXXmj2u0IIIYQQQggRT1IKdvFgTsliyg4dOtjCShaWonF7/fXXbcEiiyYR9hAA0XThuAOBrH79+u6OO+4w00gWYOJD5q677rLFkqRZ+Dl48GDXrFkz2z744ANbgNuiRQtblMk9zjzzTNeqVStbTAosyKxTp445nWFxeaNGjcyMoWrVqiY4AgtgH330Ude5c2fbxwJMTEERTMeMGWOLQDmP8xEaEUqfeeYZO4ZwKkR24UBMqMX+Q7mqbEUYqB0JtYHwUN+cMahc/0qkBDuEGYSiAwUtFl5z+Is2r3Llyu62224zwQ1hDo0cdqx+/due+LVxnH/KKaeYcIfZJhozbGTRluGlBw9B3AcPPqyf23OtG/dlXQLehLjvu+++a8LiyJEjd997+fLlJtg98cQT5g0JuCbX55poCrlP48aNzUMRAiYmmOQNAVCkj5NOOsnKU0QDPIfVrVvX2roIF9Ys1q5dO0gJkT74Lp1++ulBSqQqFStWtE0kTvXq1W0T4VKrVi3zRCt2ESnBrkqVKu7EE08MUukDgQpNGO5OcV2Kdu25556zxZVo9/YGixqbN29uJpD8FscpmHked9xxdg4CHgJjvIMVNH24jkXD5k0x0Q7i+AUNn9cUok3kt2j4AM0hmj/vRIW1evFgutmzZ0/XqVMnEzAZoHEdhEk5mUg/CMoI3iIaMCnCoBH3xCJcmMBgHbIQicC3k++iSG0YgzBwFomDAzc2ES5Y4Gni/k8i5RWTrLD9k9dIzBFvvfVW06Sxpi1V1K+UCwLhm2++6Xr06GGxRcT+gwZW6vpoQZ2kx0Os+Gf2px8V4t+gDfGOylIktaENgPqTxFFZZgxRHd/JK2YMNG246v4nmOFHlT1ixAjTrKUKaCIx82T2LF5zKPYPnOiwBlNEAzozOjxMj0W4YApOcG4hEmHlypVu4MCBQUqkKow7vPdvkRg47WMT4TJ58mTzVyF2ESnBDvNFov//E9j940wEs0nW6aQKrEVCU8m6wT3j44l/Byc0DFRENGBShvWjTFiIcGHtLibgQiQCSwAYMInUhgGzBs3hwPj238a44sBBKeR9VoiICXZCCCGEEEIIIQ4cCXZCCCGEEEIIkeRIsBNCCCGEEEKIJEeCnRBCCCGEEEIkOZES7IjbplhtIiMgxglxB0U0wLPr0UcfLUdAGQBulYlBJkQiFChQQIGphTmsYxOJw/hWY9zwITh5oUKFgpSIVBy7X3/91f3++++K0SZCZ9u2bRYUPpU8qUYZuh2C9vOuK6ZPuOzcudM29aMiEWhDhCUhxJBIXX755Rf7mydPHvsr0o/3Aq2+OVwoVyaLozZRrDh2MRh0q8GLjCB//vwS6iIEgUSpEwl14cMEhvpRkSi0Iwl1AoFOQl040C+rbw4fylTWP38SqVHV6tWr3TfffBOkhAiPr776yq1ZsyZIiawGbQAB4zNitirVIf7YkiVLgpQQ6WPLli1u5syZQUqkKsQXZhOJo5iAGQPfuw0bNgQpESnBbu7cuW7SpElBSojw+PDDD024E9EA04nRo0e7H3/8MdgjwoLJsXHjxgUpIdLH8uXLXZ8+fYKUSFVmzJghAT8kCPivoP/hM2HCBE1mxhEpwe6PP/6wNXZChM1vv/1m7UtEB+pkL0t8RYLQzilbIRKBdoRmXaQ2jMk0LgsH+mX1zeGj8d1f0QIXIYQQQgghhEhyJNgJIYQQQgghRJIjwU6kBDly5JAHRiGEEEIIkW2J1EgX98pyWSoygvPPP99Vq1YtSImshnAHuNCWsB0+xPORe3KRKLSjQw89NEiJVIUxmcZl4UDIJYVdCh/KlP5K7CJSAcp/+OEHt2PHDnfEEUcEe4QQ2REW469fv94VLVrUJnREeBCMn+DvxYsXD/YIceDQhnAhXqZMmWCPSEU2b95sfwsXLmx/RfrxLvmLFStmf0U4MJbImzevK1CgQLAnGihAeYxChQpJqEtScLFeoUIFG6jTabVu3doGmIMHD3ZDhw4NfrVvpk6d6m677TYT7PcXXHG/9NJL6fIytWDBAnf88ce7Dh06uOrVq7szzzzTDRkyJDi6C67bq1cvc6W7Pzz33HPuo48+sv/x0PTee+/ZxAhtuly5cu6DDz6wY/HwvDw3zx8mXA+tDXXB/evUqeO+++674GjWg2ksZSOhLnwI/C6hTiQK2joJdQKBTkJdOPA9llAXPoxxoibUZSU5Ho4R/L+bZcuWuUGDBtmgNzMLy880I3mL5IJZvS+//NJ98skn7v/+7/8sPWzYMBOYGMBv3brVBKd58+ZZeuHChSZcEW+LNka9E7C6QYMGbsyYMbafWRhMQPw506dPN0HAt0niHnIeLrkRLBGqGIwULFjQrsFMCYIT5xCL56ijjrL7/vTTT65v3752HYQ3PlqdOnVy5cuXt7Y3fPhwE+aOPvpoO1aiRAn366+/mpDKPUuVKuVWrlzp5s+f70aOHGnXwwwAwc4LUZgYEjcP80+ud9JJJ7mxY8e6M844w/LCeTwXv+e5qlat6n755RcT/ihH8rZp0yb3+eefu2nTplnQ6bJly1qsFn7D/ckfwlr//v0tgCyDMC8ocRwNOM/xwAMPuOuvv97yRAwdyoDj33//vZs9e7bNJCF8E6sIwZwYc2jtuWZGCV9o7Ggj1K/MMcOF+uN9Uz8qEoH+CA1DZo4BRPQg1ijfUZkQJg5B/3mv1DeHC2MJjA+jNlE8a9Yst3TpUnfBBRfsc3lERoS/iNSIikJgMC6SG7QxTZs2datXr7b6pF7RXgECxfvvv28qaoQKBg0IWQxEgRcUYQoha8qUKSZcDBw40K1Zs8a9/fbbf3sJEBAQuCZOnGjC1euvv24C42effeZKly5t90VwQrtHh4pgs2jRIhPWEGKOPPJIux9CFvkcP3685QsB8eWXX7b8Y5LctWtX04TwgeMeCFsDBgywe4wYMcI67CJFipiQFC+ocP9TTz3VPf3007bOj/N5hipVqrhVq1aZZs3HHUNIPeaYY+w5EEy5B8/MfXv06GGCpBdIEeh8OVJWdB57BvdHODvnnHPs/mgFee5nnnnGOkDKiPyXLFnSyo/8cx/Kac6cOa5Lly4uX758GWa3jvCBgMp9RbhQzwR/FyIRvv32W+vrRGrDN4pvkUgcJr7ZRLgwXmJMI3YRKcGOgS2zQyL5QbgDv4QTAejJJ580rdJll11mfxH+GjdubI40GOgDZgrMZt17770mVGFShuCFsIGGCm3Z3kBQQhuG8Hb44YebkNa9e3d3//33/80sDWEF00iuhyCFcIdQA4sXL3YNGzZ0V199tXviiSdsloW8oWFDg402Ei0a2jDOR2hCSOR3CElo4Pyzw5VXXmkCFlozL5iSn+eff96ENW9fTZ54Nu5DntFWIvChZTzttNNMC4nWjrKizG6//XZXq1YtE47I64svvmgCZjzkDS0m98dklXJEWKtXr56ZPZN/yg1NeZMmTdxZZ51l+eN5EXq5fkYtmufZEOL3FNRF4tCmaJ9CJAJWCvRDIrVh0tVPvIrEYHyrMW748L3LiLVqyYpsoETooEVDg+Y1WIAAhbkfJpYPPvigdW7+ZcSU0mu50JghkCHgYMYJCDajRo0yM839gWthFonAw1o/ZnIQ+BioIEwgVOwLhEryxe/QepA/BDUEIK/Nu+6660wwOhAQzAAtHULdCy+8YMKZh0mNxx57zJ6VdX17U9vzXJQVeUIrgxBav359M2GlvK+99trgl/sP10T4xpx0z7oQQgghhBDJQ9KM4BAWMJcT0QXTHbRwaIoQxBBcvMYHYem+++4zwebCCy80QebZZ591rVq1Mk2VF5T4H6EF4cnboyNUoYWrWLGi/WZ/wITo1Vdfdccee6wJS2iGLr30UtP8ofXaF2itECrRirFuD00aZpktWrRwt9xyiwmLnL834QehEDOL+JkjTDFPOeUU165dOysXtHUIUlyH9Sv8FkGTckKr+dRTT1nZAW0+HjRurNlDWGXNHBq32rVru7PPPtvKNl5TCGjq0MRxf+qFtX17ggBJ+XA+1+X63EcIIYQQQiQXkQp3gIaEgX/79u2DPbvMAHAAcffdd7tu3bqZuZ1IbjD9e/zxx13z5s1d3bp1g717B6EHs0rawE033aS4StkENLZoZtu0aZOpfUwqwHoYHPB07Ngx2CPEgUMbwk03312RurAWm4nMli1bBntEeuF9AiZ6RXjQR9WsWdOW0UQJhTvYAxxv4Mjh4osvNiETszORPcBzESaE++OSnUbP4m20SqwPE0IIIYQQQvydSGns8OyHyR7OKVhnhLt471QD8AgYNYlcCHHg4B2U0BGY2UoLGy5r1641E+ZGjRoFe4Q4cNatW2djAMzSRerCGnWWH1SuXDnYI9IL7xPgmEyEB9YFOK7D2VyUyCqNXaQEO4Q4vPvhah0TTBw5xIPzDO+EQgghxN9hPSoOijQQE0IIIbIGCXZxEISZGF0ffviheSH04JhCa+yEEEIIIYQQUUVr7GJ88cUXFncL1/jE/RoyZIgFia5QoULwCyHSBxMFM2fODFIiq8ErKoHnCSshwgXTqT1jGgpxoOAVuGvXrkFKpCqTJk1ykydPDlIiEQikzSbCBU/m8+fPD1IiUoId7t+///57+x8HG2XLljUX83h5e/jhh22fEOmBQQoBvkU0IPwEa2qJLSjChTAhy5cvD1JCpA9iW2qwJNasWWPrdkXiML71Y1wRHitWrLDvnthFUsSxK1asmOvcubM78cQTgz1CCCGEEEIIITxJIdh5fLBrIYQQQgghhBB/klSCnRBCCCGEEEKIvyPBTgghhBBCCCGSnEgJdgUKFHCFCxcOUkKEB8EraV8iGuTIkcPqJGfOnMEeERYEfC9atGiQEiJ95M2b15UsWTJIiVSlUKFC+3TVLg4Mxrca44ZPkSJF7LsndhHJOHZCCCGEEEIIkYwojp0QQgghhBBCiHQRKcFu1apVbsmSJUFKiPCYO3euW716dZASWc2OHTssRlZGzFalOsQDXbRoUZASIn1s3rzZzZgxI0iJVIWYmMQJE4lDPF02ES6LFy+2757YxT+aYl555ZXBnszhu+++c1u3bnU1a9YM9ggRDtOnTzez4jJlygR7RFZCYHKE7apVq8o2PmSYwFi/fr2rXbt2sEeIA4c29NVXX7kzzjgj2CNSEQbNULFiRfsr0g/vE9SoUcP+inBg2RjryqO2JnjTpk1u+/btmW6KuVfBbsGCBZaRbdu2BXsyh5UrV7qff/7ZVa5cOdgjRDjMmjXLnHWUKlUq2COyEjR2X3/9tQ0W8uXLF+wVYbBu3Tq3ceNGV61atWCPEAcObWjhwoWuYcOGwR6RiixdutT+litXzv6K9MP7BBrjhgtjCZzSlChRItgTHVBUXXPNNfsc52SaYPf777/bltmMGTPGzDGvvfbaYI8Q4fD444+7unXrurPPPjvYI7KSH3/80RYWYxUgB03h8tlnn7nZs2e7Dh06BHuEOHBoQ++884575ZVXgj0iFRk0aJA7+OCDXfPmzYM9Ir28/fbb9rdt27b2V4RDjx49TICqX79+sCda5MqVyx100EFB6q9kmmCXVYwePdoEu/bt2wd7hAiHRx55xNWrV881adIk2COyEgS77t27uzZt2kiwC5lp06a5L7/80nXs2DHYI8SBQxvCcqdbt27BHpGKDBgwwAS7li1bBntEeuF9gnbt2tlfEQ70UQh2yWhdIK+YQgghhBBCCCH+hgQ7IYQQQgghhEhyImWKiXkWThWKFSsW7BEiHPAUiPfFfXkmEpkLa3jxuocnK+zPRXjg9ApPXDgLEiK90IZwIV66dOlgj0hFCHvB+qDDDz882CPSi3fJrzFuuDCWwDlJ/vz5gz3JQ7ZfYyeEEEIIIYQQ2R2tsRNCCCGEEEII8TciJdjhFfPNN98MUkKEB14xCachogFm108//bRbs2ZNsEeEBcH4u3btGqSESB94xbzpppuClEhV8IpJyAOROD179rRNhAsetqdOnRqkhDR2QgiRjcC6Xhb2IgzUjoQID/XNGYPK9a9IsBNCCCGEEEKIJEeCnRBCCCGEEEIkORLshBBCCCGEECLJkWAnhBBCCCGEEElOpAS7UqVKucqVKwcpIcKjTp067qijjgpSIqvJnTu3q1WrlgUVFeFSvHhxV61atSAlRPooUqSIa9iwYZASqUq5cuVsE4lTqVIl20S4VK1a1ZUoUSJICQUoF0IIIYQQQohMRAHKhRBCCCGEEEL8jUgJdvPmzXNTpkwJUkKEx8iRI938+fODlMhqmKUaO3asBSoX4bJ06VL36aefBikh0seKFStcv379gpRIVWbOnOlmzZoVpEQiEERbgbTDZ+LEie7bb78NUiJSgh0fkgULFgQpIcKDD9PKlSuDlMhqduzY4WbPnu22b98e7BFhsXbtWpskEyIRNm7c6CZPnhykRKrCgJnJIpE4jG81xg0fJu3XrFkTpIRMMYUQQgghhBAiyZFgJ4QQQgghhBBJjgQ7IYQQQgghhEhyJNgJIYQQQgghRJITKcGOYMUFChQIUkKER6FChVzevHmDlMhqDj74YHfYYYe5HDlyBHtEWOTJk8cVLFgwSAmRPnLnzm1BykVqc+ihh9omEofxrca44cP3ju+e2EWkApT/+uuv7o8//tAAXITOzz//7HLlymWDFZH10O3gEZN3HSFPhMfOnTttY6JMiPRCGyIsiSYJUptffvnF/mrgnDg+GLXGuOFCuebMmdPGeMlGRgQoj5RgJ4QQQgghhBDZnYwQ7CI1Vb5p0ya3evXqICVEeCxbtsxt3rw5SIms5rfffnPLly+3eHYiXAj6vmrVqiAlRPrYtm2bW7x4cZASqcr69evdhg0bgpRIBGKtKd5a+PC947sndhEpwe7zzz93o0aNClJChEevXr3cjBkzgpTIajCN7devn03miHAhWOvQoUODlBDpA6HupZdeClIiVZkwYYL79NNPg5RIBMa3GuOGz/Dhw91XX30VpIQWtwghhBBCCCFEknPQ9u3btcZOCCGEEEIIIZIYaeyEEEIIIYQQIsmRYCeEEEIIIYQQSY4EOyGEEEIIIYRIciTYCSGEEEIIIUSSI8FOCCGEEEIIIZIcCXZCCCGEEEIIkeRIsBNCCCGEEEKIJEeCnRBCCCGEEEIkORLshBBCCCGEECLJkWAnhBBCCCGEEEmOBDshhBBCCCGESGqc+//gOZf74+GNaAAAAABJRU5ErkJggg==;" vertex="1" parent="1">
          <mxGeometry x="180" y="50" width="886" height="614" as="geometry" />
        </mxCell>
      </root>
    </mxGraphModel>
  </diagram>
</mxfile>
